{"glyphs":{"0":{"ha":621,"x_min":0,"x_max":0,"o":""},"1":{"ha":619,"x_min":0,"x_max":0,"o":""},"2":{"ha":621,"x_min":0,"x_max":0,"o":""},"3":{"ha":619,"x_min":0,"x_max":0,"o":""},"4":{"ha":619,"x_min":0,"x_max":0,"o":""},"5":{"ha":619,"x_min":0,"x_max":0,"o":""},"6":{"ha":619,"x_min":0,"x_max":0,"o":""},"7":{"ha":619,"x_min":0,"x_max":0,"o":""},"8":{"ha":619,"x_min":0,"x_max":0,"o":""},"9":{"ha":619,"x_min":0,"x_max":0,"o":""},"\u0000":{"ha":139,"x_min":0,"x_max":0,"o":""},"\n":{"ha":139,"x_min":0,"x_max":0,"o":""}," ":{"ha":347,"x_min":0,"x_max":0,"o":""},"!":{"ha":265,"x_min":0,"x_max":0,"o":"m 47 122 b 58 125 51 122 56 124 b 69 139 64 129 68 133 l 283 971 l 285 979 b 278 1001 285 986 282 994 b 253 1018 272 1010 263 1017 l 243 1019 b 204 988 225 1019 208 1007 l 25 150 l 25 144 b 42 124 25 135 31 126 b 47 122 43 122 46 122 z m 26 7 b 71 50 51 7 71 26 b 26 94 71 74 51 94 b -17 50 3 94 -17 74 b 26 7 -17 26 3 7 z "},"\"":{"ha":346,"x_min":0,"x_max":0,"o":"m 96 739 b 128 769 111 739 121 750 l 165 890 l 167 899 b 160 921 167 907 164 915 b 135 939 154 931 144 936 l 126 940 b 86 907 108 940 92 926 l 69 772 b 93 739 69 758 71 740 z m 204 739 b 236 769 221 739 229 750 l 274 890 l 275 899 b 268 921 275 907 272 915 b 243 939 263 931 253 936 l 235 940 b 194 907 217 940 200 926 l 178 772 b 201 739 178 758 179 740 z "},"#":{"ha":593,"x_min":0,"x_max":0,"o":"m 372 108 b 382 111 375 108 379 110 b 390 124 386 114 390 118 l 443 326 l 499 326 b 513 340 507 326 513 332 l 513 369 b 499 383 513 376 507 383 l 458 383 l 497 535 l 572 535 b 581 542 576 535 581 538 l 581 571 b 572 578 581 575 576 578 l 508 578 l 563 792 l 564 793 l 564 799 b 558 818 564 806 563 813 b 538 833 554 826 546 832 l 531 833 b 511 829 524 833 518 832 b 497 807 504 824 499 817 l 449 578 l 176 578 l 231 793 l 232 801 b 226 818 232 807 231 814 b 206 833 222 826 214 832 l 199 833 b 179 829 192 833 186 832 b 165 807 172 824 167 817 l 115 578 l 68 578 b 61 571 64 578 61 575 l 61 542 b 68 535 61 538 64 535 l 107 535 l 74 383 l -6 383 b -19 369 -14 383 -19 376 l -19 340 b -6 326 -19 332 -14 326 l 61 326 l 21 132 l 21 128 b 35 110 21 119 26 111 b 40 108 36 108 38 108 b 50 111 43 108 47 110 b 58 124 54 114 57 118 l 111 326 l 394 326 l 353 132 l 353 128 b 367 110 353 119 358 111 b 372 108 368 108 371 108 z m 406 383 l 126 383 l 165 535 l 439 535 z "},"$":{"ha":669,"x_min":0,"x_max":0,"o":"m 228 -74 b 264 -43 246 -74 261 -60 l 281 54 b 399 89 321 58 361 71 b 507 175 443 111 479 140 b 544 236 522 193 535 214 b 564 304 554 260 560 282 b 568 344 567 318 568 332 b 564 383 568 358 567 371 b 529 458 560 408 547 435 b 408 550 493 504 446 531 l 385 561 b 418 699 394 604 406 649 b 461 867 433 760 447 815 b 513 849 479 863 497 857 b 557 814 531 839 546 826 b 579 765 568 799 576 782 l 581 747 b 554 661 581 714 567 683 b 549 649 551 657 550 653 l 547 639 b 582 596 547 619 561 600 l 593 594 b 636 629 613 594 636 608 b 646 704 642 657 646 681 l 646 715 b 635 782 646 740 642 763 b 592 846 625 807 610 829 b 529 886 574 863 553 876 b 471 901 511 893 492 899 l 483 943 b 485 947 485 944 485 946 l 485 953 b 458 985 485 968 474 982 l 456 985 b 421 957 439 985 424 974 l 413 906 l 392 904 b 258 867 343 900 299 888 b 153 769 214 844 176 810 b 138 736 147 760 142 749 b 125 700 133 726 129 715 b 121 660 122 689 121 675 b 128 614 121 646 122 629 b 176 540 138 581 160 556 b 239 496 193 524 214 510 b 321 460 267 481 293 469 l 261 217 l 226 88 b 146 110 196 90 169 97 b 78 193 111 128 86 158 b 75 224 75 203 75 213 b 92 301 75 249 81 275 b 94 313 93 306 94 308 l 94 318 b 86 344 94 328 92 336 b 57 361 79 354 69 360 l 50 361 b 8 324 31 361 8 346 b 4 267 6 304 4 285 l 4 249 b 10 211 6 236 7 222 b 22 174 13 199 17 186 b 65 110 32 149 47 128 b 128 71 83 93 104 81 b 217 51 156 60 185 53 l 193 -26 l 192 -39 b 222 -72 192 -56 206 -69 z m 286 88 b 358 444 315 242 336 340 b 467 397 397 431 436 419 b 511 310 497 375 510 347 b 501 251 511 290 507 269 b 286 88 474 160 388 99 z m 347 576 b 238 621 311 592 271 604 b 190 692 199 643 192 663 b 407 872 192 779 278 872 b 347 576 390 778 367 665 z "},"%":{"ha":850,"x_min":0,"x_max":0,"o":"m 125 485 b 385 703 225 485 340 581 b 403 800 397 736 403 769 b 378 892 403 835 394 867 b 279 947 356 925 322 944 l 271 947 b 10 729 171 947 54 853 b -8 633 -3 696 -8 664 b 17 540 -8 599 0 565 b 115 485 39 507 74 488 z m 113 507 b 57 536 89 507 69 517 b 40 604 46 553 40 576 b 63 714 40 636 47 675 b 283 925 108 831 207 925 b 338 896 307 925 325 915 b 356 828 350 879 356 856 b 332 718 356 796 347 757 b 113 507 286 601 188 507 z m 490 25 b 751 243 590 25 706 121 b 769 339 764 276 769 308 b 744 432 769 374 761 407 b 646 488 722 465 688 485 l 638 488 b 376 269 536 488 421 393 b 357 174 364 236 357 204 b 383 81 357 138 367 106 b 481 25 404 47 439 28 z m 478 47 b 422 76 454 47 436 57 b 406 143 411 93 406 117 b 429 254 406 176 414 215 b 649 465 475 371 574 465 b 704 436 672 465 692 456 b 721 368 715 419 721 396 b 699 258 721 336 714 299 b 478 47 651 142 553 47 z m 133 -12 b 167 10 147 -12 161 -4 b 274 238 203 90 242 171 l 388 464 b 506 686 422 531 460 601 b 633 906 551 768 590 838 l 635 910 b 638 922 638 914 638 918 b 636 933 638 926 638 931 b 618 951 632 942 626 949 b 606 954 615 954 611 954 b 593 951 601 954 597 954 b 576 935 586 949 579 943 b 468 707 544 861 510 790 b 351 482 424 619 388 549 l 292 371 l 231 261 b 103 43 193 196 150 119 l 101 39 b 99 24 99 35 99 29 b 119 -10 99 10 106 -4 b 133 -12 124 -11 129 -12 z "},"&":{"ha":1133,"x_min":0,"x_max":0,"o":"m 419 0 b 763 99 538 0 663 35 b 932 24 818 54 872 24 l 933 24 b 1078 79 992 24 1036 42 b 1129 172 1104 101 1125 138 l 1131 189 b 1114 242 1131 204 1128 225 b 1049 267 1099 258 1076 267 b 982 228 1004 267 985 246 l 982 224 b 988 203 982 217 985 210 b 1014 192 994 196 1003 193 b 1036 208 1025 192 1029 200 b 1068 231 1042 221 1047 231 b 1090 219 1075 229 1085 226 b 1100 185 1097 210 1100 199 l 1099 171 b 1018 76 1089 108 1063 76 b 839 158 957 76 897 111 b 965 393 903 219 949 297 b 969 436 968 408 969 422 b 935 540 969 478 958 513 b 806 597 906 576 860 597 b 633 533 722 597 667 561 b 563 417 597 499 568 454 b 561 392 561 406 561 399 b 417 439 514 421 467 439 b 246 317 318 439 256 376 l 244 304 b 257 263 244 288 250 272 b 311 240 269 247 288 242 b 365 275 354 240 365 263 b 350 294 365 286 360 294 b 331 285 343 294 338 289 b 301 269 322 276 313 269 b 276 279 290 269 283 272 b 269 306 271 285 269 293 l 269 315 b 336 385 275 350 301 385 b 661 193 463 385 563 288 l 718 138 b 715 133 718 136 717 135 b 421 32 624 69 514 32 l 419 32 b 221 114 338 32 267 63 b 171 258 188 153 171 203 l 174 296 b 336 546 186 393 250 490 b 475 589 369 567 418 589 b 543 578 497 589 519 585 l 546 578 b 578 611 565 579 578 596 l 578 614 b 551 638 578 628 567 638 l 540 636 b 500 653 522 636 510 644 b 467 747 478 674 467 711 l 468 771 b 708 960 488 886 582 960 b 803 915 744 960 779 944 b 833 829 822 892 833 860 l 831 803 b 669 643 810 692 724 643 b 581 679 625 643 594 654 b 572 711 575 689 572 700 b 588 767 572 731 579 751 b 646 814 604 793 626 811 l 644 811 l 644 806 b 653 781 644 796 647 788 b 679 768 660 772 669 768 b 726 808 700 768 721 786 l 726 815 b 699 850 726 832 717 846 b 675 856 693 853 685 856 b 550 714 604 856 550 781 b 672 614 550 651 596 614 b 899 797 769 614 881 682 l 901 826 b 868 922 901 863 890 896 b 704 983 843 950 796 983 l 701 983 b 399 764 528 983 415 871 b 396 733 396 754 396 744 b 429 636 396 697 407 664 b 190 521 339 622 257 583 b 74 310 129 463 86 386 b 69 258 71 292 69 275 b 122 111 69 201 88 153 b 418 0 182 42 289 1 z m 792 199 b 733 251 772 215 753 232 b 638 336 701 281 669 310 b 674 365 656 340 672 351 l 675 371 b 667 394 675 379 671 388 b 649 403 663 400 654 403 l 638 400 b 610 393 629 397 618 393 l 600 396 b 596 408 597 399 596 404 l 597 418 b 785 568 604 465 663 568 b 869 528 817 568 847 553 b 901 433 890 503 901 469 b 897 399 901 422 900 410 b 792 199 888 328 849 258 z "},"'":{"ha":238,"x_min":0,"x_max":0,"o":"m 96 747 b 128 778 111 747 121 758 l 165 899 l 167 907 b 160 929 167 915 164 924 b 135 947 154 939 144 944 l 126 949 b 86 915 108 949 92 935 l 69 781 b 93 747 69 767 71 749 z "},"(":{"ha":357,"x_min":0,"x_max":0,"o":"m 192 -124 b 199 -121 194 -124 196 -122 b 204 -111 201 -119 204 -115 b 199 -100 204 -107 203 -103 b 196 -99 197 -100 196 -100 b 86 181 168 -83 86 -36 b 161 551 86 294 113 422 b 451 921 236 743 347 885 b 554 944 485 932 519 940 b 563 949 557 944 560 947 l 564 956 l 564 958 b 560 967 564 961 563 964 l 551 968 b 201 779 417 951 296 886 b 28 425 118 685 57 560 b 11 265 17 371 11 317 b 31 103 11 207 18 153 b 186 -121 58 0 111 -76 z "},")":{"ha":439,"x_min":0,"x_max":0,"o":"m -162 -122 b 188 67 -29 -107 92 -40 b 360 422 271 161 332 288 b 378 585 371 476 378 531 b 357 743 378 640 371 694 b 201 967 331 846 276 922 l 196 969 l 190 967 b 183 957 186 965 183 961 b 190 946 183 953 186 949 b 192 944 190 946 192 946 b 301 665 225 929 301 869 b -62 -76 301 389 133 -7 b -154 -97 -110 -92 -139 -94 b -176 -111 -165 -99 -176 -100 l -176 -112 b -172 -121 -176 -115 -174 -118 b -164 -122 -169 -122 -167 -122 z "},"*":{"ha":414,"x_min":0,"x_max":0,"o":"m 211 729 b 222 740 217 729 222 735 l 211 858 l 288 772 b 289 771 288 771 289 771 b 297 767 292 768 294 767 b 307 772 301 767 304 769 b 310 781 308 775 310 778 b 306 790 310 785 308 788 l 215 863 l 331 856 l 333 857 b 344 871 340 857 344 864 b 331 882 343 878 338 882 l 215 871 l 301 947 b 303 949 303 947 303 947 b 306 957 304 951 306 954 b 301 967 306 960 304 964 l 294 969 b 283 964 290 969 286 967 l 210 875 l 217 992 b 203 1004 217 999 210 1004 b 192 993 197 1003 192 999 l 203 875 l 125 963 b 117 965 122 964 119 965 b 107 961 113 965 110 964 b 104 953 106 958 104 956 b 108 943 104 949 106 946 l 199 869 l 81 876 b 69 863 74 876 69 869 b 81 851 71 857 75 851 l 199 863 l 113 786 b 111 785 111 786 111 785 b 108 776 110 782 108 779 b 113 767 108 772 110 769 b 121 764 115 765 118 764 b 131 768 125 764 128 765 l 203 857 l 197 740 b 208 729 197 735 203 729 z "},"+":{"ha":414,"x_min":0,"x_max":0,"o":"m 119 164 b 132 168 124 164 129 165 b 139 179 136 171 139 175 b 160 293 144 215 150 251 b 183 397 168 333 175 367 l 229 396 b 288 393 246 396 265 394 b 403 386 321 392 363 390 l 406 386 b 425 410 417 386 425 397 l 425 413 b 417 432 425 419 422 426 b 404 436 413 435 408 436 b 288 429 363 432 322 431 b 229 428 265 429 246 429 l 190 428 b 200 464 193 439 196 451 b 215 519 204 481 208 497 b 249 631 224 553 236 592 l 249 638 b 228 658 249 647 240 656 l 222 658 b 207 654 217 658 211 657 b 200 643 203 651 200 647 b 179 528 193 601 186 561 b 168 471 175 506 172 488 l 158 428 b 54 429 128 428 94 428 b -61 438 11 431 -25 433 l -65 438 b -82 413 -75 436 -82 425 b -74 396 -82 406 -79 400 b -65 392 -71 393 -68 392 l -62 392 b 54 397 -25 394 11 396 l 151 397 b 128 301 146 368 138 338 b 94 189 117 258 107 224 l 94 183 b 114 164 94 175 103 167 z "},",":{"ha":326,"x_min":0,"x_max":0,"o":"m -8 -87 b 250 82 0 -87 250 -49 b 182 151 250 121 219 151 b 114 82 144 151 114 121 b 154 18 114 54 129 29 b -10 -65 136 -10 93 -53 b -19 -76 -15 -65 -19 -71 b -8 -87 -19 -82 -14 -87 z "},"-":{"ha":424,"x_min":0,"x_max":0,"o":"m -71 378 b 175 389 28 388 111 388 b 299 388 211 389 250 389 b 421 381 344 386 382 385 l 424 381 b 440 404 433 382 440 392 b 432 422 439 411 436 418 b 421 425 429 424 425 425 b 299 418 382 421 344 419 b 175 417 250 417 211 417 b -71 428 110 418 25 418 l -74 428 b -92 401 -85 426 -92 415 b -72 378 -92 388 -83 378 z "},".":{"ha":240,"x_min":0,"x_max":0,"o":"m 100 125 b 32 57 63 125 32 94 b 100 -12 32 18 63 -12 b 168 57 138 -12 168 18 b 100 125 168 94 138 125 z "},"/":{"ha":310,"x_min":0,"x_max":0,"o":"m -35 -7 b -22 -6 -31 -7 -26 -7 b -1 14 -12 -1 -6 6 b 106 243 35 96 72 175 b 163 356 126 286 144 322 b 219 468 181 394 201 432 b 338 692 253 535 290 606 b 464 910 383 774 422 842 b 467 914 465 911 467 913 b 469 928 468 918 469 924 b 467 939 469 932 468 935 b 450 956 464 946 458 953 b 436 958 446 958 440 958 b 425 957 432 958 429 958 b 407 939 417 953 411 947 b 300 711 376 867 342 796 b 183 488 256 624 218 553 l 124 376 l 63 265 b -65 47 25 200 -19 124 l -68 43 b -71 28 -71 39 -71 33 b -50 -4 -71 15 -64 1 b -35 -7 -44 -7 -40 -7 z "},":":{"ha":213,"x_min":0,"x_max":0,"o":"m 14 190 b -54 121 -24 190 -54 158 b 14 53 -54 83 -24 53 b 82 121 51 53 82 83 b 14 190 82 158 51 190 z m 97 504 b 29 436 60 504 29 474 b 97 368 29 399 60 368 b 167 436 136 368 167 399 b 97 504 167 474 136 504 z "},";":{"ha":285,"x_min":0,"x_max":0,"o":"m 168 368 b 236 436 206 368 236 399 b 168 504 236 474 206 504 b 100 436 131 504 100 474 b 168 368 100 399 131 368 z m -118 -67 b 140 103 -110 -67 140 -28 b 72 172 140 140 110 172 b 4 103 35 172 4 140 b 44 39 4 74 19 50 b -119 -44 26 10 -17 -32 b -129 -56 -125 -46 -129 -50 b -118 -67 -129 -62 -124 -67 z "},"<":{"ha":296,"x_min":0,"x_max":0,"o":"m 78 422 b 285 583 129 463 283 582 l 290 586 l 275 614 l -54 371 l 163 139 l 210 183 l 204 189 b 58 383 203 189 58 306 b 78 422 58 399 65 413 z "},"=":{"ha":401,"x_min":0,"x_max":0,"o":"m 3 408 b 192 419 78 418 146 418 b 286 418 219 419 249 419 b 379 411 321 417 350 415 l 382 411 b 394 435 389 413 394 422 b 388 453 393 442 392 449 b 379 456 386 454 383 456 b 286 449 350 451 321 450 b 192 447 249 447 219 447 b 3 458 143 447 79 449 l 0 458 b -14 432 -8 457 -14 446 b 1 408 -12 418 -7 408 z m -14 296 b 81 304 19 300 53 303 b 128 306 99 306 114 306 b 175 307 144 307 160 307 l 219 308 l 269 307 b 364 300 306 306 335 303 l 365 299 l 367 300 b 378 319 372 300 378 308 l 378 324 b 372 340 378 331 376 336 b 364 344 369 343 367 344 b 269 336 335 340 306 338 l 219 335 l 175 336 l 128 336 l 81 339 b -14 346 53 340 19 342 l -15 346 b -29 319 -24 344 -29 333 b -22 300 -29 311 -26 304 b -14 296 -21 297 -18 296 z "},">":{"ha":294,"x_min":0,"x_max":0,"o":"m 81 613 l 35 568 l 40 564 b 186 369 42 563 186 446 b 167 329 186 353 179 340 b -42 169 115 289 -39 171 l -46 165 l -31 139 l 299 382 z "},"?":{"ha":510,"x_min":0,"x_max":0,"o":"m 53 -35 b 96 8 76 -35 96 -15 b 53 51 96 32 76 51 b 10 8 29 51 10 32 b 53 -35 10 -15 29 -35 z m 110 85 b 210 118 140 85 175 96 b 331 251 258 147 301 194 l 332 257 b 326 267 332 261 331 265 l 321 268 b 310 263 317 268 313 267 b 108 108 261 169 169 108 b 92 110 103 108 97 108 b 57 161 69 115 57 133 b 204 288 57 201 122 239 b 450 464 279 332 374 388 b 578 706 526 540 571 626 l 579 725 b 510 872 579 803 542 847 b 418 913 468 903 435 907 l 417 911 b 376 914 404 914 390 914 b 308 907 354 914 332 913 b 19 607 133 871 28 725 l 18 586 b 56 486 18 542 31 508 b 138 460 76 468 104 460 b 182 464 151 460 167 461 b 333 565 256 479 326 526 l 333 578 b 324 600 333 588 329 596 b 300 608 317 607 308 608 l 292 608 b 246 560 268 603 247 582 b 256 533 246 549 249 539 b 271 525 260 529 265 526 b 207 500 251 514 229 504 b 176 497 196 497 186 497 b 115 518 153 497 132 504 b 82 606 94 538 82 568 l 82 617 b 260 863 92 740 181 825 b 375 890 299 882 339 890 b 458 868 407 890 436 883 b 510 751 493 844 510 804 l 510 733 b 350 447 503 647 443 540 b 201 335 308 406 254 369 b 35 156 115 279 35 225 b 86 88 35 121 53 96 b 110 85 93 86 101 85 z "},"@":{"ha":969,"x_min":0,"x_max":0,"o":"m 371 4 l 374 29 l 361 29 b 76 351 156 29 79 203 l 76 363 b 547 879 76 613 249 871 b 857 628 794 879 847 722 b 858 589 858 615 858 603 b 772 290 858 494 828 385 b 539 89 708 179 622 106 l 521 88 b 469 110 499 88 481 96 b 454 161 460 122 454 140 b 478 256 454 188 463 219 b 565 414 503 308 535 361 b 660 621 617 503 660 575 b 654 646 660 631 658 639 b 601 667 646 660 628 667 l 597 669 b 585 650 592 656 594 663 b 551 603 575 635 564 619 b 433 704 550 607 510 704 b 185 399 289 704 185 522 b 263 297 185 335 213 297 b 415 396 314 297 368 349 b 474 460 435 415 453 436 b 436 400 457 433 444 415 b 389 315 413 365 404 351 l 385 308 l 386 308 b 361 213 372 275 364 243 l 360 190 b 396 93 360 151 372 119 b 504 46 426 58 472 46 b 817 235 683 46 796 203 b 900 411 854 285 882 344 b 915 497 907 440 913 469 l 918 544 b 822 810 918 651 885 744 b 549 915 756 879 661 915 l 531 915 b 158 735 349 907 228 813 b 10 408 76 643 21 521 b 8 368 8 394 8 381 b 94 121 8 271 39 186 b 365 6 160 49 253 8 z m 308 354 b 299 357 303 354 300 356 b 289 385 292 361 289 371 b 296 429 289 397 290 413 b 468 625 319 508 393 625 b 531 592 504 625 529 594 l 533 585 l 544 592 b 399 410 501 532 453 467 l 397 408 b 308 354 347 364 321 354 z "},"A":{"ha":1246,"x_min":0,"x_max":0,"o":"m 979 -425 b 1010 -393 996 -424 1010 -410 b 978 -361 1010 -375 996 -361 b 946 -393 960 -361 946 -375 b 954 -415 946 -401 950 -410 b 876 -314 924 -410 876 -390 b 1550 1053 876 -197 1363 947 l 1582 1053 l 1583 1056 b 1181 1114 1583 1072 1350 1114 b 654 774 775 1114 654 918 b 756 621 654 650 756 621 b 717 732 756 621 717 658 b 1225 1097 717 983 988 1097 b 1417 1057 1292 1097 1357 1085 b 838 519 1199 997 1019 757 b 583 618 751 547 669 596 b 494 629 553 626 522 629 b 268 550 407 629 331 596 b 225 553 254 551 240 553 b -104 225 13 553 -104 383 b 182 -47 -104 85 -14 -47 b 908 463 485 -47 707 200 l 922 463 b 1051 483 964 463 1006 468 b 1097 503 1058 485 1078 493 b 808 -206 938 183 808 -164 b 974 -425 808 -314 878 -419 z m 157 -24 b -31 204 26 -24 -31 83 l -31 221 b 228 542 -24 372 72 539 l 256 542 b 176 465 226 518 199 492 l 182 464 b 282 539 215 497 249 521 b 378 507 326 532 357 518 b 353 475 363 503 353 490 b 385 443 353 458 367 443 b 415 475 401 443 415 458 b 408 494 415 483 413 489 b 297 546 406 500 369 532 b 419 572 339 565 379 572 b 536 556 458 572 497 565 b 804 474 619 535 707 494 b 157 -24 608 218 408 -24 z m 956 499 l 938 499 b 1446 1031 1108 724 1265 949 b 1496 1047 1464 1039 1481 1043 b 1115 538 1381 1000 1240 781 b 956 499 1057 508 1004 499 z "},"B":{"ha":1526,"x_min":0,"x_max":0,"o":"m 943 -47 b 1426 297 1128 -47 1426 46 b 1174 497 1426 439 1271 482 b 1568 803 1457 531 1568 664 b 1299 1113 1568 979 1454 1078 l 1313 1126 b 1554 1247 1389 1203 1467 1247 l 1590 1244 b 1579 1221 1583 1239 1579 1231 b 1610 1189 1579 1203 1593 1189 b 1640 1221 1626 1189 1640 1203 b 1621 1249 1640 1233 1632 1244 b 1532 1264 1592 1260 1561 1264 b 1238 1122 1432 1264 1333 1210 b 1158 1126 1211 1125 1185 1126 b 467 643 844 1126 467 933 b 638 440 467 551 517 471 b 543 621 568 494 543 558 b 1158 1107 543 918 892 1103 b 1218 1106 1179 1107 1199 1107 b 422 44 901 803 615 165 l 418 42 b 201 -29 336 -8 263 -29 b -51 254 39 -29 -51 113 b 133 514 -51 367 7 478 b 128 496 129 508 128 501 b 132 479 128 490 129 485 b 160 464 138 469 149 464 b 175 468 165 464 169 465 b 190 494 185 474 190 483 b 186 511 190 500 189 506 b 160 528 181 521 169 528 l 151 526 b 147 525 150 526 149 526 b -106 221 -19 481 -106 347 b 192 -47 -106 85 -8 -43 l 206 -47 b 1282 1094 761 -47 946 724 b 1458 888 1386 1068 1458 1001 b 1131 506 1458 711 1282 506 l 1108 507 l 1101 488 l 1115 488 b 1188 474 1133 488 1165 486 b 1310 283 1244 443 1310 385 b 924 -24 1310 115 1140 -24 b 796 42 856 -24 813 8 b 808 39 800 40 804 39 b 824 43 814 39 819 40 b 839 69 833 49 839 58 b 835 86 839 75 838 81 b 807 103 829 97 818 103 b 792 99 801 103 796 101 l 786 94 b 771 57 776 88 771 74 b 943 -47 771 14 813 -47 z "},"C":{"ha":840,"x_min":0,"x_max":0,"o":"m 271 -54 b 760 385 565 -54 760 218 b 639 510 760 457 722 510 b 500 475 601 510 556 499 b 476 444 486 471 476 460 b 508 413 476 428 492 413 b 540 444 526 413 540 428 b 524 472 540 457 533 467 b 633 497 567 489 604 497 b 740 386 707 497 740 451 b 283 -28 740 232 556 -28 b 88 185 164 -28 88 40 b 283 701 88 329 164 526 b 547 635 339 661 422 635 b 1065 940 876 635 1047 801 b 1067 967 1067 949 1067 958 b 875 1131 1067 1054 1001 1126 l 857 1131 b 226 813 604 1131 382 994 b 183 968 194 853 183 913 b 197 1069 183 1007 189 1043 b 224 1056 204 1061 213 1056 b 256 1088 242 1056 256 1071 b 224 1119 256 1106 242 1119 b 164 961 193 1119 164 1046 b 211 793 164 904 176 842 b -11 244 72 622 -11 415 b 271 -54 -11 74 75 -54 z m 546 654 b 297 721 428 654 349 681 b 874 1108 447 933 661 1108 b 1039 961 981 1108 1039 1043 l 1038 938 b 546 654 1021 808 865 654 z "},"D":{"ha":1542,"x_min":0,"x_max":0,"o":"m 208 -50 b 464 13 304 -50 388 -26 b 728 -47 539 -28 631 -47 b 1517 628 1082 -47 1517 203 b 1253 1057 1517 858 1406 994 b 1313 1122 1272 1081 1292 1103 b 1557 1243 1389 1199 1468 1243 b 1590 1242 1568 1243 1579 1243 b 1579 1217 1583 1235 1579 1226 b 1610 1186 1579 1200 1593 1186 b 1640 1217 1626 1186 1640 1200 b 1621 1246 1640 1229 1632 1240 b 1532 1261 1592 1256 1561 1261 b 1193 1076 1417 1261 1303 1188 b 1019 1100 1139 1092 1079 1100 b 365 632 708 1100 365 904 b 525 436 365 544 411 467 b 438 611 460 489 438 550 b 1036 1078 438 729 568 1076 b 1178 1061 1089 1078 1136 1072 b 422 40 878 746 607 157 l 418 39 b 201 -33 336 -12 263 -33 b -51 250 39 -33 -51 110 b 133 511 -51 364 7 475 b 128 493 131 506 128 500 b 160 461 128 475 142 461 b 192 493 178 461 192 475 b 160 524 192 510 178 524 l 150 522 b -106 217 -18 479 -106 344 b 192 -50 -106 82 -8 -46 z m 653 -19 b 467 15 593 -19 531 -10 b 1239 1040 813 199 986 726 b 1433 726 1369 983 1433 865 b 653 -19 1433 353 1003 -19 z "},"E":{"ha":854,"x_min":0,"x_max":0,"o":"m 174 -140 b 814 413 503 -140 797 210 l 814 428 b 661 564 814 522 746 564 b 361 293 529 564 361 461 l 363 267 b 500 133 374 165 465 133 l 504 133 b 403 307 436 169 403 236 b 649 542 403 421 489 542 l 679 540 b 785 415 749 533 785 485 l 783 397 b 244 -97 769 214 503 -97 l 243 -97 b 21 103 104 -97 21 -8 l 22 122 b 350 485 32 243 111 485 l 351 485 b 432 521 353 485 392 521 l 439 521 b 331 685 439 539 331 547 l 333 725 b 664 1067 365 958 525 1067 b 876 856 808 1065 876 960 b 694 657 876 756 814 657 b 632 669 664 657 646 660 b 658 700 647 672 658 685 b 628 732 658 718 644 732 b 596 697 607 732 596 717 b 688 642 596 644 674 642 b 947 869 857 642 947 756 b 676 1090 947 979 861 1090 b 218 706 483 1090 236 940 l 218 694 b 353 533 218 640 246 556 l 350 533 b -97 132 86 533 -86 282 l -99 106 b 168 -140 -99 -28 -7 -137 z "},"F":{"ha":1171,"x_min":0,"x_max":0,"o":"m 290 -46 b 1015 547 610 -46 846 271 l 1096 546 b 1136 549 1110 546 1124 547 b 1090 458 1118 519 1103 490 l 1089 453 b 1107 438 1089 443 1099 438 b 1124 449 1114 438 1121 440 b 1176 554 1138 486 1156 522 b 1178 556 1178 554 1178 556 b 1218 571 1192 558 1206 564 b 1265 626 1233 579 1265 604 b 1254 646 1265 633 1263 640 b 1242 650 1250 649 1246 650 b 1208 631 1229 650 1217 638 b 1160 581 1190 615 1175 599 l 1157 576 b 1114 572 1143 574 1128 572 l 1031 572 b 1288 951 1149 771 1232 942 l 1278 956 b 1769 1143 1474 956 1658 990 b 1808 1225 1786 1167 1800 1194 l 1810 1232 b 1797 1257 1810 1242 1806 1250 b 1779 1263 1792 1261 1785 1263 b 1754 1250 1769 1263 1760 1258 b 1747 1232 1750 1244 1747 1239 b 1761 1207 1747 1222 1753 1213 b 1781 1201 1767 1203 1774 1201 l 1788 1201 b 1528 1046 1738 1111 1649 1065 b 1358 1032 1469 1036 1413 1032 b 817 1086 1153 1032 978 1086 b 367 822 657 1086 513 1033 b 301 633 321 756 301 692 b 410 425 301 546 344 472 b 471 392 428 411 449 400 b 426 268 444 354 426 311 l 426 263 l 425 260 b 426 256 425 258 425 257 l 426 254 b 457 228 429 239 442 228 b 489 260 475 228 489 242 b 457 292 489 278 475 292 b 443 288 451 292 447 290 b 488 385 450 324 465 356 b 583 369 518 375 550 369 b 808 456 658 369 736 396 l 804 461 b 635 393 751 413 693 393 b 518 419 594 393 554 403 b 572 464 535 438 553 451 b 807 544 642 511 724 535 b 896 549 836 547 865 549 b 521 44 751 332 607 99 l 517 43 b 300 -29 435 -8 361 -29 b 47 254 138 -29 47 114 b 231 514 47 367 106 478 b 224 496 226 508 224 503 b 256 464 224 478 239 464 b 288 496 274 464 288 478 b 256 528 288 514 274 528 l 251 528 b 250 526 251 528 250 528 b 243 525 247 526 246 526 b -7 221 78 479 -7 347 b 290 -46 -7 86 90 -46 z m 1204 590 l 1210 599 l 1228 618 b 1239 625 1232 621 1233 625 l 1240 625 b 1243 624 1242 625 1243 625 b 1229 607 1243 621 1232 610 b 1204 590 1222 600 1214 596 z m 501 428 b 468 450 490 435 479 442 b 340 681 393 504 340 590 b 386 819 340 728 354 775 b 571 954 422 871 482 917 l 575 956 b 774 985 629 978 697 985 b 1236 957 911 985 1076 961 b 913 575 1153 922 1033 756 b 538 461 779 571 643 547 b 501 428 525 451 514 440 z "},"G":{"ha":949,"x_min":0,"x_max":0,"o":"m 354 -137 b 875 406 700 -137 872 382 l 876 422 b 825 521 876 468 853 515 l 822 521 b 797 503 813 521 804 515 b 293 143 779 464 557 143 b 247 146 278 143 263 143 b 50 350 122 164 50 242 l 51 374 b 799 1151 85 738 486 1151 l 803 1151 b 950 999 908 1150 950 1085 b 606 564 950 825 779 564 b 575 567 596 564 585 565 b 503 654 524 576 503 611 b 706 885 503 749 604 885 l 708 885 b 729 878 718 885 724 882 b 706 847 715 875 706 863 l 706 844 b 736 814 706 828 719 814 l 739 814 b 768 846 754 814 768 829 b 756 872 768 857 764 867 b 704 893 744 886 726 893 l 697 893 b 467 674 561 893 467 776 b 543 550 467 624 490 576 b 604 536 561 540 582 536 b 1038 983 772 536 1032 775 l 1038 990 b 785 1193 1038 1135 900 1183 l 751 1194 b -19 451 424 1194 11 793 l -21 413 b 208 110 -21 249 71 129 b 271 106 229 107 251 106 b 804 451 594 106 804 451 b 319 -110 735 294 531 -110 l 297 -108 b 160 33 185 -93 163 -17 b 167 31 163 32 164 31 l 172 31 b 203 58 188 31 199 42 l 204 67 b 176 90 204 81 190 90 b 136 46 160 90 140 78 l 135 29 b 318 -136 135 -28 172 -121 b 354 -137 331 -137 342 -137 z "},"H":{"ha":1519,"x_min":0,"x_max":0,"o":"m 1264 -299 b 1296 -267 1282 -299 1296 -283 b 1264 -235 1296 -249 1282 -235 b 1232 -267 1247 -235 1232 -249 b 1240 -287 1232 -274 1236 -282 b 1167 -193 1211 -281 1167 -261 l 1167 -181 b 1171 -144 1167 -169 1168 -157 b 1753 961 1206 7 1626 782 b 1944 1150 1872 1132 1921 1147 b 1926 1151 1944 1150 1939 1151 b 1619 911 1883 1151 1758 1129 b 1368 489 1615 904 1493 707 b 1213 447 1318 458 1265 447 b 1115 457 1181 447 1149 451 b 972 492 1069 467 1022 479 b 1376 1110 1169 786 1308 1097 b 1274 1122 1368 1115 1358 1122 b 649 714 993 1122 674 972 l 647 694 b 740 529 647 629 675 569 b 583 500 689 529 636 521 b 490 436 567 496 490 453 b 503 428 490 432 494 429 b 697 490 571 474 635 490 b 835 468 744 490 789 481 b 524 54 707 271 590 96 l 519 51 b 303 -19 438 1 364 -19 b 50 264 140 -19 50 122 b 235 524 50 376 108 488 b 229 506 232 519 229 513 b 261 474 229 488 243 474 b 293 506 278 474 293 488 b 261 538 293 524 278 538 b 254 536 258 538 257 538 b -4 231 83 493 -4 358 b 293 -47 -4 94 93 -47 b 933 436 543 -47 760 186 b 1078 394 982 419 1029 403 b 1150 388 1103 390 1126 388 b 1344 447 1226 388 1292 413 b 1106 -68 1225 235 1110 13 l 1106 -85 b 1263 -299 1106 -190 1168 -292 l 1263 -297 b 1264 -299 1264 -297 1264 -299 z m 867 517 b 769 529 835 522 803 526 b 718 664 733 574 718 619 l 719 688 b 1297 1103 744 956 1051 1103 l 1304 1103 b 867 517 1199 1032 1026 765 z "},"I":{"ha":532,"x_min":0,"x_max":0,"o":"m 236 1 b 394 140 236 1 382 1 l 394 143 b 361 169 394 160 378 169 b 328 140 346 169 331 161 b 356 96 328 107 356 110 b 149 33 356 60 288 33 l 31 33 b 951 1175 461 188 638 861 b 1193 1296 1028 1251 1106 1296 l 1229 1293 b 1218 1269 1222 1288 1218 1279 b 1249 1238 1218 1251 1232 1238 b 1279 1269 1265 1238 1279 1251 b 1260 1297 1279 1282 1272 1293 b 1171 1313 1231 1308 1200 1313 b 826 1132 1044 1313 932 1242 l 800 1132 b 176 725 519 1132 199 982 l 175 703 b 319 514 175 592 249 514 l 324 514 b 356 546 342 515 356 529 b 324 578 356 564 342 578 b 292 546 306 578 292 564 b 244 676 289 546 244 597 l 246 697 b 808 1113 271 960 565 1107 b -142 33 476 753 215 33 l -142 1 z "},"J":{"ha":1103,"x_min":0,"x_max":0,"o":"m 358 -51 b 426 -49 379 -51 403 -50 b 1138 540 738 -25 969 268 b 1188 622 1169 593 1153 569 b 1407 956 1283 788 1356 925 b 1689 1057 1594 972 1689 986 b 1585 1153 1688 1099 1646 1153 b 1458 1085 1549 1153 1504 1135 l 1419 1044 b 949 1097 1244 1056 1092 1097 b 500 833 790 1097 644 1044 b 435 643 454 767 435 701 b 543 435 435 556 478 482 b 621 394 572 413 588 407 b 717 379 651 385 683 379 b 939 463 790 379 868 404 l 940 464 b 942 465 942 464 942 465 b 950 485 947 471 950 476 b 924 510 950 499 939 510 b 899 485 910 510 899 499 b 922 458 899 471 908 460 b 768 403 874 419 821 403 b 660 426 732 403 694 411 l 651 431 l 636 439 l 635 438 b 625 444 631 442 628 442 b 601 460 617 449 608 454 b 474 690 526 514 474 600 b 519 829 474 738 488 785 b 704 964 556 881 615 926 l 708 965 b 907 994 763 988 831 994 b 1346 968 1038 994 1193 974 b 1014 538 1250 868 1076 631 b 793 210 938 421 861 301 b 342 -17 765 172 628 -17 b -36 360 78 -17 -36 185 b 174 669 -36 500 49 633 b 168 651 169 665 168 658 b 199 619 168 635 182 619 b 231 651 217 619 231 635 b 199 683 231 669 217 683 l 193 683 l 188 681 b -90 339 19 649 -90 488 b 358 -51 -90 211 -22 -51 z m 1535 1039 b 1469 1043 1501 1039 1474 1043 b 1572 1113 1482 1060 1522 1108 l 1585 1113 b 1638 1079 1624 1113 1638 1094 b 1633 1067 1638 1075 1636 1071 b 1535 1039 1617 1044 1572 1039 z "},"K":{"ha":1485,"x_min":0,"x_max":0,"o":"m 1136 -53 b 1321 18 1197 -53 1264 -31 b 1431 190 1368 57 1431 125 b 1418 239 1431 207 1428 224 b 1407 246 1415 244 1411 246 b 1392 232 1400 246 1392 239 b 1393 225 1392 229 1392 228 b 1400 196 1399 217 1400 207 b 1176 4 1400 122 1299 4 b 1000 207 1028 4 1000 101 b 1010 388 1000 269 1010 336 b 1008 422 1010 400 1010 413 b 956 539 1003 463 985 507 b 1771 1093 1560 699 1465 1093 b 1824 1090 1788 1093 1806 1093 b 1833 1099 1829 1090 1833 1094 l 1831 1103 b 1747 1124 1808 1119 1776 1124 l 1733 1124 l 1717 1121 b 935 596 1476 1092 1372 742 b 1275 1096 1060 800 1243 1090 b 1172 1110 1267 1103 1257 1110 b 546 678 871 1110 563 953 b 676 490 546 563 624 506 b 618 660 676 496 618 575 l 618 674 b 1203 1090 638 947 953 1090 b 736 458 1111 1029 913 724 b 201 -33 538 157 435 -33 b -51 250 39 -33 -51 110 b 133 511 -51 364 7 475 b 128 493 131 506 128 500 b 160 461 128 475 142 461 b 192 493 176 461 192 475 b 153 524 192 515 174 524 b -106 218 -18 481 -106 346 b 192 -50 -106 82 -8 -50 b 814 397 433 -50 643 158 l 892 525 l 903 525 l 924 531 b 957 414 949 500 957 460 b 925 125 957 324 925 215 b 1136 -53 925 24 965 -53 z "},"L":{"ha":1149,"x_min":0,"x_max":0,"o":"m 631 -24 b 1040 154 778 -24 917 13 b 1081 236 1060 176 1071 206 l 1079 236 l 1081 244 b 1068 268 1081 254 1075 263 b 1050 275 1063 272 1056 275 b 1018 243 1031 275 1024 264 b 1025 225 1018 236 1021 231 b 1050 213 1032 217 1042 213 l 1058 214 b 800 57 1010 122 919 76 b 632 44 742 47 686 44 b 133 97 446 44 282 89 b 261 207 178 129 219 165 b 913 1135 589 535 818 1117 b 810 1147 904 1140 894 1147 b 185 739 528 1147 208 997 l 183 714 b 304 531 183 606 253 550 l 311 531 b 254 713 300 547 254 624 b 840 1128 274 986 590 1128 b 83 99 629 1004 272 226 b -119 14 42 69 -42 21 b -135 -1 -129 14 -135 7 b -132 -11 -135 -4 -133 -8 b -118 -19 -129 -17 -124 -19 l -112 -18 b 129 18 -32 10 49 18 b 631 -24 301 18 471 -24 z "},"M":{"ha":1565,"x_min":0,"x_max":0,"o":"m 1446 -274 b 1632 -154 1519 -274 1582 -233 l 1636 -149 b 1643 -128 1640 -142 1643 -135 b 1636 -111 1643 -122 1640 -117 b 1618 -103 1631 -106 1625 -103 b 1590 -131 1600 -103 1590 -112 b 1594 -144 1590 -135 1592 -140 b 1597 -160 1596 -150 1597 -156 b 1547 -225 1597 -181 1581 -201 b 1442 -260 1513 -249 1478 -260 b 1349 -206 1400 -260 1369 -242 b 1329 -106 1336 -179 1329 -146 b 1393 199 1329 -24 1350 78 b 1553 565 1436 319 1489 442 b 1750 885 1617 688 1682 794 b 1928 1057 1817 975 1876 1032 l 1936 1061 b 1960 1068 1942 1063 1950 1065 b 1994 1071 1969 1069 1982 1071 b 2031 1067 2006 1071 2018 1069 b 1932 1157 2011 1126 1978 1157 b 1803 1122 1882 1153 1839 1140 b 1700 1058 1765 1104 1732 1082 b 1444 797 1604 982 1519 894 b 1132 375 1353 683 1249 543 b 983 171 1085 306 1035 238 b 981 168 983 169 982 168 b 1093 450 1038 257 1075 350 l 1107 511 b 1140 676 1122 571 1133 625 b 1182 864 1150 736 1164 799 b 1283 1092 1200 929 1235 1004 b 1282 1096 1283 1093 1283 1094 b 1279 1099 1281 1097 1281 1097 b 1274 1101 1278 1100 1275 1100 b 1264 1107 1272 1103 1268 1104 b 1236 1111 1258 1108 1249 1110 b 1172 1113 1224 1113 1201 1113 b 893 1065 1079 1113 986 1097 b 658 925 800 1033 721 986 b 546 681 589 858 551 778 b 568 583 546 642 553 610 b 618 522 582 557 599 538 b 675 493 638 508 657 499 l 676 493 b 661 518 675 494 669 503 b 618 664 632 564 618 614 l 618 678 b 722 906 626 768 661 843 b 943 1046 782 967 856 1014 b 1203 1093 1029 1078 1115 1093 b 1021 879 1158 1060 1097 989 b 736 461 901 711 807 571 b 533 165 651 329 583 231 b 386 22 486 103 438 56 b 201 -29 335 -12 272 -29 b 64 13 147 -29 101 -15 b -22 119 26 40 -3 76 b -51 254 -42 163 -51 207 b -6 413 -51 311 -36 364 b 133 514 24 461 71 494 b 128 496 129 510 128 503 b 138 474 128 486 131 479 b 160 464 143 467 150 464 b 182 474 168 464 175 467 b 192 496 189 479 192 486 b 182 518 192 504 189 511 b 160 528 175 525 168 528 l 153 526 b -40 404 68 503 3 463 b -106 221 -83 346 -106 285 b -72 92 -106 175 -94 132 b 26 -8 -51 51 -18 18 b 192 -47 69 -35 125 -47 b 631 178 339 -47 485 28 b 814 400 696 246 757 319 l 965 649 b 1213 1029 1072 822 1156 950 b 1047 597 1158 917 1104 774 b 926 257 1007 476 967 363 b 799 17 885 150 842 71 b 793 3 794 13 793 7 b 800 -17 793 -4 796 -11 b 819 -25 804 -22 811 -25 b 897 15 840 -21 867 -7 b 1181 368 968 82 1063 200 l 1260 476 b 1433 710 1317 556 1374 633 b 1733 1024 1528 835 1628 940 b 1406 482 1632 903 1522 722 b 1272 -12 1317 294 1272 131 b 1368 -251 1272 -135 1304 -215 b 1446 -274 1392 -267 1418 -274 z "},"N":{"ha":1335,"x_min":0,"x_max":0,"o":"m 192 -51 b 631 174 339 -51 485 24 b 814 396 696 242 757 315 l 985 676 b 1240 1060 1104 869 1190 997 b 1111 740 1172 951 1129 844 b 1078 433 1092 635 1081 532 b 1060 213 1075 357 1069 283 b 997 6 1050 140 1029 71 b 992 -8 993 1 992 -4 b 999 -24 992 -14 994 -19 b 1014 -31 1003 -28 1008 -31 b 1031 -18 1021 -31 1026 -26 l 1032 -22 b 1214 286 1094 79 1154 182 b 1451 681 1290 424 1369 556 b 1724 1001 1533 806 1624 913 b 2067 1179 1822 1090 1938 1150 b 2082 1199 2076 1185 2082 1192 b 2072 1219 2082 1206 2079 1213 b 2049 1229 2065 1226 2057 1229 b 1824 1136 1989 1228 1914 1196 b 1507 814 1733 1076 1628 968 b 1099 150 1386 658 1250 438 b 1174 444 1136 260 1161 357 b 1197 685 1186 532 1193 611 b 1219 890 1201 757 1208 825 b 1288 1085 1229 956 1253 1019 b 1272 1100 1288 1089 1282 1093 b 1172 1108 1263 1106 1229 1108 b 893 1061 1079 1108 986 1093 b 658 921 800 1029 721 982 b 546 676 589 854 551 774 b 568 579 546 638 553 606 b 618 518 582 553 599 533 b 674 489 638 504 657 494 l 676 489 b 661 514 674 492 669 499 b 618 660 632 560 618 610 l 618 674 b 722 901 626 764 661 839 b 943 1042 782 963 856 1010 b 1203 1089 1029 1074 1115 1089 b 1021 875 1158 1056 1097 985 b 736 457 901 707 807 567 b 533 161 651 325 583 226 b 386 18 486 99 438 51 b 201 -33 335 -17 272 -33 b 64 8 147 -33 101 -19 b -22 115 26 36 -3 72 b -51 250 -42 158 -51 203 b -6 408 -51 307 -36 360 b 133 510 24 457 71 490 b 128 492 129 506 128 499 b 138 469 128 482 131 475 b 160 460 143 463 150 460 b 182 469 168 460 175 463 b 192 492 189 475 192 482 b 182 514 192 500 189 507 b 160 524 175 521 168 524 l 153 522 b -40 400 68 499 3 458 b -106 217 -83 342 -106 281 b -72 88 -106 171 -94 128 b 26 -12 -51 47 -18 14 b 192 -51 69 -39 125 -51 z "},"O":{"ha":897,"x_min":0,"x_max":0,"o":"m 174 -56 b 240 -51 194 -56 217 -54 b 1000 806 597 -8 983 471 l 1000 831 b 689 1151 1000 1043 858 1143 l 667 1151 b 122 668 425 1151 138 971 l 121 644 b 133 564 121 614 125 586 b -89 196 18 489 -82 363 l -89 183 b 174 -56 -89 53 -11 -56 z m 174 -17 l 154 -17 b -37 164 19 -17 -37 61 l -37 171 b 151 521 -33 308 51 436 b 236 471 169 492 199 471 b 285 482 251 471 268 475 b 215 568 249 508 226 538 b 342 624 260 597 303 615 b 340 615 340 621 340 618 b 369 586 340 599 354 586 b 400 615 386 586 400 599 b 372 644 400 631 388 644 l 368 644 b 206 604 319 643 263 629 b 193 689 199 618 193 649 l 194 722 b 622 1111 214 979 438 1111 l 639 1111 b 875 889 769 1104 875 1031 l 875 883 b 494 153 869 669 699 349 b 174 -17 390 54 278 -12 z "},"P":{"ha":1260,"x_min":0,"x_max":0,"o":"m 204 -46 b 1244 1051 740 -46 932 667 b 1336 863 1300 1010 1336 947 b 1079 478 1336 628 1207 478 b 1042 482 1067 478 1054 479 b 1060 510 1053 486 1060 497 b 1031 539 1060 526 1047 539 b 1001 511 1014 539 1001 526 b 1153 439 1001 472 1097 439 b 1439 761 1306 439 1439 600 b 1263 1074 1439 911 1367 1015 b 1313 1128 1279 1093 1296 1111 b 1554 1249 1389 1204 1467 1249 l 1590 1246 b 1579 1221 1583 1240 1579 1232 b 1610 1190 1579 1204 1593 1190 b 1640 1221 1626 1190 1640 1204 b 1621 1250 1640 1235 1632 1246 b 1532 1265 1592 1261 1561 1265 b 1210 1099 1422 1265 1315 1200 b 1042 1128 1158 1118 1101 1128 b 389 610 746 1128 389 921 b 550 393 389 513 436 426 b 461 588 485 451 461 519 b 1042 1107 461 904 790 1103 l 1051 1107 b 1192 1081 1103 1107 1150 1097 b 422 46 885 769 610 163 l 418 43 b 201 -28 336 -7 263 -28 b -51 256 39 -28 -51 114 b 133 515 -51 368 7 479 b 128 499 131 511 128 506 b 158 469 128 483 142 469 b 188 499 174 469 188 483 b 158 529 188 515 174 529 l 146 526 b -106 222 -21 481 -106 349 b 192 -46 -106 86 -8 -42 z "},"Q":{"ha":981,"x_min":0,"x_max":0,"o":"m 664 -269 b 701 -251 676 -269 689 -264 b 749 -128 735 -217 749 -175 b 656 139 749 -44 707 50 b 1092 851 890 317 1081 618 l 1092 876 b 781 1197 1092 1089 950 1189 l 758 1197 b 214 714 517 1197 229 1017 l 213 690 b 225 610 213 660 217 632 b 3 242 110 535 10 408 l 3 229 b 265 -10 3 99 81 -10 b 332 -6 286 -10 308 -8 b 625 117 431 6 531 51 b 692 -28 660 68 685 19 l 694 -60 b 640 -175 694 -112 674 -144 b 621 -219 626 -189 621 -204 b 664 -269 621 -246 640 -269 z m 265 29 l 246 29 b 54 210 111 29 54 107 l 54 217 b 242 565 58 354 143 481 b 572 186 289 463 454 325 b 265 29 472 94 365 33 z m 606 218 l 561 283 b 310 617 489 388 363 506 b 433 669 353 643 396 661 b 432 661 432 667 432 664 b 461 632 432 644 446 632 b 492 661 478 632 492 644 b 449 692 492 683 474 692 b 297 650 396 692 308 654 b 285 735 290 664 285 694 l 286 768 b 731 1157 306 1033 542 1157 b 999 907 924 1157 999 1050 b 606 218 999 681 814 363 z "},"R":{"ha":1579,"x_min":0,"x_max":0,"o":"m 1139 -64 l 1190 -61 b 1474 144 1311 -50 1431 19 b 1489 224 1483 174 1489 200 b 1392 360 1489 299 1442 342 b 1339 369 1374 367 1356 369 l 1314 367 b 1404 199 1372 343 1404 272 b 1390 117 1404 171 1399 143 b 1167 -40 1363 35 1265 -33 l 1139 -42 b 1010 79 1036 -42 1010 8 b 1047 369 1010 163 1047 275 b 963 522 1047 435 1028 492 b 1092 504 1006 511 1050 504 b 1338 604 1190 504 1279 538 b 1340 607 1339 606 1339 607 b 1400 719 1367 639 1389 676 b 1411 799 1407 746 1411 772 b 1264 1079 1411 903 1356 1006 b 1313 1132 1279 1097 1296 1115 b 1554 1253 1389 1208 1467 1253 l 1590 1250 b 1579 1228 1583 1244 1579 1236 l 1581 1217 b 1601 1196 1583 1207 1592 1199 l 1610 1194 b 1640 1225 1626 1194 1640 1208 b 1621 1254 1640 1239 1632 1250 b 1532 1269 1592 1265 1561 1269 b 1219 1111 1425 1269 1321 1207 b 1092 1167 1181 1135 1138 1154 l 1086 1168 b 951 1188 1043 1181 997 1188 b 299 669 656 1188 299 981 b 460 453 299 572 346 486 b 371 647 394 511 371 579 b 950 1171 371 964 699 1171 l 961 1171 b 1029 1161 983 1169 1006 1167 l 1043 1158 b 1194 1085 1101 1143 1153 1115 b 422 50 889 772 610 167 l 418 47 b 201 -24 336 -3 263 -24 b -51 260 39 -24 -51 118 b 133 519 -51 372 7 483 b 128 503 131 514 128 508 l 129 494 b 150 475 132 485 140 478 l 158 474 b 188 503 174 474 188 488 b 158 532 188 519 174 532 l 153 532 l 146 531 b -106 226 -21 485 -106 353 b 192 -42 -106 90 -8 -37 l 206 -42 b 850 426 497 -42 688 172 l 908 515 b 971 451 908 515 971 490 b 967 435 971 446 969 440 b 946 388 960 421 953 404 l 944 385 b 886 149 914 317 886 229 b 1139 -64 886 35 944 -64 z m 1017 529 b 939 544 989 529 963 533 b 926 551 935 547 931 550 b 1235 1043 1025 718 1129 907 b 1290 967 1258 1018 1276 992 b 1324 829 1313 924 1324 876 b 1314 754 1324 804 1321 779 b 1288 692 1307 732 1299 711 b 1253 646 1278 675 1267 660 b 1203 597 1238 628 1221 611 l 1201 597 b 1017 529 1146 554 1079 529 z "},"S":{"ha":1281,"x_min":0,"x_max":0,"o":"m 507 -43 b 1304 700 1015 -43 1190 368 b 1628 1024 1468 728 1628 839 b 1531 1144 1628 1078 1593 1144 l 1521 1144 b 1192 729 1444 1139 1331 1039 b 999 918 1057 747 999 836 b 1136 1064 999 994 1049 1064 b 1193 1038 1160 1064 1181 1056 l 1192 1038 b 1163 1008 1176 1038 1163 1025 b 1192 979 1163 992 1176 979 b 1222 1008 1208 979 1222 992 l 1221 1014 b 1128 1090 1217 1065 1176 1090 b 953 910 1050 1090 953 1028 b 1176 696 953 815 1014 713 b 463 -7 1061 432 915 -7 b 58 465 215 -7 58 221 b 507 1057 58 750 253 1057 b 783 792 607 1057 783 1008 b 781 739 783 775 783 757 b 507 413 776 721 722 413 b 325 561 425 413 325 461 b 339 628 325 581 329 603 b 360 619 343 622 351 619 b 389 649 375 619 389 632 b 360 678 389 665 375 678 b 343 674 353 678 349 676 b 299 543 326 665 299 628 b 511 346 299 431 400 346 l 519 346 b 851 732 671 351 851 467 b 507 1101 851 897 758 1101 b -24 535 250 1101 -24 900 b 507 -43 -24 249 168 -43 z m 1314 731 b 1529 1113 1385 942 1432 1113 b 1597 1017 1572 1113 1597 1071 b 1314 731 1597 914 1514 761 z "},"T":{"ha":851,"x_min":0,"x_max":0,"o":"m 199 -14 b 1143 942 694 -14 990 751 b 1321 938 1203 939 1263 938 b 1981 1125 1608 938 1871 974 b 2019 1206 1997 1149 2011 1176 l 2021 1214 b 2008 1239 2021 1224 2017 1232 b 1990 1244 2003 1243 1996 1244 b 1965 1232 1981 1244 1971 1240 b 1958 1214 1961 1226 1958 1221 b 1972 1189 1958 1204 1964 1194 b 1990 1182 1976 1185 1983 1182 l 1999 1183 b 1739 1028 1949 1093 1860 1047 b 1551 1014 1681 1018 1617 1014 b 765 1068 1306 1014 1024 1068 b 133 804 510 1068 279 1015 b 68 617 88 739 68 675 b 82 532 68 586 72 558 b -99 254 -37 472 -99 361 b 199 -14 -99 119 -1 -14 z m 208 4 b -44 288 46 4 -44 147 b 83 524 -44 382 -3 475 b 176 407 103 476 135 436 b 346 351 233 365 292 351 b 585 458 461 351 585 413 b 556 489 585 475 571 489 b 525 458 539 489 525 475 b 554 429 525 443 539 429 b 401 375 506 390 453 375 b 235 431 342 375 283 396 b 106 663 160 486 106 572 b 153 801 106 710 121 757 b 338 936 189 851 249 899 l 342 938 b 582 967 394 960 479 967 b 1081 944 724 967 900 953 b 429 78 883 764 574 168 b 425 75 428 78 426 76 b 208 4 343 25 269 4 z "},"U":{"ha":1554,"x_min":0,"x_max":0,"o":"m 872 -54 b 1979 1119 1446 -54 1624 764 b 2207 1240 2057 1197 2154 1240 b 2246 1213 2231 1240 2246 1232 b 2269 1179 2246 1189 2257 1179 b 2308 1215 2286 1179 2308 1197 b 2199 1257 2308 1236 2282 1257 b 1089 38 1761 1257 1344 197 l 1085 35 b 867 -36 1015 -8 939 -36 b 700 32 806 -36 749 -17 b 651 149 665 67 651 106 b 1007 924 651 361 997 667 l 1007 929 b 783 1082 1007 1026 911 1082 b 140 813 579 1082 292 963 b -83 349 -21 650 -83 486 b 163 8 -83 144 15 8 b 263 75 215 8 263 22 b 233 104 261 92 249 104 b 203 75 215 104 203 90 b 213 53 203 67 206 60 b 176 39 203 46 190 39 b 3 254 58 39 3 128 b 771 1046 3 750 518 1046 b 907 949 853 1046 907 1014 b 583 325 907 776 692 529 l 583 324 b 561 213 568 288 561 250 b 860 -54 561 75 665 -50 z "},"V":{"ha":826,"x_min":0,"x_max":0,"o":"m 508 -56 l 510 -47 l 511 -50 b 1544 1153 818 442 1054 1047 b 1560 1172 1556 1158 1560 1165 b 1528 1203 1560 1188 1543 1203 l 1526 1203 b 531 29 1343 1186 1006 979 b 683 729 603 310 663 546 b 692 860 689 776 692 819 b 432 1154 692 1050 622 1154 l 419 1154 b 50 836 254 1150 72 1031 l 47 796 b 165 653 47 690 107 654 l 176 653 b 263 692 249 657 263 692 b 265 699 264 693 265 696 l 267 704 b 236 735 267 721 253 735 b 207 704 221 735 207 721 b 218 682 207 696 211 688 b 122 864 160 703 122 779 b 124 896 122 875 122 885 b 403 1135 139 1017 279 1132 l 408 1135 b 593 869 547 1135 593 1022 b 585 749 593 831 590 790 b 421 44 551 469 435 163 l 419 25 b 506 -56 419 -11 433 -56 z "},"W":{"ha":1208,"x_min":0,"x_max":0,"o":"m 838 -42 b 907 26 876 -42 881 -17 b 1896 1156 1193 504 1429 1056 b 1911 1175 1907 1161 1911 1168 b 1879 1206 1911 1190 1894 1206 l 1876 1206 b 893 57 1696 1190 1363 986 l 893 93 b 1175 1147 893 507 1135 1058 l 1176 1153 b 1169 1165 1176 1158 1174 1164 l 1161 1168 b 1149 1161 1157 1168 1153 1165 b 267 96 929 840 618 374 b 661 1011 449 321 661 758 b 506 1204 661 1128 617 1204 b 408 1189 478 1204 444 1199 b 31 707 139 1113 31 883 b 193 482 31 497 154 482 l 200 482 b 285 517 238 485 265 500 b 317 550 299 526 310 539 b 331 585 328 568 331 585 b 332 590 332 586 332 589 b 303 621 332 607 318 621 l 294 619 b 274 599 285 617 276 608 l 272 590 b 303 561 272 575 286 561 l 304 561 b 257 518 296 540 282 528 b 219 511 243 513 231 511 b 132 661 160 511 132 574 b 433 1172 132 839 246 1119 b 460 1176 443 1175 451 1176 b 553 989 532 1176 553 1076 b 546 903 553 957 550 925 b 108 -12 429 296 117 -8 b 99 -31 103 -17 99 -22 l 99 -33 l 100 -35 b 111 -42 101 -36 104 -42 l 119 -39 b 1022 899 433 117 725 432 b 781 142 899 640 781 358 b 818 -40 781 74 792 13 z "},"X":{"ha":1393,"x_min":0,"x_max":0,"o":"m 510 -46 b 978 263 622 -46 839 72 b 968 168 971 228 968 197 b 982 74 968 132 972 101 b 1133 -39 1004 1 1064 -39 b 1307 50 1190 -39 1253 -11 b 1324 78 1314 58 1324 65 b 1318 94 1324 82 1322 88 b 1299 104 1314 101 1306 104 b 1269 72 1285 104 1269 94 l 1269 65 l 1272 54 b 1129 -22 1272 18 1199 -22 b 1019 49 1082 -22 1038 -4 b 1008 119 1013 69 1008 94 b 1725 1061 1008 432 1481 1061 b 1785 996 1767 1061 1785 1032 b 1738 901 1785 963 1768 924 b 1710 922 1733 913 1722 922 b 1681 892 1693 922 1681 908 b 1710 863 1681 876 1693 863 b 1721 865 1714 863 1717 864 l 1721 864 b 1817 1007 1783 893 1817 956 b 1732 1093 1817 1054 1789 1088 l 1715 1094 b 1192 715 1571 1094 1328 906 b 1106 582 1160 671 1131 626 b 1108 631 1107 599 1108 614 b 983 965 1108 767 1060 890 b 611 1100 890 1060 754 1100 b -44 633 299 1100 -44 906 b 117 438 -44 544 3 467 b 28 613 51 490 28 551 b 628 1079 28 731 160 1078 b 1024 728 896 1079 1024 925 b 793 242 1024 553 929 378 l 747 197 b 479 57 626 88 539 57 b 324 165 364 57 324 110 b 449 294 325 228 382 294 b 496 329 481 294 496 311 b 449 369 496 349 478 369 b 294 161 357 369 294 265 b 510 -46 294 57 356 -46 z "},"Y":{"ha":1389,"x_min":0,"x_max":0,"o":"m 689 -49 b 1796 1125 1263 -49 1440 769 b 2039 1246 1872 1201 1951 1246 l 2075 1243 b 2063 1219 2068 1238 2063 1229 b 2093 1188 2063 1201 2076 1188 b 2125 1219 2111 1188 2125 1201 b 2106 1247 2125 1232 2117 1243 b 2015 1263 2075 1258 2046 1263 b 1435 775 1813 1263 1615 1035 b 708 229 1272 582 897 229 b 636 257 679 229 656 238 b 607 336 614 279 607 310 b 933 1033 607 481 925 842 l 933 1038 b 738 1171 933 1122 850 1171 b 181 936 561 1171 311 1068 b -14 535 40 796 -14 654 b 89 286 -14 429 28 340 b 208 238 129 251 172 238 b 293 285 257 238 293 261 b 258 319 293 304 278 319 b 225 285 240 319 225 304 b 229 269 225 279 226 274 b 213 265 224 267 218 265 b 61 451 108 265 61 343 b 726 1140 61 882 507 1140 b 844 1056 797 1140 844 1113 b 554 494 844 900 644 675 b 379 219 438 435 379 325 b 676 -49 379 83 476 -44 z m 685 -31 b 433 253 524 -31 433 111 b 549 482 433 342 469 431 b 511 351 526 435 511 390 b 679 194 511 288 558 194 b 1361 664 808 194 1025 301 b 906 43 1183 394 1026 118 l 901 40 b 685 -31 819 -10 747 -31 z "},"Z":{"ha":942,"x_min":0,"x_max":0,"o":"m 1482 -351 b 1506 -319 1496 -351 1506 -335 b 1501 -304 1506 -314 1504 -308 b 229 17 1408 -164 1108 17 b 1608 1061 917 175 871 1046 b 1633 1074 1624 1063 1633 1068 b 1617 1081 1633 1078 1628 1081 l 1614 1081 b 1404 1079 1549 1079 1476 1079 b 700 1106 1257 1086 861 1106 l 685 1106 b 161 763 282 1101 161 907 l 161 760 b 265 608 163 635 265 608 b 247 668 265 608 249 643 l 247 674 b 914 1063 247 1024 535 1063 b 1272 1060 1026 1063 1147 1060 l 1328 1060 b 1339 1050 1335 1060 1339 1054 b 1331 1040 1339 1046 1336 1042 b -121 -58 861 890 644 126 b -133 -81 -129 -61 -133 -71 b -114 -115 -133 -97 -125 -115 l -111 -115 b 136 -57 -22 -94 60 -74 b 510 -29 139 -57 311 -29 l 560 -29 b 1465 -346 925 -47 1260 -103 b 1482 -351 1471 -350 1476 -351 z "},"[":{"ha":563,"x_min":0,"x_max":0,"o":"m 314 -178 b 326 -147 325 -175 326 -154 b 318 -122 326 -142 325 -126 b 311 -119 317 -119 314 -119 b 254 -128 290 -124 271 -126 l 225 -131 l 143 -131 l 465 883 b 474 885 468 885 471 885 l 504 886 l 531 885 b 560 883 540 885 550 885 l 588 882 l 647 872 b 660 903 660 875 660 896 b 653 929 660 908 658 924 b 644 931 650 931 647 931 b 588 922 625 926 604 924 b 560 921 576 921 568 921 b 531 919 550 919 540 919 l 474 921 b 418 929 453 922 436 924 l 414 929 b 403 907 406 926 404 915 l 76 -124 b 69 -149 69 -131 69 -144 b 76 -172 69 -156 71 -167 b 83 -174 79 -174 82 -174 b 140 -165 101 -169 119 -167 l 171 -164 l 197 -165 b 225 -167 207 -165 217 -165 b 254 -169 233 -167 243 -168 b 311 -178 271 -171 290 -174 z "},"\\":{"ha":549,"x_min":0,"x_max":0,"o":"m 408 -43 b 421 -42 413 -43 417 -43 b 438 -24 428 -37 435 -32 b 440 -11 440 -19 440 -15 b 439 0 440 -7 440 -3 b 353 239 408 75 383 149 b 276 479 322 331 299 407 b 242 600 265 518 253 558 b 207 721 231 636 219 675 b 142 965 186 793 163 879 b 140 971 142 967 142 969 b 107 994 135 985 121 994 l 94 992 b 74 972 85 988 78 981 b 71 958 72 968 71 963 b 74 944 71 953 72 949 b 158 707 106 861 135 778 b 199 588 175 661 188 622 l 239 467 b 313 225 261 396 285 319 b 376 -18 338 135 358 60 b 378 -24 378 -19 378 -22 b 396 -40 382 -31 388 -37 b 408 -43 400 -43 404 -43 z "},"]":{"ha":524,"x_min":0,"x_max":0,"o":"m -121 -178 b -64 -169 -101 -174 -81 -171 b -36 -168 -53 -168 -44 -168 b -7 -167 -26 -167 -17 -167 l 50 -168 b 106 -176 71 -169 88 -171 l 110 -176 b 121 -154 117 -174 119 -164 l 447 876 b 454 901 454 883 454 897 b 447 925 454 908 453 919 b 439 926 444 926 442 926 b 383 918 422 922 404 919 l 353 917 l 326 918 b 299 919 318 918 308 918 b 269 922 290 919 281 921 b 213 931 253 924 233 926 l 210 931 b 197 900 199 928 197 907 b 206 875 197 894 199 879 b 213 872 207 872 210 872 b 269 881 233 876 253 879 b 299 882 281 882 289 882 b 326 883 307 883 317 883 l 381 883 l 58 -131 b 50 -132 56 -132 53 -132 l 19 -133 l -7 -132 b -36 -131 -17 -132 -26 -132 l -64 -129 b -121 -119 -81 -126 -100 -125 l -125 -119 b -136 -150 -136 -122 -136 -143 b -129 -176 -136 -156 -135 -171 b -122 -178 -126 -178 -125 -178 z "},"^":{"ha":525,"x_min":0,"x_max":0,"o":"m 450 711 l 453 713 l 454 717 l 454 719 b 443 833 444 739 443 786 b 446 939 443 886 446 938 b 443 943 446 940 444 943 l 440 944 l 438 943 b 74 769 290 808 76 769 b 69 763 71 768 69 765 b 75 758 69 760 72 758 b 382 886 78 760 242 789 l 382 869 b 447 713 382 824 389 736 z "},"_":{"ha":889,"x_min":0,"x_max":0,"o":"m 100 -69 b 272 -58 161 -64 222 -61 l 446 -54 b 619 -56 497 -54 553 -54 b 793 -65 683 -57 738 -60 l 796 -65 b 818 -35 808 -64 818 -51 l 818 -32 b 808 -8 818 -22 814 -14 b 793 -3 803 -4 797 -3 b 619 -14 738 -8 683 -11 b 446 -15 553 -15 497 -15 b 360 -14 418 -14 389 -14 l 272 -11 b 100 0 222 -8 161 -6 l 96 0 b 71 -35 82 -1 71 -17 l 71 -37 b 83 -64 71 -49 76 -58 b 97 -69 88 -68 93 -69 z "},"`":{"ha":257,"x_min":0,"x_max":0,"o":"m 165 815 b 178 822 169 815 174 818 b 183 835 182 826 183 831 b 176 854 183 840 181 847 l 126 932 b 107 943 121 939 114 943 l 103 943 b 85 938 96 943 89 940 b 74 914 78 931 74 922 b 81 896 74 907 76 901 l 149 824 b 165 815 153 821 158 815 z "},"a":{"ha":751,"x_min":0,"x_max":0,"o":"m 101 -3 b 342 129 211 -3 299 88 b 340 110 340 122 340 115 b 447 0 340 17 428 0 b 779 275 631 0 769 256 l 779 276 b 768 285 779 281 774 285 b 751 275 763 285 756 282 b 500 43 607 51 529 43 l 497 43 b 440 103 463 43 442 65 l 440 108 b 638 494 440 229 638 426 b 618 525 638 508 632 518 b 599 531 611 529 606 531 b 549 504 581 531 564 519 b 472 396 546 501 513 456 b 332 525 467 476 410 525 b -33 136 119 522 -33 292 b 67 0 -33 67 -3 13 b 101 -3 78 -1 90 -3 z m 135 43 l 132 43 b 78 113 94 44 78 72 b 322 460 78 226 203 442 b 349 461 332 461 340 461 b 431 382 407 461 431 428 b 407 288 431 353 422 321 l 390 257 b 135 43 333 163 231 43 z "},"b":{"ha":617,"x_min":0,"x_max":0,"o":"m 169 0 b 550 390 400 7 550 238 b 436 525 550 465 515 521 l 426 525 b 211 442 353 525 276 493 b 207 439 210 440 208 439 b 500 844 393 733 449 792 b 753 983 582 926 667 983 b 919 858 840 983 915 929 l 919 847 b 864 742 919 796 896 742 l 861 742 b 828 710 838 738 828 724 b 844 686 828 699 835 689 l 854 685 b 886 711 871 685 878 699 b 936 853 921 763 936 811 b 710 1038 936 965 826 1038 b -103 111 458 1038 265 719 b -128 50 -114 92 -128 71 b -106 14 -128 38 -122 25 b -82 7 -97 10 -89 7 b -53 19 -71 7 -61 13 b -18 69 -39 32 -28 53 l 29 149 l 29 143 b 164 0 29 56 86 0 z m 151 76 b 72 149 94 76 72 107 b 367 456 72 258 228 456 l 372 456 b 419 394 406 454 419 431 b 182 79 419 292 304 97 z "},"c":{"ha":546,"x_min":0,"x_max":0,"o":"m 157 1 b 210 6 174 1 190 3 b 575 275 415 42 492 146 l 575 276 b 564 285 575 281 569 285 b 546 275 557 285 550 282 b 243 47 517 226 394 49 l 239 47 b 85 178 129 47 85 104 b 372 486 85 307 222 486 b 422 465 392 486 410 481 b 425 457 424 463 425 460 b 379 381 425 436 379 407 b 424 346 379 360 401 346 b 474 411 454 346 474 375 b 340 525 474 460 436 525 l 326 525 b -21 174 138 511 -11 349 l -21 163 b 157 1 -21 83 33 1 z "},"d":{"ha":749,"x_min":0,"x_max":0,"o":"m 82 -3 b 296 93 154 -3 233 39 b 338 133 304 100 318 113 l 336 117 b 453 1 336 15 419 1 b 776 275 546 1 675 78 l 776 276 b 765 285 776 281 771 285 b 749 275 760 285 753 282 b 497 43 606 51 528 44 l 494 43 b 438 104 461 43 439 65 l 438 108 b 476 224 438 142 454 182 b 892 844 476 225 756 706 b 1144 983 972 926 1058 983 b 1310 858 1231 983 1306 929 l 1310 847 b 1254 742 1310 796 1286 742 l 1251 742 b 1219 710 1228 738 1219 724 b 1235 686 1219 699 1225 689 l 1244 685 b 1276 711 1263 685 1269 700 b 1328 853 1313 763 1328 811 b 1100 1038 1328 965 1218 1038 b 596 606 929 1038 786 890 b 467 408 543 526 500 463 b 333 524 458 482 404 524 l 324 524 b -35 132 103 508 -35 283 b 82 -3 -35 56 1 -3 z m 146 60 l 142 60 b 82 129 100 60 82 88 b 317 454 82 238 203 435 l 342 457 b 415 379 393 457 415 425 b 146 60 415 265 281 65 z "},"e":{"ha":554,"x_min":0,"x_max":0,"o":"m 188 -6 l 213 -4 b 583 275 411 10 499 142 l 583 276 b 572 285 583 281 578 285 b 554 275 565 285 558 282 b 246 36 542 251 415 57 l 226 35 b 78 181 144 35 78 97 b 104 272 78 197 81 246 b 211 243 131 256 169 244 b 419 349 281 243 361 271 b 450 431 440 376 450 404 b 333 529 450 486 406 529 b -21 182 188 529 -21 340 b 188 -6 -21 90 35 -6 z m 213 290 b 122 310 183 290 153 296 b 374 476 194 418 315 476 b 431 438 408 476 431 458 b 213 290 431 400 339 290 z "},"f":{"ha":447,"x_min":0,"x_max":0,"o":"m -157 -379 b -93 -362 -135 -379 -111 -374 b 47 -92 -31 -326 29 -229 b 51 0 50 -67 51 -35 b 49 96 51 31 50 63 b 76 76 53 93 61 85 l 76 75 b 196 40 103 60 144 40 b 314 76 231 40 271 50 l 328 85 b 475 275 361 108 413 160 l 475 276 b 464 285 475 281 469 285 b 447 275 458 285 451 282 b 224 74 447 275 353 104 b 199 71 215 72 207 71 l 175 72 l 165 74 b 56 196 103 88 71 153 b 396 678 129 304 235 457 b 428 729 407 693 422 711 b 431 746 429 735 431 740 b 413 779 431 757 426 769 b 385 789 403 786 393 789 b 371 786 379 789 375 788 b 325 739 351 778 338 757 b 14 300 182 540 111 443 b -103 113 -31 232 -69 171 l -103 114 b -262 -271 -103 114 -261 -150 l -262 -276 b -190 -374 -262 -340 -221 -364 b -160 -379 -182 -376 -171 -378 z m -146 -353 l -156 -351 b -178 -307 -171 -346 -178 -329 b -114 -103 -178 -254 -140 -167 b 18 138 -93 -53 -71 0 b 25 10 24 106 25 56 b 21 -93 25 -35 24 -76 b -106 -340 6 -219 -50 -307 b -146 -353 -121 -349 -133 -353 z "},"g":{"ha":692,"x_min":0,"x_max":0,"o":"m -160 -482 b 213 -211 54 -482 213 -211 b 338 -29 253 -157 294 -97 b 572 96 451 18 528 58 b 671 200 647 157 660 182 b 718 275 692 229 707 256 l 718 276 b 707 285 718 281 713 285 b 690 275 701 285 694 282 b 617 171 678 257 656 213 b 364 10 600 150 532 83 b 621 428 440 129 525 268 b 646 489 632 447 646 468 b 624 525 646 501 640 514 b 600 532 615 529 607 532 b 571 519 589 532 579 526 b 536 469 557 507 546 486 l 485 385 b 350 524 483 469 428 524 l 344 524 b -36 133 114 518 -36 286 b 78 0 -36 60 -1 3 l 88 0 b 296 78 158 0 232 29 l 296 76 l 213 -53 l 63 -108 b -229 -387 -121 -174 -218 -299 l -231 -407 b -201 -469 -231 -433 -221 -456 b -160 -482 -192 -476 -178 -482 z m -171 -450 b -194 -440 -181 -450 -187 -447 b -204 -407 -200 -432 -204 -421 l -203 -390 b 71 -133 -193 -310 -103 -194 l 188 -90 b 18 -306 96 -225 56 -267 b -171 -450 -39 -364 -122 -450 z m 140 51 b 86 117 101 51 86 78 b 339 461 86 228 218 443 l 368 464 b 447 389 424 464 447 433 b 140 51 447 269 281 51 z "},"h":{"ha":701,"x_min":0,"x_max":0,"o":"m 404 -1 b 729 275 493 -1 618 74 l 729 276 b 718 285 729 281 724 285 b 700 275 711 285 704 282 b 453 39 694 267 557 39 b 390 101 404 39 390 69 b 531 442 390 206 526 346 l 531 444 b 461 518 531 479 510 518 b 106 269 358 518 222 394 b 499 839 374 710 439 778 b 751 978 581 922 665 978 b 918 853 839 978 914 924 l 918 842 b 863 736 918 790 894 736 l 860 736 b 826 704 836 732 826 718 b 843 682 826 694 833 685 l 853 681 b 885 706 871 681 876 694 b 935 847 919 758 935 806 b 708 1032 935 961 825 1032 b -104 106 457 1032 264 715 b -129 46 -115 88 -129 65 b -107 10 -129 32 -124 19 b -83 3 -99 4 -90 3 b -54 14 -72 3 -62 7 l -35 39 l -19 64 b -17 68 -19 65 -18 67 b 46 153 7 104 46 153 b 422 450 138 260 310 450 b 433 436 431 450 433 444 b 289 114 426 376 289 217 b 404 -1 289 46 336 -1 z "},"i":{"ha":353,"x_min":0,"x_max":0,"o":"m 240 547 b 293 588 260 547 282 563 b 301 619 299 597 301 608 b 275 664 301 639 292 656 b 258 668 269 667 264 668 b 204 629 238 668 217 653 b 197 599 200 619 197 608 b 224 551 197 578 207 560 b 240 547 229 549 235 547 z m 49 0 b 379 275 229 0 367 251 l 379 276 b 368 285 379 281 374 285 b 351 275 363 285 356 282 b 100 43 207 51 129 44 l 97 43 b 40 104 63 43 42 65 l 40 108 b 238 496 40 229 238 426 b 219 525 238 508 232 518 b 199 531 213 529 206 531 b 149 504 182 531 164 519 b -60 110 143 499 -60 226 b 49 0 -60 18 28 0 z "},"j":{"ha":268,"x_min":0,"x_max":0,"o":"m 238 547 b 290 588 257 547 279 563 b 299 619 296 597 299 608 b 272 664 299 639 289 656 b 256 668 267 667 261 668 b 203 629 235 668 214 653 b 194 597 197 618 194 607 b 221 551 194 576 204 560 b 238 547 226 549 232 547 z m -579 -481 b -208 -211 -367 -481 -208 -211 b -82 -29 -168 -157 -126 -97 b 151 94 31 18 107 58 b 251 200 226 157 239 181 b 297 274 271 228 288 254 l 297 276 b 286 283 297 279 293 283 b 269 274 281 283 274 281 b 197 171 257 257 235 213 b -57 10 179 150 113 83 b 201 428 19 129 104 268 b 226 488 213 446 226 468 b 204 524 226 501 219 514 b 181 531 196 529 188 531 b 151 519 169 531 160 526 b 117 469 138 507 126 486 b -208 -53 -33 219 -136 57 l -358 -108 b -650 -387 -542 -174 -639 -299 l -651 -407 b -622 -469 -651 -433 -642 -456 b -581 -481 -612 -475 -599 -481 z m -592 -450 b -615 -440 -601 -450 -608 -447 b -625 -407 -621 -432 -625 -421 l -624 -390 b -350 -132 -614 -310 -522 -194 b -233 -90 -308 -118 -269 -103 b -403 -306 -325 -225 -365 -267 b -592 -450 -460 -364 -543 -450 z "},"k":{"ha":624,"x_min":0,"x_max":0,"o":"m 296 3 b 651 275 517 3 635 247 l 651 276 b 640 285 651 281 646 285 b 624 275 635 285 628 282 b 365 58 603 244 501 58 b 139 167 313 58 214 104 b 197 163 158 164 178 163 b 526 385 354 163 494 256 b 532 428 531 401 532 415 b 425 515 532 493 485 515 b 213 442 350 515 257 479 b 501 842 424 781 447 786 b 754 981 582 924 668 981 b 921 856 842 981 917 926 l 921 844 b 865 739 921 793 897 739 l 863 739 b 829 707 839 735 829 721 b 846 685 829 697 836 688 l 856 683 b 888 708 874 683 879 697 b 938 850 922 760 938 808 b 711 1035 938 964 828 1035 b -101 108 460 1035 267 717 b -126 49 -112 89 -126 68 b -104 11 -126 35 -121 22 b -81 4 -96 7 -87 4 b -17 67 -49 4 -29 44 l 26 139 b 99 83 47 117 81 99 b 296 3 168 28 233 3 z m 156 197 l 113 200 l 108 204 b 82 229 99 214 90 224 b 142 328 103 264 122 297 l 154 340 b 369 443 197 381 304 443 b 424 390 401 443 424 429 b 419 357 424 381 422 369 b 156 197 400 276 294 197 z "},"l":{"ha":360,"x_min":0,"x_max":0,"o":"m 63 0 b 388 275 156 0 286 76 l 388 276 b 376 285 388 281 382 285 b 360 275 371 285 364 282 b 107 42 215 50 138 42 l 104 42 b 47 101 71 42 49 64 l 47 106 b 86 221 47 139 64 179 b 500 842 86 224 365 703 b 754 981 582 925 667 981 b 919 856 840 981 915 926 l 919 844 b 864 739 919 793 896 739 l 861 739 b 829 708 838 736 829 721 b 844 685 829 697 835 688 l 854 683 b 886 708 872 683 879 697 b 938 850 922 761 938 808 b 710 1035 938 964 828 1035 b 206 604 539 1035 396 889 b -53 135 -17 272 -49 189 l -54 115 b 63 0 -54 14 28 0 z "},"m":{"ha":1074,"x_min":0,"x_max":0,"o":"m 775 -4 b 1100 275 864 -4 989 72 l 1100 276 b 1089 285 1100 281 1094 285 b 1072 275 1083 285 1076 282 b 824 36 1071 274 929 36 b 761 100 775 36 761 67 b 901 443 761 204 897 346 l 901 446 b 832 521 901 482 881 521 b 464 257 725 521 583 386 b 546 443 504 333 543 401 l 546 446 b 476 521 546 482 525 521 b 88 233 364 521 211 369 b 246 485 150 336 200 414 b 249 494 247 488 249 490 b 189 531 249 513 218 531 b 146 510 172 531 156 525 b -103 101 67 396 -10 257 b -128 40 -114 82 -128 60 b -106 4 -128 26 -122 14 b -81 -4 -96 -1 -87 -4 b -51 11 -69 -4 -61 1 b 438 451 -42 21 272 451 b 449 436 446 451 449 446 b 282 60 442 376 282 164 b 336 -4 282 15 308 -4 b 383 15 353 -4 371 3 b 394 92 385 40 389 65 b 793 451 426 200 679 451 b 804 436 801 451 804 446 b 660 113 797 376 660 217 b 775 -4 660 43 706 -4 z "},"n":{"ha":708,"x_min":0,"x_max":0,"o":"m 408 -7 b 735 275 497 -7 624 74 l 735 276 b 724 285 735 281 729 285 b 707 275 718 285 711 282 b 456 33 706 274 563 33 b 394 96 407 33 394 64 b 533 436 394 200 529 340 l 533 443 b 464 513 533 476 513 513 b 96 251 358 513 215 379 l 246 486 b 249 494 247 489 249 492 b 189 531 249 513 218 531 b 146 511 172 531 156 525 b -103 106 67 399 -10 260 b -128 46 -114 88 -128 65 b -106 10 -128 32 -122 19 b -82 3 -97 4 -89 3 b -53 14 -71 3 -61 7 b -18 64 -39 28 -28 47 b -8 81 -15 69 -12 75 l -3 86 b 426 444 50 143 285 444 b 436 435 433 444 436 440 l 436 431 b 292 108 431 371 292 211 b 408 -7 292 40 339 -7 z "},"o":{"ha":576,"x_min":0,"x_max":0,"o":"m 138 -6 b 325 76 201 -1 267 28 b 372 65 340 69 357 65 l 379 65 b 540 172 424 65 479 90 b 606 275 561 203 583 236 l 606 276 b 594 285 606 281 600 285 b 576 275 588 285 581 282 b 518 190 576 274 553 236 b 410 115 508 176 454 115 b 378 131 399 115 388 121 b 461 283 414 174 443 225 b 478 381 472 318 478 350 b 329 542 478 476 422 542 l 317 542 b -8 253 186 533 42 404 b -25 156 -19 218 -25 186 b 125 -6 -25 60 32 -6 z m 174 51 b 121 61 157 51 139 56 b 75 153 90 72 75 106 b 92 242 75 179 81 210 b 342 465 132 349 249 464 l 344 465 b 443 364 414 465 443 422 b 363 163 443 303 411 225 l 357 189 b 321 218 354 210 339 218 b 249 156 289 218 249 192 b 292 94 249 132 267 110 b 174 51 256 68 215 51 z "},"p":{"ha":653,"x_min":0,"x_max":0,"o":"m -258 -293 b -229 -282 -247 -293 -237 -289 b -194 -232 -215 -268 -204 -249 b 29 135 -139 -139 -54 1 b 167 0 32 51 89 0 l 169 0 b 318 39 224 1 274 15 l 324 39 b 614 172 419 39 536 75 b 679 275 638 201 658 236 l 679 276 b 668 285 679 281 674 285 b 651 275 663 285 656 282 l 622 231 b 533 140 622 231 578 174 b 392 88 499 117 450 93 b 549 390 490 171 549 296 b 435 525 549 465 514 521 l 425 525 b 228 454 358 525 289 499 l 247 486 b 250 494 249 489 250 492 b 190 531 250 513 219 531 b 147 511 174 531 157 525 b -279 -190 68 399 -186 -36 b -304 -250 -290 -208 -304 -231 b -282 -286 -304 -264 -299 -276 b -258 -293 -274 -292 -265 -293 z m 146 61 b 76 147 97 61 76 99 b 114 272 76 186 90 232 l 118 279 b 364 456 175 369 274 456 l 371 456 b 422 382 407 454 422 424 b 300 128 422 307 374 193 b 247 165 292 153 269 165 b 193 106 221 165 193 144 l 194 88 b 200 74 194 83 197 78 b 146 61 179 65 161 61 z "},"q":{"ha":753,"x_min":0,"x_max":0,"o":"m 149 -446 b 408 36 340 -446 408 -99 l 407 61 b 479 19 422 32 460 19 b 661 115 557 19 640 96 b 781 276 699 153 740 204 l 781 278 b 768 285 781 282 775 285 b 753 276 763 285 757 283 b 638 132 721 226 681 174 b 497 53 576 71 531 53 b 475 56 489 53 482 54 b 433 113 449 64 433 88 b 443 144 433 124 436 135 b 653 503 507 242 653 472 b 621 542 653 529 639 542 b 608 540 617 542 613 542 b 510 431 596 536 560 497 b 463 363 481 385 496 408 l 464 386 b 321 517 464 478 403 517 b -33 139 103 501 -33 285 b 82 8 -33 64 3 8 b 299 104 156 8 236 50 b 51 -350 186 -85 51 -262 b 149 -446 51 -411 94 -446 z m 192 -394 b 157 -347 172 -394 158 -368 b 392 63 157 -242 382 44 l 392 57 b 192 -394 392 -8 351 -394 z m 146 63 l 139 63 b 78 138 96 63 78 93 b 314 450 78 246 183 432 b 340 451 324 451 332 451 b 424 375 400 451 424 421 b 146 63 424 265 279 72 z "},"r":{"ha":567,"x_min":0,"x_max":0,"o":"m 265 1 b 596 275 443 1 578 242 l 596 276 b 585 285 596 281 590 285 b 567 275 578 285 571 282 b 318 44 425 53 347 46 b 258 106 282 44 260 65 l 258 113 b 314 257 258 156 279 208 b 367 363 335 286 365 339 l 367 367 b 150 533 367 464 213 507 l 144 536 l 150 564 b 154 607 153 578 154 593 l 151 639 b 89 707 144 672 128 707 b 65 703 82 707 74 706 b 31 651 44 697 31 678 b 115 533 31 618 53 574 b -6 267 101 481 65 396 l -6 264 b 7 257 -6 261 0 257 b 24 267 13 257 19 260 b 139 508 65 332 124 453 b 253 374 225 468 253 408 l 253 371 b 154 117 250 317 154 210 b 188 36 154 88 163 61 b 265 1 214 8 253 1 z m 118 554 b 51 658 81 574 51 625 b 76 686 51 675 60 686 l 88 685 b 128 617 119 676 128 646 b 118 554 128 585 118 554 z "},"s":{"ha":538,"x_min":0,"x_max":0,"o":"m 111 -32 b 211 -10 174 -32 211 -10 l 221 -10 b 565 275 379 -10 524 193 l 565 278 b 554 285 565 281 561 285 b 538 275 549 285 542 282 b 254 28 507 231 386 28 l 251 28 b 375 328 254 32 375 135 b 329 542 375 390 363 461 b 339 540 332 540 336 540 b 381 568 354 540 371 551 b 389 596 386 578 389 588 b 372 625 389 610 383 619 b 358 628 368 626 364 628 l 353 628 l 351 626 l 349 626 l 343 624 b 276 571 328 617 304 600 b -49 224 93 376 1 279 b -83 125 -71 199 -83 163 b -6 -8 -83 71 -60 17 b 111 -32 39 -26 79 -32 z m 50 25 l 28 28 b -44 114 -26 40 -44 76 b 14 231 -44 169 -6 231 b 28 208 26 231 21 217 b 56 196 35 199 44 196 b 96 211 71 196 86 201 b 111 246 106 222 111 235 b 63 296 111 269 90 292 l 224 467 b 244 314 224 467 244 397 l 243 276 b 50 25 231 119 132 25 z "},"t":{"ha":392,"x_min":0,"x_max":0,"o":"m 26 0 b 419 275 267 0 419 275 l 419 276 b 408 285 419 281 414 285 b 392 275 403 285 396 282 b 81 42 238 50 110 43 b 22 103 44 42 22 63 b 276 521 22 169 157 356 l 436 521 b 453 536 450 521 447 525 l 456 543 b 443 556 456 550 450 556 l 301 556 b 461 803 388 674 460 775 l 461 804 b 424 839 461 829 436 839 b 372 813 404 838 389 828 b 257 658 371 810 322 747 b 114 556 257 658 185 556 l 90 556 b 74 540 81 556 79 551 b 72 533 72 539 72 536 b 85 521 72 528 78 521 l 160 521 b -78 108 44 356 -75 169 l -78 101 b 26 0 -78 15 6 0 z "},"u":{"ha":696,"x_min":0,"x_max":0,"o":"m 393 0 b 724 275 575 0 711 251 l 724 278 b 713 285 724 281 719 285 b 696 275 707 285 700 282 b 446 43 553 51 475 44 l 443 43 b 385 104 408 43 386 65 l 385 108 b 583 496 385 229 583 426 b 564 525 583 508 578 518 b 544 531 557 529 550 531 b 494 504 526 531 510 519 b 358 299 490 501 417 403 b 272 165 358 299 306 208 l 257 146 b 100 43 172 49 122 44 l 97 43 b 40 104 63 43 42 65 l 40 108 b 238 496 40 229 238 426 b 219 525 238 508 232 518 b 199 531 213 529 206 531 b 149 504 182 531 164 519 b -60 110 143 499 -60 226 b 49 0 -60 18 28 0 b 290 144 146 0 231 74 b 286 110 288 132 286 121 b 393 0 286 18 374 0 z "},"v":{"ha":463,"x_min":0,"x_max":0,"o":"m 24 -3 l 42 -1 b 494 479 200 25 383 313 b 511 511 500 488 511 500 b 501 525 511 515 508 521 b 492 528 499 526 494 528 b 464 504 478 528 471 514 b 69 72 417 439 224 99 l 65 72 b 56 85 58 72 56 76 l 54 89 b 163 460 54 150 163 350 b 160 483 163 468 161 476 b 100 536 151 521 126 536 b 39 507 76 536 53 525 b 43 460 43 492 43 476 b -51 74 43 322 -51 154 l -50 61 b 24 -3 -46 29 -21 -3 z "},"w":{"ha":940,"x_min":0,"x_max":0,"o":"m 431 -6 b 968 554 639 -6 968 375 b 944 619 968 581 961 603 b 907 635 935 629 922 635 b 861 617 892 635 875 629 b 869 550 867 596 869 574 b 510 42 869 322 593 42 b 450 103 475 42 451 63 l 450 107 b 647 494 450 228 647 425 b 629 525 647 507 642 518 b 608 529 622 528 615 529 b 560 503 592 529 575 518 b 361 181 554 499 428 292 b 182 42 261 51 207 43 l 179 42 b 122 103 144 42 124 64 l 122 104 b 319 497 122 175 319 413 b 300 525 319 511 313 518 l 299 525 b 268 538 292 531 281 536 l 260 538 b -3 271 203 538 114 464 l -3 269 b 8 261 -3 265 3 261 b 26 271 15 261 22 264 b 175 460 57 319 142 460 b 188 444 181 460 185 454 l 188 443 b 22 108 188 406 22 192 b 131 -1 22 17 110 -1 b 351 119 217 -1 293 57 b 350 108 350 115 350 113 b 431 -6 350 28 382 -6 z "},"x":{"ha":696,"x_min":0,"x_max":0,"o":"m 394 -4 b 726 275 556 -4 693 217 l 726 276 b 715 285 726 281 721 285 b 697 275 708 285 701 282 b 447 63 636 182 549 63 b 410 68 435 63 422 64 b 332 172 364 81 343 131 b 319 319 321 213 321 265 b 442 419 346 347 382 386 b 576 456 499 451 543 456 l 601 456 b 646 488 628 456 643 458 l 646 489 b 600 525 646 518 624 525 b 547 518 581 525 560 521 b 321 376 457 499 385 439 l 318 374 b 292 500 315 421 310 467 b 232 532 279 522 249 532 b 36 333 168 532 85 410 b -1 272 24 315 8 288 l -1 271 b 11 264 -1 267 4 264 b 28 272 17 264 24 265 b 57 322 36 288 47 308 b 172 440 90 372 139 440 b 207 331 192 440 207 411 l 207 319 b 213 253 208 299 210 276 b 211 251 213 251 211 251 b -128 43 -7 38 -128 94 l -126 33 b -96 11 -122 17 -110 11 b -29 32 -74 11 -44 25 b 206 190 61 67 136 124 l 218 201 b 354 0 233 114 264 22 b 394 -4 368 -3 381 -4 z "},"y":{"ha":624,"x_min":0,"x_max":0,"o":"m -228 -481 b 144 -210 -14 -481 144 -210 b 269 -29 185 -157 226 -96 b 504 96 383 19 460 60 b 603 200 579 157 592 182 b 650 275 624 229 639 256 l 650 278 b 639 285 650 281 644 285 b 622 275 633 285 626 282 b 549 172 610 258 588 214 b 296 11 532 151 464 85 b 553 429 372 129 457 269 b 578 489 564 447 578 469 b 556 525 578 503 572 515 b 532 532 547 531 539 532 b 503 519 521 532 511 526 b 468 471 489 507 478 486 b 353 279 426 400 388 336 b 101 46 208 54 131 46 l 99 46 b 40 106 64 46 42 68 l 40 110 b 239 497 40 231 239 429 b 219 528 239 511 233 521 b 200 533 213 532 206 533 b 150 507 182 533 165 522 b -58 113 143 500 -58 229 b 49 3 -58 19 28 3 b 233 86 118 3 181 39 l 144 -51 b -6 -107 100 -69 50 -87 b -297 -386 -189 -174 -286 -299 l -299 -406 b -269 -468 -299 -433 -289 -456 b -228 -481 -260 -475 -246 -481 z m -239 -449 b -262 -439 -249 -449 -256 -446 b -272 -406 -268 -431 -272 -419 l -271 -390 b 3 -132 -261 -310 -171 -194 l 119 -89 b -50 -304 28 -225 -12 -265 b -239 -449 -107 -364 -190 -449 z "},"z":{"ha":458,"x_min":0,"x_max":0,"o":"m -303 -572 b 161 -87 -121 -572 161 -315 b 150 -12 161 -62 158 -37 b 486 275 361 10 479 260 l 486 276 b 475 285 486 281 481 285 b 457 275 468 285 461 282 b 132 28 453 265 329 43 b 53 97 113 57 86 78 b 396 435 215 160 396 294 b 390 478 396 449 394 464 b 278 532 376 525 333 532 l 276 532 b 0 275 169 532 26 317 l 0 272 b 11 265 0 269 6 265 b 28 275 17 265 24 268 b 232 461 46 304 150 461 b 281 410 263 461 281 442 b 35 165 281 349 211 244 b -44 131 4 151 -19 151 b -71 88 -54 121 -69 106 l -71 85 b 31 -3 -71 42 8 25 b 42 -22 35 -10 39 -15 b -342 -287 -97 -97 -237 -174 b -429 -465 -382 -332 -429 -403 b -401 -535 -429 -490 -421 -515 b -303 -572 -375 -560 -342 -572 z m -344 -518 b -406 -467 -382 -518 -406 -501 b -393 -415 -406 -453 -401 -435 b 54 -68 -333 -276 -85 -146 l 56 -87 b 28 -210 56 -129 43 -174 b -344 -518 -54 -403 -246 -518 z "},"{":{"ha":508,"x_min":0,"x_max":0,"o":"m 206 -118 b 314 -56 244 -118 285 -100 b 318 -47 315 -54 318 -50 b 307 -33 318 -39 313 -33 b 293 -42 301 -33 297 -35 b 201 -94 263 -86 226 -94 b 149 -31 163 -83 149 -62 b 183 96 149 4 165 49 b 249 350 207 156 249 254 b 228 456 249 386 243 422 b 521 878 379 490 471 703 b 557 921 529 906 542 921 b 589 876 581 919 589 901 b 600 865 589 869 592 865 b 613 883 613 865 613 869 b 507 963 613 928 556 963 b 414 913 474 963 439 949 b 204 494 354 826 324 560 b 131 535 185 521 151 535 b 90 517 106 535 94 522 b 86 500 88 513 86 507 b 93 478 86 493 89 485 b 189 450 113 451 161 450 b 190 451 190 450 190 450 b 193 432 190 444 193 440 b 138 244 193 408 181 368 b 71 13 104 150 71 54 b 206 -118 72 -58 136 -118 z m 143 479 b 110 497 124 479 110 488 b 135 511 110 510 126 511 b 158 506 143 511 151 510 b 163 503 160 506 161 504 b 178 485 168 497 172 493 b 143 479 167 481 156 479 z "},"|":{"ha":260,"x_min":0,"x_max":0,"o":"m 157 997 b 125 965 139 997 125 982 b 126 872 126 935 126 904 b 124 713 126 822 125 769 b 111 460 119 615 117 535 b 103 335 110 419 107 376 b 94 208 101 297 97 257 b 69 -43 88 133 81 46 l 69 -49 b 81 -74 69 -58 74 -67 b 106 -83 88 -81 96 -83 b 132 -72 115 -83 125 -79 b 142 -47 138 -65 142 -57 l 142 31 b 143 206 142 93 142 153 b 147 332 144 254 146 294 b 151 458 149 375 150 418 b 167 710 156 532 160 613 b 190 961 174 804 179 882 l 190 967 b 160 997 190 983 176 997 z "},"}":{"ha":550,"x_min":0,"x_max":0,"o":"m 461 458 l 471 458 l 444 469 b 438 471 442 469 440 471 b 410 475 428 474 418 475 b 386 472 396 475 386 472 b 372 469 381 472 376 471 b 367 501 368 483 367 494 b 419 650 368 531 393 589 b 479 832 449 719 479 792 l 479 835 b 396 951 476 885 444 931 b 343 963 379 958 361 963 b 236 901 303 963 264 943 l 232 896 l 232 893 b 236 883 232 890 232 886 b 247 879 239 881 243 879 b 253 881 249 879 251 879 b 257 886 254 883 256 885 b 343 939 286 929 319 939 l 349 939 b 397 910 375 932 390 922 b 403 889 401 904 403 896 b 369 792 403 864 388 831 b 311 583 343 733 311 664 b 318 517 311 561 313 539 b 340 458 322 496 331 475 b 19 -25 260 425 119 317 b -15 -69 10 -62 -7 -69 b -26 -67 -21 -69 -25 -68 l -28 -67 b -49 -31 -42 -56 -49 -42 l -47 -25 b -58 -12 -49 -18 -53 -14 l -61 -12 b -72 -18 -65 -12 -69 -15 l -72 -29 b -21 -99 -72 -58 -47 -85 b 33 -111 -4 -107 14 -111 b 128 -60 71 -111 104 -93 b 192 106 150 -28 169 33 b 357 433 229 229 276 382 b 382 410 361 429 371 418 b 383 408 383 410 383 410 l 385 408 l 386 407 b 403 399 392 403 397 400 b 411 396 406 397 408 397 b 426 394 417 394 421 394 b 469 415 447 394 463 401 b 474 431 472 419 474 425 b 467 453 474 438 471 446 z m 449 428 b 433 419 446 424 440 421 b 422 418 431 418 426 418 b 396 428 414 418 404 421 b 382 444 389 433 385 439 b 417 451 393 449 404 451 b 447 440 431 451 442 447 b 450 433 449 438 450 435 b 449 428 450 431 449 429 z "},"~":{"ha":719,"x_min":0,"x_max":0,"o":"m 504 343 b 650 446 610 343 649 444 l 650 449 b 636 460 650 453 647 458 l 633 460 b 615 449 624 460 615 456 b 538 406 615 447 610 406 b 439 451 496 406 468 428 b 299 510 406 479 367 510 b 71 397 174 510 75 403 l 69 394 b 78 381 69 389 72 383 l 88 378 b 110 389 96 378 104 382 b 240 447 111 389 169 447 b 331 407 271 447 299 429 b 504 343 376 378 428 343 z "},"":{"ha":139,"x_min":0,"x_max":0,"o":""},"":{"ha":442,"x_min":0,"x_max":0,"o":"m 314 683 l 308 683 b 296 681 304 683 300 682 b 286 667 290 676 288 672 l 72 -164 l 72 -165 b 71 -175 71 -168 71 -172 b 78 -196 71 -182 74 -189 b 103 -212 83 -204 92 -211 b 113 -214 106 -214 110 -214 b 151 -182 131 -214 147 -201 l 331 656 l 331 660 b 314 683 331 671 324 679 z m 328 799 b 285 756 304 799 285 779 b 328 713 285 732 304 713 b 372 756 353 713 372 732 b 328 799 372 779 353 799 z "},"":{"ha":549,"x_min":0,"x_max":0,"o":"m 153 64 b 126 83 142 69 133 75 b 90 176 103 108 90 139 b 131 313 90 219 104 264 b 238 435 157 361 193 401 b 310 474 260 453 285 465 b 258 329 292 417 274 369 b 206 189 247 296 229 249 b 161 83 188 140 172 106 z m 142 -64 b 160 -54 150 -64 156 -61 b 176 0 160 -47 165 -29 l 215 4 b 444 104 315 22 392 56 b 581 275 496 151 542 208 b 569 283 581 281 576 283 b 551 274 563 283 557 281 b 494 193 542 256 522 228 b 389 96 465 158 431 125 b 247 46 346 65 299 49 b 193 50 226 46 208 47 l 214 111 b 321 376 260 233 296 322 l 326 386 b 369 485 339 418 354 450 b 428 464 394 485 414 478 b 431 456 429 461 431 458 b 410 422 431 450 424 439 b 385 379 393 403 385 389 b 399 354 385 369 389 361 b 429 344 408 347 418 344 b 467 364 444 344 457 351 b 479 410 475 376 479 392 b 425 506 479 450 461 482 b 386 519 414 513 401 517 l 393 531 l 392 532 l 393 538 b 371 565 393 549 385 557 l 358 567 b 332 551 344 567 335 563 b 324 522 329 542 326 532 b 90 407 231 511 153 472 b -15 172 26 342 -8 263 b 4 86 -15 139 -8 110 b 125 3 28 39 68 11 l 108 -31 l 107 -39 b 126 -61 107 -49 113 -56 b 138 -64 131 -64 133 -64 z "},"":{"ha":657,"x_min":0,"x_max":0,"o":"m 746 846 b 647 892 721 879 685 892 b 496 832 593 892 535 865 b 325 533 407 756 368 639 b 292 449 314 506 303 476 l 283 449 b 236 450 269 449 254 450 b 142 458 208 451 175 454 l 139 458 b 125 432 131 457 125 446 b 132 413 126 424 128 417 b 140 408 135 410 138 408 l 142 408 b 236 415 175 413 208 414 b 281 418 253 417 267 418 b 257 354 272 397 265 375 b 197 214 239 307 221 258 b 154 150 185 192 171 169 b 96 93 138 129 119 107 b -81 40 43 60 -19 51 b -96 17 -90 36 -96 26 b -74 -4 -96 6 -89 -4 b 76 24 -24 -3 28 6 b 85 26 79 25 82 25 b 117 28 96 28 107 28 b 304 7 181 28 242 17 b 385 -1 331 3 358 -1 b 472 14 414 -1 444 3 b 564 110 513 29 551 68 b 569 150 568 122 569 136 b 535 235 569 182 558 214 b 529 238 533 236 531 238 b 521 229 525 238 521 233 b 524 224 521 228 522 225 b 553 160 543 207 553 183 b 539 111 553 143 549 126 b 433 50 517 74 474 60 b 371 44 413 46 392 44 b 276 50 339 44 307 47 b 167 56 240 53 203 56 l 143 56 b 200 101 164 68 183 83 b 331 361 264 175 296 271 b 353 419 338 381 346 400 b 425 418 375 419 397 419 b 519 411 460 417 489 415 l 521 411 b 533 435 528 413 533 422 b 528 451 533 442 531 449 b 519 456 525 454 522 456 b 425 449 489 451 460 450 b 364 447 401 447 382 447 b 393 529 374 474 383 501 b 450 686 413 582 429 635 b 654 871 483 772 553 871 l 657 871 b 731 838 685 869 714 860 b 746 788 740 824 746 806 b 742 764 746 779 744 771 b 703 707 735 742 719 722 b 642 656 683 689 664 671 b 626 629 631 649 626 639 b 658 594 626 613 640 594 b 675 600 664 594 669 596 b 771 719 721 628 760 664 b 774 753 772 729 774 740 b 746 846 774 785 765 819 z "},"":{"ha":510,"x_min":0,"x_max":0,"o":"m 433 519 b 410 532 428 528 419 532 b 392 525 404 532 397 529 l 335 471 b 251 503 313 490 283 503 b 201 492 233 503 217 499 l 160 556 b 139 567 154 563 147 567 l 135 567 b 118 561 129 567 122 564 b 107 536 111 554 107 546 b 113 519 107 531 108 525 l 164 467 b 128 379 142 444 128 413 b 146 315 128 356 133 335 l 82 274 l 81 274 b 69 254 75 268 71 261 b 76 232 69 246 71 238 b 99 221 82 225 90 221 b 117 228 106 221 111 224 l 175 282 b 251 256 196 265 222 256 b 300 265 268 256 285 260 l 342 200 l 343 200 b 363 189 349 193 356 189 l 367 189 b 385 194 374 189 379 192 b 396 217 392 200 396 208 b 389 236 396 224 393 231 l 338 290 b 375 379 360 313 375 344 b 361 435 375 399 369 418 l 428 478 l 428 479 b 439 499 435 483 439 490 l 439 503 b 433 519 439 508 436 515 z m 251 303 b 175 379 210 303 175 338 b 251 456 175 421 210 456 b 326 379 293 456 326 421 b 251 303 326 338 293 303 z "},"":{"ha":835,"x_min":0,"x_max":0,"o":"m 881 833 b 899 872 888 843 899 858 b 889 889 899 878 896 883 b 878 892 885 892 882 892 b 847 863 864 892 856 875 b 432 333 799 786 581 408 b 418 329 426 331 422 329 b 388 375 399 329 388 350 l 388 378 b 506 804 392 443 506 675 b 503 835 506 815 504 825 b 449 899 494 881 472 899 b 396 867 431 899 410 886 b 401 808 400 847 401 828 b 300 356 401 646 300 447 b 301 342 300 351 301 346 b 343 275 306 315 319 289 b 317 228 335 258 325 243 l 299 228 b 236 231 281 228 261 229 b 114 238 200 232 157 233 l 111 238 b 93 211 100 236 93 225 b 101 192 93 203 97 196 b 113 188 104 189 108 188 l 114 188 b 236 196 157 192 200 194 b 299 197 261 197 281 197 l 300 197 b 268 140 289 178 278 158 b 213 142 251 140 233 140 b 90 150 176 143 133 146 l 88 150 b 69 122 76 149 69 136 b 78 104 69 115 74 108 b 89 100 81 101 85 100 l 90 100 b 213 107 133 104 176 106 b 250 108 226 108 239 108 b 194 25 222 61 201 29 b 188 22 192 25 189 24 b 183 13 185 19 183 17 b 206 0 183 3 190 0 b 217 1 208 0 213 1 l 285 1 b 296 7 289 1 293 3 b 350 111 296 8 317 49 b 460 110 382 111 418 111 b 582 103 506 108 543 107 l 585 103 b 601 126 594 104 601 114 b 593 143 600 133 597 140 b 582 147 590 146 586 147 b 460 139 543 143 506 142 l 364 139 b 396 199 375 157 385 178 l 483 199 b 606 190 529 197 567 194 l 608 190 b 625 214 618 192 625 203 b 617 232 624 222 621 228 b 608 235 615 233 613 235 l 606 235 b 483 228 567 231 529 229 b 411 226 457 226 433 226 b 439 279 419 243 429 261 b 881 833 597 350 771 653 z "},"":{"ha":240,"x_min":0,"x_max":0,"o":"m 138 1024 b 107 1007 121 1021 107 1014 l 107 1006 b 114 893 111 971 114 935 l 114 857 b 113 781 114 829 114 804 b 108 724 111 763 110 743 b 104 668 108 707 107 689 b 90 554 101 633 97 594 l 90 551 b 101 542 90 547 94 544 b 128 539 108 539 118 539 b 153 546 138 540 146 543 b 161 557 157 550 161 553 l 161 558 b 154 671 157 599 156 638 b 153 726 153 692 153 710 l 153 783 b 157 896 153 817 154 853 b 171 1010 160 939 164 974 l 171 1013 b 143 1024 169 1018 157 1024 z m 117 453 b 86 438 100 451 86 444 l 86 436 b 94 324 92 401 93 365 b 92 211 94 281 93 244 b 89 154 92 193 90 174 b 85 97 88 138 86 119 b 69 -15 81 64 76 25 l 69 -18 b 82 -28 69 -22 74 -26 b 100 -31 88 -29 93 -31 l 107 -31 b 132 -24 117 -29 126 -26 b 142 -11 139 -19 142 -15 b 133 101 136 28 135 68 b 132 157 133 122 132 140 l 132 214 b 136 326 132 247 133 283 b 150 440 140 368 143 404 b 151 442 151 440 151 442 b 126 454 150 449 140 454 b 117 453 124 454 119 453 z "},"":{"ha":875,"x_min":0,"x_max":0,"o":"m 688 889 b 578 908 640 907 600 908 b 417 871 538 908 479 901 b 311 774 372 849 335 814 b 296 740 306 763 300 751 b 283 704 292 729 288 718 b 279 679 282 696 281 689 b 219 610 256 660 235 636 b 204 576 214 600 210 589 b 192 540 200 567 196 556 b 188 500 189 529 188 515 b 194 456 188 486 189 471 b 243 381 204 422 226 396 b 306 336 260 364 281 350 b 486 263 368 301 431 286 b 533 238 501 257 518 249 b 565 201 549 226 558 215 b 578 150 574 188 576 169 b 568 92 578 131 574 111 b 543 38 563 72 554 54 b 514 3 535 25 525 14 b 451 -43 497 -15 475 -31 b 321 -74 407 -65 363 -74 b 213 -50 278 -74 239 -64 b 144 33 178 -32 153 0 b 142 64 142 43 142 53 b 158 143 142 89 147 115 b 161 153 160 146 161 150 l 161 158 b 153 185 161 168 158 178 b 124 201 146 194 136 200 l 117 201 b 75 165 96 201 78 186 l 75 164 b 71 107 72 144 71 125 l 71 89 b 76 51 72 76 74 64 b 89 14 79 39 83 26 b 304 -108 124 -69 210 -108 b 631 143 443 -108 600 -21 b 722 308 676 185 710 240 b 726 347 725 322 726 335 b 722 386 726 361 725 374 b 688 461 717 413 706 438 b 361 651 593 582 403 594 b 351 671 357 658 354 664 b 349 694 350 678 349 686 b 361 750 349 711 353 732 b 390 799 368 767 378 783 b 435 839 403 814 418 828 b 567 876 475 864 522 876 b 669 853 604 876 640 868 b 715 817 689 842 704 831 b 738 769 726 801 735 786 b 739 750 739 763 739 757 b 713 665 739 717 725 686 b 707 653 710 661 708 657 b 706 643 706 649 706 646 b 740 599 706 622 719 603 b 750 597 743 597 747 597 b 794 632 769 597 789 611 b 804 708 800 660 804 685 l 804 711 b 688 889 804 817 742 867 z m 397 499 b 578 425 460 464 522 449 b 625 400 593 419 610 411 b 657 364 639 390 650 378 b 668 313 664 350 668 332 l 668 306 b 660 254 668 289 664 271 b 635 200 654 235 646 217 b 631 224 633 208 632 215 b 596 299 626 249 614 275 b 269 489 501 418 311 432 b 261 508 265 496 263 501 b 257 532 258 515 257 522 b 269 586 258 549 263 568 b 286 618 274 597 279 608 b 335 544 296 585 318 560 b 397 499 351 528 372 513 z "},"":{"ha":342,"x_min":0,"x_max":0,"o":"m 108 943 b 69 904 88 943 69 926 b 108 865 69 883 88 865 b 147 904 129 865 147 883 b 108 943 147 926 129 943 z m 233 943 b 194 904 213 943 194 926 b 233 865 194 883 213 865 b 272 904 256 865 272 883 b 233 943 272 926 256 943 z "},"":{"ha":882,"x_min":0,"x_max":0,"o":"m 318 139 b 468 206 374 139 426 163 b 525 326 503 242 525 289 b 468 386 525 364 504 386 l 467 386 b 407 371 450 386 431 381 b 401 369 404 371 406 369 l 401 368 b 393 351 396 364 393 358 b 414 329 393 339 403 329 b 436 351 426 329 436 339 l 435 358 b 465 364 446 363 456 364 b 494 349 479 364 489 358 b 500 325 499 343 500 335 b 481 264 500 308 493 286 b 322 167 453 217 397 167 b 251 244 276 167 251 194 b 325 444 251 299 279 375 b 429 419 350 428 386 419 l 431 419 b 650 551 563 419 640 486 l 651 563 b 633 610 651 581 644 597 b 564 639 618 628 594 638 l 556 639 b 300 514 463 639 372 594 b 290 563 293 529 290 546 b 293 592 290 574 292 583 l 299 592 b 319 613 310 592 319 601 b 299 635 319 625 310 635 b 276 617 293 635 285 631 b 265 561 269 604 265 583 b 282 493 265 539 269 514 b 194 269 226 424 194 340 b 318 139 194 188 240 139 z m 429 444 b 340 465 392 444 361 451 b 563 613 407 558 490 613 b 610 594 583 613 600 607 b 622 563 618 586 622 575 l 621 553 b 429 444 614 500 551 444 z m 353 1 b 811 401 574 1 779 181 b 815 461 814 422 815 442 b 471 801 815 654 671 801 b 11 401 250 801 44 622 b 7 343 8 382 7 363 b 353 1 7 150 150 1 z m 357 19 b 69 338 189 19 69 158 b 74 400 69 358 71 379 b 469 779 106 610 282 779 b 757 464 638 779 757 643 b 751 400 757 443 754 422 b 357 19 721 190 544 19 z "},"":{"ha":781,"x_min":0,"x_max":0,"o":"m 139 481 b 378 611 249 481 335 569 b 375 592 376 604 375 597 b 483 482 375 500 463 482 b 815 757 667 482 804 738 l 815 760 b 803 767 815 763 810 767 b 786 757 797 767 790 764 b 535 525 643 533 565 526 l 532 525 b 475 585 499 525 476 547 l 475 589 b 674 978 475 711 674 908 b 654 1007 674 990 668 1000 b 635 1013 647 1011 640 1013 b 585 986 617 1013 600 1001 b 508 878 582 983 549 939 b 371 1007 503 958 446 1007 l 368 1007 b 1 618 156 1004 1 774 b 101 483 1 550 32 496 b 139 481 114 481 126 481 z m 171 525 l 168 525 b 114 596 131 526 114 554 b 358 942 114 710 238 924 l 386 944 b 467 865 443 944 467 911 b 442 769 467 836 457 803 b 426 739 436 760 431 750 b 171 525 369 644 267 525 z "},"":{"ha":632,"x_min":0,"x_max":0,"o":"m 182 383 b 201 422 182 399 189 413 b 408 583 253 463 407 582 l 414 586 l 399 614 l 69 371 l 286 139 l 333 183 l 328 189 b 182 383 326 190 182 306 z m 351 422 b 558 583 401 463 557 582 l 563 586 l 547 614 l 218 371 l 436 139 l 482 183 l 476 189 b 332 382 475 189 332 304 l 332 383 b 351 422 332 399 338 413 z "},"":{"ha":893,"x_min":0,"x_max":0,"o":"m 822 124 b 813 189 817 146 814 169 b 810 221 811 200 810 211 b 807 253 808 232 808 242 b 808 317 807 272 807 292 b 813 356 810 331 811 343 b 818 374 815 360 818 367 l 818 385 b 808 403 817 392 813 399 b 796 407 804 406 799 407 l 793 407 b 619 397 738 401 683 399 b 513 394 581 396 546 394 b 446 396 489 394 467 396 b 360 397 418 396 389 396 b 272 400 333 397 307 399 b 100 410 221 401 161 404 l 99 411 b 96 410 97 411 97 411 b 71 376 82 408 71 394 l 71 374 b 83 346 71 363 76 353 b 97 340 88 342 93 340 l 100 340 b 272 351 161 346 222 349 b 360 354 307 353 333 354 b 446 356 389 356 418 356 b 526 357 472 357 499 357 b 619 356 556 357 586 357 b 764 347 672 353 719 351 b 768 317 765 338 767 328 b 769 283 769 304 769 293 b 768 253 769 272 769 263 b 767 221 768 242 768 232 b 764 189 767 211 765 200 b 754 124 763 169 760 146 l 754 122 b 790 113 756 117 771 113 b 817 118 801 114 811 115 b 824 124 821 119 824 121 z "},"":{"ha":814,"x_min":0,"x_max":0,"o":"m 733 426 b 724 431 731 429 728 431 l 719 431 b 564 422 671 426 622 424 b 450 421 522 421 485 421 l 408 421 b 331 422 383 421 357 421 b 253 425 307 422 282 424 b 97 433 207 426 151 429 l 96 435 b 93 433 94 435 94 435 b 71 403 82 433 71 419 l 71 400 b 82 376 71 390 75 382 b 94 371 86 372 90 371 l 97 371 b 253 381 151 376 207 379 b 331 383 282 382 307 383 b 408 385 357 385 383 385 b 481 386 432 386 456 386 b 564 385 507 386 535 386 b 719 375 622 382 671 381 l 724 375 b 743 401 735 376 743 388 l 743 406 b 733 426 743 414 739 422 z "},"":{"ha":639,"x_min":0,"x_max":0,"o":"m 522 892 b 521 893 522 892 522 893 l 521 894 l 519 894 b 360 968 483 940 426 968 b 89 732 229 968 108 863 b 86 697 88 721 86 708 b 289 497 86 585 171 497 b 560 732 419 497 542 603 b 563 768 561 744 563 757 b 522 892 563 815 547 857 z m 125 732 b 358 956 144 856 249 956 b 483 899 410 956 453 933 b 425 865 464 896 446 885 b 397 876 417 869 407 874 b 365 881 386 879 376 881 b 264 849 331 881 293 869 b 214 761 232 825 214 794 b 254 707 214 733 229 715 l 274 701 l 258 715 b 240 756 246 726 240 740 b 271 828 240 789 257 814 b 365 868 296 853 332 868 l 367 868 b 382 867 372 868 376 867 l 383 865 l 385 865 b 413 853 396 863 406 857 b 321 726 381 818 349 769 b 244 625 292 681 264 639 l 243 625 b 197 610 226 615 211 610 b 144 668 164 610 144 640 b 176 719 144 688 154 710 b 185 713 178 717 181 714 l 188 713 b 194 714 190 713 193 713 b 199 724 197 717 199 719 b 192 733 199 728 196 732 l 193 735 l 185 735 l 183 733 b 124 669 146 724 128 696 b 122 694 124 678 122 686 b 125 732 122 707 124 719 z m 438 825 b 444 797 442 817 444 807 b 442 781 444 792 443 786 b 436 768 440 776 439 772 b 429 758 435 764 432 761 b 418 749 426 754 422 751 l 418 747 b 381 733 407 739 392 733 b 367 736 375 733 371 735 b 375 751 369 740 372 746 b 429 838 393 781 411 813 z m 525 732 b 292 508 507 608 403 508 b 133 628 215 508 156 556 b 194 596 143 610 164 597 l 199 596 b 346 704 268 596 313 650 l 357 719 b 364 713 360 718 364 715 b 365 711 365 713 365 713 l 364 710 b 360 699 363 707 361 703 b 346 643 354 686 346 664 b 354 613 346 632 349 621 b 407 592 364 599 382 592 l 419 592 b 486 642 451 594 478 614 b 490 661 489 649 490 656 b 465 696 490 679 478 690 b 451 697 460 697 456 697 l 446 697 l 431 693 l 444 688 b 463 654 456 683 463 669 b 460 638 463 649 461 643 b 413 606 454 622 433 607 b 388 613 400 606 392 607 b 382 629 383 617 382 622 b 386 658 382 638 385 647 b 392 694 389 669 392 683 b 385 719 392 704 389 713 l 396 719 b 454 742 419 719 440 726 l 456 743 b 471 771 463 751 468 761 b 474 789 472 776 474 782 b 442 853 474 811 463 835 b 449 861 444 856 447 858 b 493 886 464 875 478 883 b 528 769 515 854 528 814 b 525 732 528 757 528 744 z "},"":{"ha":889,"x_min":0,"x_max":0,"o":"m 100 882 b 272 893 161 888 222 890 b 360 896 307 894 333 896 b 446 897 389 897 418 897 l 513 899 l 619 896 b 793 886 683 894 738 892 l 796 886 b 818 917 808 888 818 901 l 818 919 b 808 943 818 929 814 939 b 793 949 803 947 797 949 b 619 938 738 943 683 940 l 526 936 l 446 938 b 360 939 418 938 389 938 b 272 942 333 939 307 940 b 100 951 221 943 161 946 l 96 951 b 71 918 82 950 71 936 l 71 915 b 83 888 71 904 76 893 b 97 882 88 883 93 882 z "},"":{"ha":282,"x_min":0,"x_max":0,"o":"m 140 947 b 69 876 101 947 69 915 b 140 806 69 838 101 806 b 213 876 181 806 213 838 b 140 947 213 915 181 947 z m 140 850 b 115 876 126 850 115 863 b 140 901 115 890 126 901 b 167 876 154 901 167 890 b 140 850 167 863 154 850 z "},"":{"ha":719,"x_min":0,"x_max":0,"o":"m 582 151 b 460 143 543 147 506 144 b 336 142 411 142 372 142 b 275 143 317 142 296 143 b 213 144 256 143 236 144 b 90 151 176 146 133 149 l 88 151 b 69 125 76 151 69 139 b 78 106 69 118 74 111 b 89 101 81 104 85 101 b 90 103 89 101 90 101 b 213 110 133 107 176 108 b 275 113 236 111 257 113 b 336 114 296 114 317 114 b 393 115 354 115 374 115 b 460 114 414 115 436 115 b 582 107 506 113 543 111 l 585 107 b 601 131 594 108 601 118 b 593 147 600 138 597 144 b 582 151 590 150 586 151 z m 642 475 b 628 481 638 479 632 481 b 511 474 588 476 546 475 b 453 472 489 474 471 472 l 415 472 b 424 507 418 483 421 496 b 439 564 428 524 433 542 b 472 675 449 597 460 636 b 474 678 474 676 474 676 l 474 681 b 451 703 474 690 464 700 l 446 703 b 431 699 440 703 435 701 b 424 686 426 696 425 692 b 404 572 418 646 411 606 b 392 515 400 550 396 532 b 383 472 389 500 386 486 b 279 474 351 472 318 472 b 163 481 236 475 199 476 l 160 481 b 143 460 151 481 143 471 l 143 457 b 150 439 143 450 146 443 b 160 436 153 438 156 436 l 163 436 b 278 442 199 439 235 440 l 376 442 b 353 344 369 413 363 382 b 319 233 342 303 331 268 b 318 231 319 232 318 232 l 318 228 b 338 208 318 219 326 211 l 343 208 b 357 213 349 208 353 210 b 364 222 361 215 363 218 b 383 338 368 260 375 294 b 407 442 392 378 400 410 b 453 440 424 440 439 440 b 511 438 471 439 489 439 b 628 429 546 436 586 433 l 631 429 b 650 457 642 431 650 442 b 642 475 649 464 646 471 z "},"":{"ha":622,"x_min":0,"x_max":0,"o":"m 499 1001 b 419 1024 476 1015 449 1024 b 339 1004 393 1024 365 1017 b 233 844 276 974 238 915 l 233 832 b 261 749 233 799 243 768 b 332 719 279 729 303 719 b 369 732 354 719 364 726 b 378 749 375 736 378 743 l 378 751 b 371 772 378 760 376 767 b 353 779 367 776 360 779 b 325 753 339 779 326 768 b 329 736 325 746 326 740 b 274 760 306 738 288 746 b 249 833 257 776 249 803 l 249 844 b 342 988 254 919 300 967 b 394 1000 360 996 378 1000 b 440 988 411 1000 428 996 b 478 897 465 969 478 939 l 478 885 b 285 660 469 768 404 693 b 275 658 281 660 278 658 l 274 657 b 69 458 199 631 110 586 b 72 450 69 456 69 451 b 78 449 74 449 75 449 b 82 450 79 449 81 449 b 150 482 110 474 131 482 b 203 465 168 482 183 474 b 300 440 228 453 257 440 b 408 524 347 440 400 468 b 410 536 410 528 410 532 b 364 592 410 574 376 589 l 358 592 b 319 578 350 592 333 590 b 303 539 310 568 304 556 l 303 538 b 304 533 303 536 303 535 b 310 531 306 532 307 531 b 318 539 314 531 318 535 b 340 572 319 556 328 567 b 356 575 346 575 351 575 b 379 568 364 575 372 574 b 394 535 389 560 394 549 b 393 525 394 532 393 529 b 361 479 390 503 378 488 b 338 475 354 476 346 475 b 269 499 317 475 294 482 b 190 526 253 510 226 526 b 139 515 175 526 157 524 b 274 640 167 565 229 624 b 335 660 294 647 315 653 b 389 676 354 665 374 671 b 550 879 500 719 544 813 l 550 890 b 499 1001 550 939 532 978 z "},"":{"ha":536,"x_min":0,"x_max":0,"o":"m 433 988 b 338 1026 411 1013 376 1026 l 332 1026 b 214 983 289 1026 247 1011 b 147 853 186 961 153 921 l 147 842 b 175 761 147 810 157 781 b 247 732 193 742 218 732 b 285 743 268 732 279 738 b 292 760 289 749 292 754 l 292 767 b 285 782 292 772 289 778 b 267 790 281 788 275 790 b 239 764 253 790 240 778 b 243 747 239 758 240 753 b 188 772 219 749 201 757 b 164 840 172 788 164 814 l 164 853 b 310 1004 169 944 244 1004 l 317 1004 b 392 907 364 1000 392 965 l 392 892 b 251 692 385 797 336 728 b 214 697 240 694 226 697 b 132 665 194 697 132 694 b 146 650 132 657 136 651 b 156 649 149 649 151 649 b 217 663 178 649 214 661 l 228 667 l 232 668 b 294 614 264 660 281 638 b 308 564 303 599 308 581 b 293 511 308 546 303 528 b 207 457 274 478 240 457 b 135 486 171 457 147 472 b 107 554 117 504 107 529 b 118 592 107 567 111 581 b 119 589 118 590 118 590 b 142 576 126 581 135 576 b 158 582 147 576 154 578 b 169 601 164 586 169 593 b 164 618 169 607 168 613 b 142 629 158 625 150 629 l 138 629 b 71 553 136 629 75 624 l 71 549 b 119 460 71 511 88 479 b 197 439 142 446 169 439 b 272 457 224 439 250 444 b 339 578 315 481 339 524 b 278 681 339 622 315 661 b 303 689 286 683 296 686 b 464 886 414 731 460 821 l 464 900 b 433 988 464 935 454 965 z m 163 664 b 179 667 167 665 172 667 b 190 668 183 668 188 668 b 163 664 181 665 171 664 z "},"":{"ha":256,"x_min":0,"x_max":0,"o":"m 171 938 b 154 943 167 940 160 943 l 150 943 b 131 932 142 943 135 939 l 129 932 l 79 854 b 72 835 75 847 72 842 b 78 822 72 831 74 826 b 90 815 82 818 86 815 b 108 824 97 815 103 821 l 176 896 b 183 914 181 901 183 907 b 171 938 183 922 179 931 z "},"":{"ha":922,"x_min":0,"x_max":0,"o":"m 917 800 b 904 803 913 801 908 803 b 878 788 894 803 883 797 b 799 642 847 742 822 690 b 725 490 774 592 749 542 b 593 208 681 397 642 300 b 397 50 553 133 488 60 b 375 49 390 49 382 49 b 281 79 342 49 308 57 b 219 182 249 103 229 143 b 211 246 214 203 211 225 b 218 311 211 268 214 290 b 346 581 261 400 304 490 b 393 685 361 615 378 650 b 433 799 408 719 433 761 b 413 818 432 811 422 818 b 397 814 407 818 401 817 b 343 726 372 793 357 756 b 297 632 328 694 313 664 b 208 446 267 569 238 508 b 31 69 149 319 90 194 l -19 -35 b -44 -90 -28 -54 -36 -72 b -68 -149 -53 -108 -64 -128 l -68 -154 b -39 -186 -68 -171 -57 -186 b -18 -176 -31 -186 -24 -182 l -18 -178 b 32 -85 4 -151 17 -115 b 76 11 47 -53 61 -21 b 167 200 107 74 136 138 b 186 242 172 214 179 228 b 188 208 186 231 186 219 b 231 90 193 167 207 125 b 332 10 256 56 292 24 b 388 1 350 4 368 1 b 597 103 467 1 547 47 b 753 392 671 186 707 292 b 842 578 782 454 811 517 b 933 764 872 639 907 700 b 935 772 935 767 935 769 b 917 800 935 785 926 797 z "},"":{"ha":599,"x_min":0,"x_max":0,"o":"m 515 785 b 390 797 476 792 433 797 b 203 724 321 797 253 781 b 158 588 175 688 158 638 b 239 438 158 526 183 467 b 111 154 196 344 143 250 b 76 35 100 117 76 76 b 78 18 76 29 76 24 b 81 17 79 17 79 17 b 94 38 88 17 94 38 b 421 764 179 289 338 510 b 486 765 443 764 464 765 l 501 765 b 175 25 372 531 264 275 l 175 21 b 181 10 175 14 178 10 b 201 28 188 10 199 19 b 526 757 293 249 522 743 b 528 765 526 760 528 763 b 515 785 528 775 524 783 z "},"":{"ha":299,"x_min":0,"x_max":0,"o":"m 149 476 b 69 396 106 476 69 440 b 149 317 69 353 106 317 b 229 396 193 317 229 353 b 149 476 229 440 193 476 z "},"":{"ha":347,"x_min":0,"x_max":0,"o":"m 194 -161 b 211 -160 200 -161 206 -161 b 260 -131 229 -156 247 -146 b 275 -103 267 -122 272 -114 b 276 -87 276 -97 276 -93 b 274 -69 276 -82 276 -75 b 256 -42 269 -58 264 -49 l 250 -36 b 242 -31 247 -33 244 -32 b 225 -26 236 -28 231 -28 l 211 -25 l 197 -26 b 172 -31 189 -26 181 -28 b 125 -44 156 -35 140 -39 l 113 -49 l 156 25 b 157 31 157 26 157 29 b 151 43 157 36 156 40 b 144 44 149 44 147 44 b 132 39 139 44 135 43 l 71 -62 l 69 -68 l 71 -75 b 83 -83 72 -81 78 -83 l 88 -83 b 108 -74 94 -79 101 -76 b 132 -68 117 -71 124 -69 b 176 -61 146 -64 161 -62 l 199 -61 b 218 -64 206 -61 213 -62 l 224 -67 l 228 -69 b 235 -82 232 -74 233 -78 l 236 -90 l 236 -94 b 232 -110 236 -100 235 -106 b 204 -132 226 -119 217 -129 b 186 -135 199 -135 192 -135 b 167 -131 179 -135 172 -133 b 133 -106 154 -125 143 -115 l 133 -104 b 124 -100 131 -101 126 -100 b 114 -104 119 -100 117 -101 b 110 -114 111 -107 110 -110 b 114 -124 110 -117 111 -121 b 157 -153 126 -135 140 -146 b 194 -161 168 -158 182 -161 z "},"":{"ha":508,"x_min":0,"x_max":0,"o":"m 433 1022 l 432 1024 b 426 1029 431 1026 429 1029 b 424 1028 425 1029 425 1028 b 418 1026 422 1028 422 1026 l 417 1026 b 399 1000 414 1026 411 1022 b 367 946 392 989 382 971 b 122 701 292 831 176 740 b 117 714 122 706 119 710 b 97 724 113 719 106 724 b 69 697 83 724 71 711 l 69 696 b 81 675 69 688 74 679 b 94 671 85 672 90 671 b 115 676 101 671 108 672 b 307 844 143 696 229 758 b 199 650 269 778 232 711 b 90 468 149 560 101 474 b 86 465 89 468 88 467 b 83 460 85 464 83 463 b 99 451 85 453 89 451 l 106 451 b 150 453 115 453 129 453 b 157 456 153 453 156 454 b 435 994 158 458 400 918 b 438 1008 436 999 438 1003 b 433 1022 438 1013 436 1018 z "},"":{"ha":581,"x_min":0,"x_max":0,"o":"m 476 988 b 408 1029 461 1013 438 1028 l 401 1029 b 254 951 358 1029 306 1003 b 121 750 200 900 153 828 b 82 579 96 689 82 629 b 104 486 82 542 89 510 b 171 444 119 461 143 447 l 179 444 b 326 522 224 444 275 472 b 460 724 381 575 428 646 b 499 894 485 785 499 844 b 476 988 499 932 492 964 z m 175 464 b 142 482 160 464 149 469 b 126 546 132 496 126 518 b 172 733 126 596 143 663 b 296 936 204 811 249 883 l 251 504 b 175 464 222 478 196 464 z m 408 740 b 268 519 372 654 319 572 l 313 954 b 406 1010 347 990 381 1010 b 439 992 419 1010 432 1004 b 454 928 449 978 454 956 b 408 740 454 879 438 813 z "},"":{"ha":674,"x_min":0,"x_max":0,"o":"m 386 613 l 340 568 l 346 564 b 492 369 347 563 492 446 b 471 329 490 353 485 340 b 264 169 421 289 265 171 l 260 165 l 275 139 l 604 382 z m 196 613 l 150 568 l 156 564 b 301 369 157 563 301 446 b 282 329 301 353 294 340 b 74 169 231 289 76 171 l 69 165 l 85 139 l 414 382 z "},"":{"ha":847,"x_min":0,"x_max":0,"o":"m 422 468 b 569 690 464 535 511 606 b 724 908 625 772 674 842 b 726 913 725 910 726 911 b 732 929 731 918 732 924 b 731 938 732 932 731 935 b 715 956 728 946 724 951 b 703 958 713 957 708 958 b 690 956 699 958 694 957 b 671 939 682 953 675 946 b 533 711 629 865 586 794 b 389 488 479 624 432 553 b 314 376 365 451 340 414 b 239 267 292 343 268 308 b 83 49 193 201 139 125 b 81 44 82 47 81 46 b 75 25 76 38 75 32 b 93 -3 75 13 82 1 b 107 -7 97 -6 101 -7 b 121 -4 111 -7 115 -6 b 143 15 129 0 138 6 b 279 243 189 96 238 176 b 350 356 307 288 329 322 b 422 468 375 394 399 433 z m 104 675 b 118 671 108 672 114 671 b 139 676 125 671 132 672 b 332 844 167 696 253 758 b 224 650 293 778 256 711 b 115 468 172 560 125 472 b 110 465 113 468 111 467 b 108 460 108 464 108 463 b 122 451 108 453 113 451 l 129 451 b 147 453 135 453 140 453 b 174 451 154 453 164 453 b 181 456 176 451 179 454 b 458 994 182 458 424 918 b 461 1008 460 999 461 1003 b 457 1022 461 1013 460 1018 l 456 1024 b 450 1029 454 1026 453 1029 l 447 1028 b 443 1026 447 1028 446 1026 l 440 1026 b 422 1000 438 1026 435 1022 b 392 946 415 989 406 971 b 146 701 317 831 200 740 b 142 714 146 706 144 710 b 122 724 136 719 129 724 l 121 724 b 93 697 107 724 94 711 l 93 696 b 104 675 93 688 97 679 z m 772 568 b 758 576 768 574 764 576 b 739 549 754 576 754 576 b 728 529 736 544 732 538 b 707 496 722 521 715 508 l 707 494 l 651 400 b 539 199 611 331 574 261 b 514 154 531 183 522 168 l 382 154 b 647 444 432 192 558 296 b 714 547 688 496 708 533 l 715 551 l 715 557 b 690 582 715 571 704 582 b 664 557 676 582 664 571 b 688 532 664 543 675 532 b 638 457 681 517 664 492 l 636 457 l 633 453 b 361 206 585 390 497 297 b 314 175 346 196 331 186 l 311 174 l 311 171 b 318 142 313 163 315 151 l 318 138 l 506 138 b 431 17 482 96 440 21 b 426 14 429 17 428 15 b 424 8 425 13 424 11 b 438 0 424 1 428 0 b 446 1 440 0 443 1 l 490 1 b 497 4 493 1 496 3 b 567 138 497 7 528 64 l 624 138 b 632 146 628 138 632 142 b 624 154 632 150 628 154 l 575 154 b 775 543 642 281 753 494 b 776 551 776 546 776 549 b 772 568 776 557 775 563 z "},"":{"ha":907,"x_min":0,"x_max":0,"o":"m 569 690 b 724 908 625 772 674 842 b 726 913 725 910 726 911 b 732 929 731 918 732 924 b 731 938 732 932 731 935 b 715 956 728 946 724 951 b 703 958 713 957 708 958 b 690 956 699 958 694 957 b 671 939 682 953 675 946 b 533 711 629 865 586 794 b 389 488 479 624 432 553 b 314 376 365 451 340 414 b 239 267 292 343 268 308 b 83 49 193 201 139 125 b 81 44 82 47 81 46 b 75 25 76 38 75 32 b 93 -3 75 13 82 1 b 107 -7 97 -6 101 -7 b 121 -4 111 -7 115 -6 b 143 15 129 0 138 6 b 279 243 189 96 238 176 b 350 356 307 286 329 322 b 422 468 375 394 399 433 b 569 690 464 535 511 606 z m 104 675 b 118 671 108 672 114 671 b 139 676 125 671 132 672 b 332 844 167 696 253 758 b 224 650 293 778 256 711 b 115 468 172 560 125 472 b 110 465 113 468 111 467 b 108 460 108 464 108 463 b 122 451 108 453 113 451 l 129 451 b 147 453 135 453 140 453 b 174 451 154 453 164 453 b 181 456 176 451 179 454 b 458 994 182 458 424 918 b 461 1008 460 999 461 1003 b 457 1022 461 1013 460 1018 l 456 1024 b 450 1029 454 1026 453 1029 l 447 1028 b 443 1026 447 1028 446 1026 l 440 1026 b 422 1000 438 1026 435 1022 b 392 946 415 989 406 971 b 146 701 317 831 200 740 b 142 714 146 706 144 710 b 122 724 136 719 129 724 l 121 724 b 93 697 107 724 94 711 l 93 696 b 104 675 93 688 97 679 z m 783 557 b 706 579 761 572 735 579 b 624 560 678 579 650 572 b 518 401 561 529 522 472 l 518 389 b 546 304 518 356 528 325 b 617 275 564 286 588 276 b 654 288 639 275 649 282 b 663 306 660 292 663 299 l 663 307 b 656 328 663 315 660 322 b 638 336 651 333 644 336 b 610 308 624 336 611 324 l 610 304 b 614 292 610 300 611 296 b 558 317 590 293 572 301 b 533 389 542 333 533 360 l 533 400 b 626 543 539 475 585 522 b 679 557 644 553 663 557 b 725 543 696 557 713 553 b 763 453 750 526 763 496 l 763 440 b 569 217 754 324 689 249 b 560 214 565 215 563 214 l 557 213 b 354 14 483 188 394 142 l 354 11 b 357 6 354 10 356 7 b 363 4 358 6 360 4 b 367 6 364 4 365 6 b 435 38 394 29 415 38 b 488 21 453 38 468 29 b 583 -4 513 10 540 -4 l 585 -4 b 693 79 632 -4 685 24 b 694 92 694 83 694 88 b 649 147 694 129 661 144 l 643 147 b 604 133 635 147 618 146 b 588 96 594 125 589 111 l 588 93 b 589 89 588 92 588 90 b 594 88 590 88 592 88 b 603 94 599 88 603 90 b 625 128 604 111 611 122 b 640 131 631 131 636 131 b 664 124 649 131 657 129 b 679 90 674 115 679 104 b 678 81 679 86 678 83 b 646 35 675 60 663 43 b 621 31 639 32 631 31 b 554 54 601 31 578 38 b 475 82 538 65 511 82 b 424 71 460 82 442 79 b 558 196 451 121 514 179 b 619 215 579 203 599 210 b 674 232 639 221 658 226 b 835 435 785 275 829 368 l 835 446 b 783 557 835 494 817 533 z "},"":{"ha":882,"x_min":0,"x_max":0,"o":"m 197 418 b 272 436 224 418 250 425 b 339 557 315 461 339 503 b 278 661 339 601 315 640 b 303 669 286 664 296 667 b 464 867 414 710 460 801 l 464 879 b 433 967 464 914 454 944 b 338 1007 411 992 376 1006 b 214 964 293 1007 249 992 b 147 833 186 940 153 900 l 147 822 b 175 740 147 789 157 760 b 247 711 193 722 217 711 b 285 724 268 711 279 718 b 292 740 289 728 292 733 l 292 746 b 285 763 292 753 289 758 b 267 769 281 767 274 769 b 239 743 253 769 240 758 b 243 728 239 738 240 732 b 188 751 219 728 201 736 b 163 825 171 769 163 796 l 163 832 b 308 983 169 924 243 983 l 317 983 b 392 883 365 981 392 943 l 392 871 b 251 671 385 776 336 708 b 214 676 240 675 226 676 b 132 644 194 676 132 674 b 146 629 132 638 136 632 b 154 628 149 629 151 628 b 217 642 176 628 214 640 l 228 646 l 232 647 b 294 593 264 639 281 617 b 308 543 303 578 308 560 b 293 490 308 525 303 507 b 207 436 274 457 240 436 b 135 465 171 436 147 453 b 107 533 117 483 107 508 b 118 571 107 547 111 560 b 119 568 118 571 118 569 b 142 556 126 560 133 556 b 158 561 147 556 154 558 b 169 582 164 565 169 574 b 164 597 169 588 168 592 b 142 608 158 604 150 608 l 142 610 l 138 608 b 71 532 136 608 75 603 l 71 528 b 119 439 71 490 88 458 b 197 418 142 425 169 418 z m 163 643 b 179 647 167 644 172 646 b 190 649 183 647 188 647 b 163 643 181 646 171 643 z m 457 468 b 604 690 500 535 546 606 b 760 908 660 772 708 842 b 763 913 760 910 761 911 b 767 929 765 918 767 924 b 765 938 767 932 767 935 b 750 956 764 946 758 951 b 739 958 747 957 743 958 b 726 956 735 958 731 957 b 706 939 718 953 710 946 b 569 711 665 865 621 794 b 424 488 514 624 467 553 b 349 376 400 451 375 414 b 274 267 326 343 303 308 b 118 49 228 201 175 125 b 115 44 117 47 117 46 b 110 25 113 38 110 32 b 128 -3 110 13 117 1 b 142 -7 132 -6 138 -7 b 156 -4 146 -7 151 -6 b 178 15 165 0 172 6 b 314 243 224 96 274 176 b 385 356 342 288 364 322 b 457 468 410 394 433 433 z m 807 568 b 793 576 803 574 799 576 b 774 549 789 576 789 576 b 763 529 771 544 767 538 b 743 496 757 521 750 508 l 742 494 l 686 400 b 574 199 646 331 608 261 b 549 154 565 183 557 168 l 417 154 b 682 444 468 192 593 296 b 749 547 722 496 743 533 l 750 551 l 750 557 b 725 582 750 571 739 582 b 700 557 711 582 700 571 b 724 532 700 543 710 532 b 672 457 715 517 699 492 l 668 453 b 396 206 619 390 532 297 b 349 175 381 196 365 186 l 346 174 l 346 171 b 353 142 349 163 350 151 l 353 138 l 540 138 b 465 17 517 96 475 21 b 461 14 464 17 463 15 b 458 8 460 13 458 11 b 474 0 460 1 464 0 b 481 1 475 0 478 1 l 525 1 b 532 4 528 1 531 3 b 601 138 532 7 563 64 l 658 138 b 667 146 663 138 667 142 b 658 154 667 150 663 154 l 610 154 b 810 543 676 281 788 494 b 811 551 811 546 811 549 b 807 568 811 557 810 563 z "},"":{"ha":713,"x_min":0,"x_max":0,"o":"m 600 653 b 643 696 625 653 643 672 b 600 739 643 719 625 739 b 557 696 576 739 557 719 b 600 653 557 672 576 653 z m 471 239 b 321 138 397 224 328 176 b 319 132 321 135 321 133 l 319 129 b 329 103 319 119 322 110 b 353 94 335 97 344 94 b 363 96 356 94 360 94 b 407 144 386 100 406 122 l 407 149 b 397 171 407 157 403 165 b 382 178 393 174 388 176 b 447 204 401 190 425 199 b 476 207 457 206 467 207 b 539 185 501 207 522 200 b 572 103 560 167 572 136 b 571 88 572 97 571 93 b 394 -160 561 -37 474 -122 b 281 -187 356 -179 317 -187 b 194 -164 247 -187 218 -181 b 143 -51 161 -142 143 -103 b 144 -29 143 -44 144 -36 b 303 256 150 56 210 163 b 451 368 344 297 399 333 b 618 547 538 425 618 478 b 568 615 618 583 600 608 b 543 618 560 618 551 618 b 444 586 514 618 479 607 b 322 453 394 556 351 508 b 321 447 321 451 321 449 b 326 436 321 443 322 439 b 332 435 328 435 331 435 b 343 440 336 435 340 436 l 343 442 b 544 594 390 535 485 594 b 561 593 550 594 556 594 b 596 542 585 588 596 571 b 449 415 596 503 531 464 b 203 239 374 371 281 315 b 76 -1 128 163 82 78 b 75 -21 76 -8 75 -15 b 144 -168 75 -99 113 -143 b 231 -207 179 -194 217 -204 l 235 -208 l 236 -208 b 276 -211 249 -211 263 -211 b 344 -204 299 -211 321 -210 b 635 96 521 -168 625 -22 b 636 117 635 103 636 110 b 599 217 636 161 622 194 b 515 243 578 235 549 243 b 471 239 501 243 486 242 z "},"":{"ha":1285,"x_min":0,"x_max":0,"o":"m 979 -425 b 1010 -393 996 -424 1010 -410 b 978 -361 1010 -375 996 -361 b 946 -393 960 -361 946 -375 b 954 -415 946 -401 950 -410 b 876 -314 924 -410 876 -390 b 1550 1053 876 -197 1363 947 l 1582 1053 l 1583 1056 b 1181 1114 1583 1072 1350 1114 b 654 774 775 1114 654 918 b 756 621 654 650 756 621 b 717 732 756 621 717 658 b 1225 1097 717 983 988 1097 b 1417 1057 1292 1097 1357 1085 b 838 519 1199 997 1019 757 b 583 618 751 547 669 596 b 494 629 553 626 522 629 b 268 550 407 629 331 596 b 225 553 254 551 240 553 b -104 225 13 553 -104 383 b 182 -47 -104 85 -14 -47 b 908 463 485 -47 707 200 l 922 463 b 1051 483 964 463 1006 468 b 1097 503 1058 485 1078 493 b 808 -206 938 183 808 -164 b 974 -425 808 -314 878 -419 z m 157 -24 b -31 204 26 -24 -31 83 l -31 221 b 228 542 -24 372 72 539 l 256 542 b 176 465 226 518 199 492 l 182 464 b 282 539 215 497 249 521 b 378 507 326 532 357 518 b 353 475 363 503 353 490 b 385 443 353 458 367 443 b 415 475 401 443 415 458 b 408 494 415 483 413 489 b 297 546 406 500 369 532 b 419 572 339 565 379 572 b 536 556 458 572 497 565 b 804 474 619 535 707 494 b 157 -24 608 218 408 -24 z m 956 499 l 938 499 b 1446 1031 1108 724 1265 949 b 1496 1047 1464 1039 1481 1043 b 1115 538 1381 1000 1240 781 b 956 499 1057 508 1004 499 z m 1325 1144 b 1338 1151 1329 1144 1333 1147 b 1343 1164 1342 1156 1343 1160 b 1336 1183 1343 1169 1340 1176 l 1286 1261 b 1267 1272 1281 1268 1274 1272 l 1263 1272 b 1244 1267 1256 1272 1249 1269 b 1233 1243 1238 1260 1233 1251 b 1240 1225 1233 1236 1236 1231 l 1308 1153 b 1325 1144 1313 1150 1318 1144 z "},"":{"ha":1285,"x_min":0,"x_max":0,"o":"m 979 -425 b 1010 -393 996 -424 1010 -410 b 978 -361 1010 -375 996 -361 b 946 -393 960 -361 946 -375 b 954 -415 946 -401 950 -410 b 876 -314 924 -410 876 -390 b 1550 1053 876 -197 1363 947 l 1582 1053 l 1583 1056 b 1181 1114 1583 1072 1350 1114 b 654 774 775 1114 654 918 b 756 621 654 650 756 621 b 717 732 756 621 717 658 b 1225 1097 717 983 988 1097 b 1417 1057 1292 1097 1357 1085 b 838 519 1199 997 1019 757 b 583 618 751 547 669 596 b 494 629 553 626 522 629 b 268 550 407 629 331 596 b 225 553 254 551 240 553 b -104 225 13 553 -104 383 b 182 -47 -104 85 -14 -47 b 908 463 485 -47 707 200 l 922 463 b 1051 483 964 463 1006 468 b 1097 503 1058 485 1078 493 b 808 -206 938 183 808 -164 b 974 -425 808 -314 878 -419 z m 157 -24 b -31 204 26 -24 -31 83 l -31 221 b 228 542 -24 372 72 539 l 256 542 b 176 465 226 518 199 492 l 182 464 b 282 539 215 497 249 521 b 378 507 326 532 357 518 b 353 475 363 503 353 490 b 385 443 353 458 367 443 b 415 475 401 443 415 458 b 408 494 415 483 413 489 b 297 546 406 500 369 532 b 419 572 339 565 379 572 b 536 556 458 572 497 565 b 804 474 619 535 707 494 b 157 -24 608 218 408 -24 z m 956 499 l 938 499 b 1446 1031 1108 724 1265 949 b 1496 1047 1464 1039 1481 1043 b 1115 538 1381 1000 1240 781 b 956 499 1057 508 1004 499 z m 1269 1144 b 1286 1153 1276 1144 1282 1150 l 1354 1225 b 1361 1243 1360 1231 1361 1236 b 1350 1267 1361 1251 1358 1260 b 1333 1272 1346 1269 1339 1272 l 1328 1272 b 1308 1261 1321 1272 1314 1268 l 1258 1183 b 1251 1164 1254 1176 1251 1169 b 1257 1151 1251 1160 1253 1156 b 1269 1144 1261 1147 1267 1144 z "},"":{"ha":1285,"x_min":0,"x_max":0,"o":"m 979 -425 b 1001 -414 988 -424 994 -421 b 1010 -393 1007 -408 1010 -401 b 1001 -369 1010 -383 1007 -376 b 978 -361 994 -364 988 -361 b 956 -369 968 -361 961 -364 b 946 -393 949 -376 946 -383 b 954 -415 946 -400 949 -407 b 876 -314 903 -406 876 -372 b 954 -69 876 -285 903 -203 b 1143 374 1006 64 1068 211 b 1365 811 1217 536 1292 682 b 1550 1053 1439 940 1501 1021 l 1582 1053 l 1583 1056 b 1518 1078 1583 1061 1561 1068 b 1360 1103 1475 1088 1422 1096 b 1181 1114 1297 1110 1238 1114 b 765 999 994 1114 857 1075 b 654 774 692 935 654 860 b 706 651 654 719 671 679 b 756 621 718 640 735 631 b 726 671 743 638 733 654 b 717 732 719 688 717 708 b 882 1010 717 850 772 943 b 1225 1097 978 1068 1093 1097 b 1417 1057 1292 1097 1356 1083 b 1121 863 1311 1025 1213 960 b 838 519 1015 751 921 636 b 724 565 800 532 761 547 b 494 629 631 608 554 629 b 268 550 415 629 340 603 b 225 553 256 551 240 553 b 46 504 154 553 94 536 b -65 381 -3 472 -40 431 b -104 225 -92 329 -104 278 b -74 93 -104 179 -94 135 b 21 -8 -53 51 -22 18 b 182 -47 64 -35 117 -47 b 699 214 360 -47 531 40 b 908 463 772 290 842 374 b 1097 503 975 463 1038 476 b 892 40 1015 336 947 182 b 808 -206 836 -103 808 -185 b 857 -356 808 -260 825 -310 b 979 -425 889 -401 929 -425 z m 157 -24 b 50 8 114 -24 78 -12 b -11 92 22 29 1 57 b -31 204 -24 126 -31 164 b 40 433 -29 289 -6 365 b 256 542 89 506 160 542 b 176 465 226 518 200 492 l 182 464 b 282 539 215 496 249 521 b 378 507 325 531 357 519 b 353 475 361 501 353 490 b 363 453 353 467 356 460 b 385 443 368 446 375 443 b 407 453 393 443 400 446 b 415 475 413 460 415 467 b 408 494 415 483 413 490 b 379 518 407 499 397 506 b 297 546 361 529 333 539 b 419 572 338 564 379 572 b 533 557 457 572 496 567 b 650 519 571 546 610 533 b 804 474 700 501 751 486 b 606 231 739 386 674 306 b 394 47 538 156 468 94 b 157 -24 321 0 242 -24 z m 956 499 l 938 499 l 986 563 b 1213 846 1063 667 1138 761 b 1446 1031 1286 931 1364 992 b 1496 1047 1471 1042 1488 1047 b 1115 538 1389 997 1261 828 b 956 499 1058 511 1004 499 z m 1436 1131 b 1439 1135 1438 1132 1439 1133 b 1432 1203 1435 1147 1432 1171 b 1435 1264 1432 1235 1433 1254 b 1411 1272 1433 1269 1426 1272 b 1297 1192 1382 1238 1343 1211 b 1296 1188 1296 1190 1296 1189 b 1300 1183 1296 1185 1297 1183 l 1303 1183 b 1397 1233 1332 1194 1364 1211 b 1436 1131 1397 1179 1410 1146 z "},"":{"ha":1285,"x_min":0,"x_max":0,"o":"m 979 -425 b 1010 -393 996 -424 1010 -410 b 978 -361 1010 -375 996 -361 b 946 -393 960 -361 946 -375 b 954 -415 946 -401 950 -410 b 876 -314 924 -410 876 -390 b 1550 1053 876 -197 1363 947 l 1582 1053 l 1583 1056 b 1181 1114 1583 1072 1350 1114 b 654 774 775 1114 654 918 b 756 621 654 650 756 621 b 717 732 756 621 717 658 b 1225 1097 717 983 988 1097 b 1417 1057 1292 1097 1357 1085 b 838 519 1199 997 1019 757 b 583 618 751 547 669 596 b 494 629 553 626 522 629 b 268 550 407 629 331 596 b 225 553 254 551 240 553 b -104 225 13 553 -104 383 b 182 -47 -104 85 -14 -47 b 908 463 485 -47 707 200 l 922 463 b 1051 483 964 463 1006 468 b 1097 503 1058 485 1078 493 b 808 -206 938 183 808 -164 b 974 -425 808 -314 878 -419 z m 157 -24 b -31 204 26 -24 -31 83 l -31 221 b 228 542 -24 372 72 539 l 256 542 b 176 465 226 518 199 492 l 182 464 b 282 539 215 497 249 521 b 378 507 326 532 357 518 b 353 475 363 503 353 490 b 385 443 353 458 367 443 b 415 475 401 443 415 458 b 408 494 415 483 413 489 b 297 546 406 500 369 532 b 419 572 339 565 379 572 b 536 556 458 572 497 565 b 804 474 619 535 707 494 b 157 -24 608 218 408 -24 z m 956 499 l 938 499 b 1446 1031 1108 724 1265 949 b 1496 1047 1464 1039 1481 1043 b 1115 538 1381 1000 1240 781 b 956 499 1057 508 1004 499 z m 1381 1146 b 1469 1199 1444 1146 1468 1197 l 1469 1200 b 1461 1206 1469 1201 1468 1204 l 1458 1206 b 1449 1200 1453 1206 1449 1203 b 1400 1178 1449 1199 1444 1178 b 1340 1201 1375 1178 1358 1189 b 1254 1231 1319 1215 1296 1231 b 1115 1174 1178 1231 1117 1176 l 1114 1172 b 1119 1165 1114 1169 1115 1167 l 1125 1164 b 1139 1169 1129 1164 1135 1165 b 1218 1199 1139 1169 1175 1199 b 1274 1178 1238 1199 1254 1189 b 1381 1146 1301 1164 1333 1146 z "},"":{"ha":1285,"x_min":0,"x_max":0,"o":"m 979 -425 b 1010 -393 996 -424 1010 -410 b 978 -361 1010 -375 996 -361 b 946 -393 960 -361 946 -375 b 954 -415 946 -401 950 -410 b 876 -314 924 -410 876 -390 b 1550 1053 876 -197 1363 947 l 1582 1053 l 1583 1056 b 1181 1114 1583 1072 1350 1114 b 654 774 775 1114 654 918 b 756 621 654 650 756 621 b 717 732 756 621 717 658 b 1225 1097 717 983 988 1097 b 1417 1057 1292 1097 1357 1085 b 838 519 1199 997 1019 757 b 583 618 751 547 669 596 b 494 629 553 626 522 629 b 268 550 407 629 331 596 b 225 553 254 551 240 553 b -104 225 13 553 -104 383 b 182 -47 -104 85 -14 -47 b 908 463 485 -47 707 200 l 922 463 b 1051 483 964 463 1006 468 b 1097 503 1058 485 1078 493 b 808 -206 938 183 808 -164 b 974 -425 808 -314 878 -419 z m 157 -24 b -31 204 26 -24 -31 83 l -31 221 b 228 542 -24 372 72 539 l 256 542 b 176 465 226 518 199 492 l 182 464 b 282 539 215 497 249 521 b 378 507 326 532 357 518 b 353 475 363 503 353 490 b 385 443 353 458 367 443 b 415 475 401 443 415 458 b 408 494 415 483 413 489 b 297 546 406 500 369 532 b 419 572 339 565 379 572 b 536 556 458 572 497 565 b 804 474 619 535 707 494 b 157 -24 608 218 408 -24 z m 956 499 l 938 499 b 1446 1031 1108 724 1265 949 b 1496 1047 1464 1039 1481 1043 b 1115 538 1381 1000 1240 781 b 956 499 1057 508 1004 499 z m 1344 1243 b 1306 1204 1324 1243 1306 1226 b 1344 1165 1306 1183 1324 1165 b 1383 1204 1367 1165 1383 1183 b 1344 1243 1383 1226 1367 1243 z m 1219 1243 b 1181 1204 1199 1243 1181 1226 b 1219 1165 1181 1183 1199 1165 b 1258 1204 1240 1165 1258 1183 b 1219 1243 1258 1226 1240 1243 z "},"":{"ha":1285,"x_min":0,"x_max":0,"o":"m 979 -425 b 1010 -393 996 -424 1010 -410 b 978 -361 1010 -375 996 -361 b 946 -393 960 -361 946 -375 b 954 -415 946 -401 950 -410 b 876 -314 924 -410 876 -390 b 1550 1053 876 -197 1363 947 l 1582 1053 l 1583 1056 b 1181 1114 1583 1072 1350 1114 b 654 774 775 1114 654 918 b 756 621 654 650 756 621 b 717 732 756 621 717 658 b 1225 1097 717 983 988 1097 b 1417 1057 1292 1097 1357 1085 b 838 519 1199 997 1019 757 b 583 618 751 547 669 596 b 494 629 553 626 522 629 b 268 550 407 629 331 596 b 225 553 254 551 240 553 b -104 225 13 553 -104 383 b 182 -47 -104 85 -14 -47 b 908 463 485 -47 707 200 l 922 463 b 1051 483 964 463 1006 468 b 1097 503 1058 485 1078 493 b 808 -206 938 183 808 -164 b 974 -425 808 -314 878 -419 z m 157 -24 b -31 204 26 -24 -31 83 l -31 221 b 228 542 -24 372 72 539 l 256 542 b 176 465 226 518 199 492 l 182 464 b 282 539 215 497 249 521 b 378 507 326 532 357 518 b 353 475 363 503 353 490 b 385 443 353 458 367 443 b 415 475 401 443 415 458 b 408 494 415 483 413 489 b 297 546 406 500 369 532 b 419 572 339 565 379 572 b 536 556 458 572 497 565 b 804 474 619 535 707 494 b 157 -24 608 218 408 -24 z m 956 499 l 938 499 b 1446 1031 1108 724 1265 949 b 1496 1047 1464 1039 1481 1043 b 1115 538 1381 1000 1240 781 b 956 499 1057 508 1004 499 z m 1338 1246 b 1281 1189 1306 1246 1281 1221 b 1338 1133 1281 1158 1306 1133 b 1394 1189 1368 1133 1394 1158 b 1338 1246 1394 1221 1368 1246 z m 1338 1169 b 1317 1189 1326 1169 1317 1178 b 1338 1210 1317 1201 1326 1210 b 1358 1189 1349 1210 1358 1200 b 1338 1169 1358 1178 1349 1169 z "},"":{"ha":2039,"x_min":0,"x_max":0,"o":"m 951 -431 b 982 -399 968 -429 982 -415 b 950 -367 982 -381 968 -367 b 918 -399 932 -367 918 -381 b 926 -421 918 -407 922 -414 b 849 -319 896 -415 849 -396 b 1032 183 849 -272 926 -60 l 1032 181 b 1300 -68 1032 46 1122 -65 l 1308 -68 b 1944 483 1633 -68 1929 281 l 1944 499 b 1792 635 1944 593 1876 635 b 1493 367 1661 635 1493 533 l 1494 339 b 1633 204 1506 235 1601 204 l 1636 204 b 1535 378 1567 240 1535 308 b 1779 613 1535 493 1621 613 l 1810 611 b 1915 483 1879 604 1915 553 l 1915 468 b 1376 -26 1900 286 1633 -26 l 1375 -26 b 1153 178 1233 -26 1153 64 l 1153 194 b 1481 556 1163 315 1243 556 l 1482 556 b 1564 592 1483 556 1524 592 l 1569 592 b 1461 757 1569 610 1461 618 l 1464 796 b 1794 1138 1496 1029 1657 1138 b 2007 926 1939 1136 2007 1031 b 1825 728 2007 826 1944 728 b 1764 740 1794 728 1776 731 b 1790 772 1778 743 1790 756 b 1758 803 1790 789 1775 803 b 1726 769 1738 803 1726 788 b 1819 714 1726 717 1804 714 b 2078 940 1988 714 2078 828 b 1807 1161 2078 1051 1992 1161 b 1522 1065 1714 1161 1610 1126 b 1153 1108 1453 1083 1283 1108 b 626 768 747 1108 626 914 b 728 617 626 644 728 617 b 689 728 728 617 689 653 b 1197 1093 689 979 960 1093 b 1389 1053 1264 1093 1329 1079 b 810 514 1171 992 992 751 b 556 613 724 542 642 590 b 467 624 525 621 494 624 b 240 544 379 624 303 590 b 197 547 226 547 213 547 b -132 219 -15 547 -132 378 b 154 -51 -132 79 -42 -51 b 881 457 457 -51 679 196 l 892 457 b 1024 478 935 457 978 464 b 1069 497 1031 479 1050 488 b 781 -211 910 178 781 -168 b 946 -429 781 -318 850 -425 z m 129 -29 b -58 199 -1 -29 -58 78 l -58 215 b 200 536 -51 367 44 533 l 228 536 b 149 460 199 513 171 486 l 154 458 b 254 533 188 492 221 517 b 350 501 299 528 329 513 b 325 471 335 499 325 486 b 357 439 325 453 339 439 b 388 471 374 439 388 453 b 381 490 388 478 385 485 b 269 540 378 494 342 526 b 392 567 311 560 351 567 b 508 550 431 567 469 560 b 776 469 592 529 679 489 b 129 -29 581 213 381 -29 z m 933 493 l 910 494 b 1418 1025 1081 718 1238 944 b 1468 1042 1436 1033 1453 1039 b 1088 532 1353 994 1213 775 b 933 493 1032 504 981 493 z m 1153 450 b 1361 844 1222 594 1294 735 b 1349 778 1354 822 1350 800 l 1349 767 b 1483 604 1349 711 1376 626 l 1479 604 b 1153 450 1342 604 1231 535 z "},"":{"ha":840,"x_min":0,"x_max":0,"o":"m 546 654 b 297 721 428 654 349 681 b 874 1108 447 933 661 1108 b 1039 961 981 1108 1039 1043 l 1038 938 b 546 654 1021 808 865 654 z m 219 -51 l 165 -140 l 164 -146 l 165 -153 b 171 -158 167 -156 168 -157 b 178 -161 172 -160 175 -161 l 182 -161 b 203 -151 189 -157 196 -154 b 226 -146 211 -149 219 -147 b 271 -139 240 -142 256 -140 l 293 -139 b 313 -142 300 -139 307 -140 l 318 -144 l 322 -147 b 329 -160 326 -151 328 -156 l 331 -168 l 331 -172 b 326 -187 331 -178 329 -183 b 299 -210 321 -199 311 -206 b 290 -211 296 -211 293 -211 b 281 -212 286 -212 283 -212 b 261 -208 274 -212 268 -211 b 228 -183 249 -201 238 -193 l 228 -182 b 218 -178 225 -179 222 -178 b 208 -182 214 -178 211 -179 b 204 -192 206 -185 204 -187 b 208 -201 204 -196 206 -199 b 251 -231 221 -214 235 -224 b 289 -239 264 -236 276 -239 b 306 -237 294 -239 300 -239 b 354 -208 325 -233 342 -224 b 369 -181 361 -200 367 -190 b 371 -165 371 -176 371 -171 b 368 -147 371 -160 369 -154 b 350 -119 364 -136 358 -126 l 344 -114 b 336 -108 342 -111 339 -110 b 325 -106 332 -107 329 -106 b 319 -104 324 -104 321 -104 l 306 -103 l 292 -104 b 267 -108 283 -104 275 -106 b 219 -122 250 -112 235 -117 l 207 -126 l 250 -54 l 271 -54 b 471 -10 344 -54 411 -39 b 626 103 531 19 583 57 b 725 247 669 149 701 196 b 760 385 749 297 760 343 b 731 475 760 421 750 451 b 639 510 711 499 681 510 b 500 475 601 510 556 499 b 476 444 485 471 476 460 b 486 422 476 436 479 429 b 508 413 493 415 500 413 b 532 422 518 413 525 415 b 540 444 538 429 540 436 b 524 472 540 457 535 467 b 633 497 568 489 604 497 b 715 467 671 497 697 488 b 740 386 732 446 740 418 b 707 257 740 347 729 304 b 614 122 685 210 654 165 b 469 15 574 79 525 43 b 283 -28 413 -14 351 -28 b 142 25 224 -28 176 -10 b 88 185 106 60 88 113 b 283 701 88 329 153 501 b 390 653 311 681 347 665 b 547 635 433 640 485 635 b 825 682 657 635 750 650 b 997 800 899 714 957 753 b 1065 940 1038 846 1060 893 b 1067 967 1067 950 1067 958 b 1018 1081 1067 1011 1050 1049 b 875 1131 986 1111 938 1128 l 857 1131 b 506 1042 731 1131 613 1101 b 226 813 399 982 306 906 b 193 886 211 833 200 858 b 183 968 186 913 183 940 b 197 1069 183 1007 188 1040 b 224 1056 204 1060 213 1056 b 247 1065 233 1056 240 1058 b 256 1088 253 1072 256 1079 b 247 1111 256 1097 253 1104 b 224 1119 240 1117 233 1119 b 182 1072 208 1119 194 1104 b 164 961 169 1040 164 1004 b 175 875 164 932 168 904 b 211 793 182 846 194 818 b 47 518 140 706 86 614 b -11 244 8 421 -11 329 b 19 92 -11 188 -1 138 b 111 -15 39 46 69 11 b 219 -51 142 -33 176 -46 z "},"":{"ha":854,"x_min":0,"x_max":0,"o":"m 174 -140 b 814 413 503 -140 797 210 l 814 428 b 661 564 814 522 746 564 b 361 293 529 564 361 461 l 363 267 b 500 133 374 165 465 133 l 504 133 b 403 307 436 169 403 236 b 649 542 403 421 489 542 l 679 540 b 785 415 749 533 785 485 l 783 397 b 244 -97 769 214 503 -97 l 243 -97 b 21 103 104 -97 21 -8 l 22 122 b 350 485 32 243 111 485 l 351 485 b 432 521 353 485 392 521 l 439 521 b 331 685 439 539 331 547 l 333 725 b 664 1067 365 958 525 1067 b 876 856 808 1065 876 960 b 694 657 876 756 814 657 b 632 669 664 657 646 660 b 658 700 647 672 658 685 b 628 732 658 718 644 732 b 596 697 607 732 596 717 b 688 642 596 644 674 642 b 947 869 857 642 947 756 b 676 1090 947 979 861 1090 b 218 706 483 1090 236 940 l 218 694 b 353 533 218 640 246 556 l 350 533 b -97 132 86 533 -86 282 l -99 106 b 168 -140 -99 -28 -7 -137 z m 751 1144 b 764 1151 756 1144 760 1147 b 769 1164 768 1156 769 1160 b 713 1261 769 1169 750 1201 b 689 1272 707 1268 699 1272 b 668 1263 679 1272 672 1269 b 660 1243 663 1256 660 1250 b 667 1225 660 1236 663 1231 b 751 1144 717 1171 746 1144 z "},"":{"ha":854,"x_min":0,"x_max":0,"o":"m 174 -140 b 814 413 503 -140 797 210 l 814 428 b 661 564 814 522 746 564 b 361 293 529 564 361 461 l 363 267 b 500 133 374 165 465 133 l 504 133 b 403 307 436 169 403 236 b 649 542 403 421 489 542 l 679 540 b 785 415 749 533 785 485 l 783 397 b 244 -97 769 214 503 -97 l 243 -97 b 21 103 104 -97 21 -8 l 22 122 b 350 485 32 243 111 485 l 351 485 b 432 521 353 485 392 521 l 439 521 b 331 685 439 539 331 547 l 333 725 b 664 1067 365 958 525 1067 b 876 856 808 1065 876 960 b 694 657 876 756 814 657 b 632 669 664 657 646 660 b 658 700 647 672 658 685 b 628 732 658 718 644 732 b 596 697 607 732 596 717 b 688 642 596 644 674 642 b 947 869 857 642 947 756 b 676 1090 947 979 861 1090 b 218 706 483 1090 236 940 l 218 694 b 353 533 218 640 246 556 l 350 533 b -97 132 86 533 -86 282 l -99 106 b 168 -140 -99 -28 -7 -137 z m 703 1144 b 719 1153 708 1144 714 1147 l 788 1225 b 794 1243 792 1231 794 1236 b 788 1263 794 1250 792 1256 b 767 1272 783 1269 776 1272 b 742 1261 757 1272 749 1268 b 685 1164 704 1201 685 1169 b 692 1151 685 1160 688 1156 b 703 1144 696 1147 699 1144 z "},"":{"ha":854,"x_min":0,"x_max":0,"o":"m 174 -140 b 814 413 503 -140 797 210 l 814 428 b 661 564 814 522 746 564 b 361 293 529 564 361 461 l 363 267 b 500 133 374 165 465 133 l 504 133 b 403 307 436 169 403 236 b 649 542 403 421 489 542 l 679 540 b 785 415 749 533 785 485 l 783 397 b 244 -97 769 214 503 -97 l 243 -97 b 21 103 104 -97 21 -8 l 22 122 b 350 485 32 243 111 485 l 351 485 b 432 521 353 485 392 521 l 439 521 b 331 685 439 539 331 547 l 333 725 b 664 1067 365 958 525 1067 b 876 856 808 1065 876 960 b 694 657 876 756 814 657 b 632 669 664 657 646 660 b 658 700 647 672 658 685 b 628 732 658 718 644 732 b 596 697 607 732 596 717 b 688 642 596 644 674 642 b 947 869 857 642 947 756 b 676 1090 947 979 861 1090 b 218 706 483 1090 236 940 l 218 694 b 353 533 218 640 246 556 l 350 533 b -97 132 86 533 -86 282 l -99 106 b 168 -140 -99 -28 -7 -137 z m 844 1090 b 847 1094 846 1092 847 1093 b 840 1163 843 1107 840 1131 b 843 1224 840 1194 842 1214 b 819 1232 842 1229 835 1232 b 706 1151 790 1197 751 1171 b 704 1147 704 1150 704 1149 b 708 1143 704 1144 706 1143 l 711 1143 b 806 1193 740 1154 772 1171 b 844 1090 806 1139 818 1106 z "},"":{"ha":854,"x_min":0,"x_max":0,"o":"m 174 -140 b 814 413 503 -140 797 210 l 814 428 b 661 564 814 522 746 564 b 361 293 529 564 361 461 l 363 267 b 500 133 374 165 465 133 l 504 133 b 403 307 436 169 403 236 b 649 542 403 421 489 542 l 679 540 b 785 415 749 533 785 485 l 783 397 b 244 -97 769 214 503 -97 l 243 -97 b 21 103 104 -97 21 -8 l 22 122 b 350 485 32 243 111 485 l 351 485 b 432 521 353 485 392 521 l 439 521 b 331 685 439 539 331 547 l 333 725 b 664 1067 365 958 525 1067 b 876 856 808 1065 876 960 b 694 657 876 756 814 657 b 632 669 664 657 646 660 b 658 700 647 672 658 685 b 628 732 658 718 644 732 b 596 697 607 732 596 717 b 688 642 596 644 674 642 b 947 869 857 642 947 756 b 676 1090 947 979 861 1090 b 218 706 483 1090 236 940 l 218 694 b 353 533 218 640 246 556 l 350 533 b -97 132 86 533 -86 282 l -99 106 b 168 -140 -99 -28 -7 -137 z m 806 1194 b 767 1156 785 1194 767 1178 b 806 1117 767 1135 785 1117 b 844 1156 828 1117 844 1135 b 806 1194 844 1178 828 1194 z m 681 1194 b 642 1156 660 1194 642 1178 b 681 1117 642 1135 660 1117 b 719 1156 701 1117 719 1135 b 681 1194 719 1178 701 1194 z "},"":{"ha":565,"x_min":0,"x_max":0,"o":"m 236 1 b 394 140 236 1 382 1 l 394 143 b 361 169 394 160 378 169 b 328 140 346 169 331 161 b 356 96 328 107 356 110 b 149 33 356 60 288 33 l 31 33 b 951 1175 461 188 638 861 b 1193 1296 1028 1251 1106 1296 l 1229 1293 b 1218 1269 1222 1288 1218 1279 b 1249 1238 1218 1251 1232 1238 b 1279 1269 1265 1238 1279 1251 b 1260 1297 1279 1282 1272 1293 b 1171 1313 1231 1308 1200 1313 b 826 1132 1044 1313 932 1242 l 800 1132 b 176 725 519 1132 199 982 l 175 703 b 319 514 175 592 249 514 l 324 514 b 356 546 342 515 356 529 b 324 578 356 564 342 578 b 292 546 306 578 292 564 b 244 676 289 546 244 597 l 246 697 b 808 1113 271 960 565 1107 b -142 33 476 753 215 33 l -142 1 z m 815 1189 b 828 1196 819 1189 824 1192 b 833 1208 832 1200 833 1204 b 776 1306 833 1214 814 1246 b 753 1317 771 1313 763 1317 b 732 1307 743 1317 736 1314 b 724 1288 726 1300 724 1294 b 731 1269 724 1281 726 1275 b 815 1189 781 1215 810 1189 z "},"":{"ha":565,"x_min":0,"x_max":0,"o":"m 236 1 b 394 140 236 1 382 1 l 394 143 b 361 169 394 160 378 169 b 328 140 346 169 331 161 b 356 96 328 107 356 110 b 149 33 356 60 288 33 l 31 33 b 951 1175 461 188 638 861 b 1193 1296 1028 1251 1106 1296 l 1229 1293 b 1218 1269 1222 1288 1218 1279 b 1249 1238 1218 1251 1232 1238 b 1279 1269 1265 1238 1279 1251 b 1260 1297 1279 1282 1272 1293 b 1171 1313 1231 1308 1200 1313 b 826 1132 1044 1313 932 1242 l 800 1132 b 176 725 519 1132 199 982 l 175 703 b 319 514 175 592 249 514 l 324 514 b 356 546 342 515 356 529 b 324 578 356 564 342 578 b 292 546 306 578 292 564 b 244 676 289 546 244 597 l 246 697 b 808 1113 271 960 565 1107 b -142 33 476 753 215 33 l -142 1 z m 781 1161 b 797 1169 786 1161 792 1164 l 865 1242 b 872 1260 869 1247 872 1253 b 865 1279 872 1267 869 1272 b 844 1289 861 1286 854 1289 b 819 1278 835 1289 826 1285 b 763 1181 782 1218 763 1186 b 769 1168 763 1176 765 1172 b 781 1161 774 1164 776 1161 z "},"":{"ha":565,"x_min":0,"x_max":0,"o":"m 236 1 b 394 140 236 1 382 1 l 394 143 b 361 169 394 160 378 169 b 328 140 346 169 331 161 b 356 96 328 107 356 110 b 149 33 356 60 288 33 l 31 33 b 951 1175 461 188 638 861 b 1193 1296 1028 1251 1106 1296 l 1229 1293 b 1218 1269 1222 1288 1218 1279 b 1249 1238 1218 1251 1232 1238 b 1279 1269 1265 1238 1279 1251 b 1260 1297 1279 1282 1272 1293 b 1171 1313 1231 1308 1200 1313 b 826 1132 1044 1313 932 1242 l 800 1132 b 176 725 519 1132 199 982 l 175 703 b 319 514 175 592 249 514 l 324 514 b 356 546 342 515 356 529 b 324 578 356 564 342 578 b 292 546 306 578 292 564 b 244 676 289 546 244 597 l 246 697 b 808 1113 271 960 565 1107 b -142 33 476 753 215 33 l -142 1 z m 811 1188 b 814 1192 813 1189 814 1190 b 807 1260 810 1204 807 1228 b 810 1321 807 1292 808 1311 b 786 1329 808 1326 801 1329 b 672 1249 757 1294 718 1268 b 671 1244 671 1247 671 1246 b 675 1240 671 1242 672 1240 l 678 1240 b 772 1290 707 1251 739 1268 b 811 1188 772 1236 785 1203 z "},"":{"ha":565,"x_min":0,"x_max":0,"o":"m 236 1 b 394 140 236 1 382 1 l 394 143 b 361 169 394 160 378 169 b 328 140 346 169 331 161 b 356 96 328 107 356 110 b 149 33 356 60 288 33 l 31 33 b 951 1175 461 188 638 861 b 1193 1296 1028 1251 1106 1296 l 1229 1293 b 1218 1269 1222 1288 1218 1279 b 1249 1238 1218 1251 1232 1238 b 1279 1269 1265 1238 1279 1251 b 1260 1297 1279 1282 1272 1293 b 1171 1313 1231 1308 1200 1313 b 826 1132 1044 1313 932 1242 l 800 1132 b 176 725 519 1132 199 982 l 175 703 b 319 514 175 592 249 514 l 324 514 b 356 546 342 515 356 529 b 324 578 356 564 342 578 b 292 546 306 578 292 564 b 244 676 289 546 244 597 l 246 697 b 808 1113 271 960 565 1107 b -142 33 476 753 215 33 l -142 1 z m 831 1274 b 792 1235 810 1274 792 1257 b 831 1196 792 1214 810 1196 b 869 1235 853 1196 869 1214 b 831 1274 869 1257 853 1274 z m 706 1274 b 667 1235 685 1274 667 1257 b 706 1196 667 1214 685 1196 b 744 1235 726 1196 744 1214 b 706 1274 744 1257 726 1274 z "},"":{"ha":1542,"x_min":0,"x_max":0,"o":"m 917 526 l 957 525 b 1083 515 1003 524 1044 521 l 1086 515 b 1099 525 1090 517 1094 519 b 1103 546 1101 531 1103 538 l 1101 549 b 1100 563 1101 553 1101 558 b 1094 572 1099 567 1097 571 b 1083 578 1090 576 1088 578 b 957 567 1044 574 1003 569 l 940 567 b 990 653 957 594 974 624 b 1239 1040 1069 796 1151 925 b 1386 914 1304 1011 1354 968 b 1433 726 1418 858 1433 796 b 1361 453 1433 633 1410 542 b 1174 214 1313 364 1250 285 b 921 44 1097 143 1013 86 b 653 -19 829 1 740 -19 b 467 15 593 -19 531 -8 b 757 282 576 78 674 167 b 917 526 813 360 865 442 z m 814 567 b 768 568 799 567 783 568 b 718 569 753 568 736 568 b 704 571 714 571 708 571 b 578 581 665 572 624 575 l 575 581 b 563 571 569 579 565 576 b 557 547 558 564 557 557 l 557 544 b 560 529 557 539 558 533 b 567 517 561 524 564 519 b 576 511 571 513 574 511 l 578 511 b 683 521 615 515 651 519 b 704 522 690 521 697 521 b 718 524 708 522 714 522 b 768 525 736 525 753 525 b 788 526 775 525 781 525 b 767 493 781 515 774 504 b 581 211 701 386 639 293 b 422 40 522 129 469 72 l 418 39 b 303 -17 378 13 339 -6 b 201 -33 265 -28 232 -33 b 64 8 147 -33 101 -19 b -22 115 26 36 -3 72 b -51 250 -42 158 -51 204 b -6 410 -51 307 -36 361 b 133 511 24 458 71 492 b 128 493 129 507 128 500 b 138 471 128 483 131 476 b 160 461 143 464 150 461 b 183 471 169 461 176 464 b 192 493 189 476 192 483 b 183 515 192 501 189 508 b 160 524 176 521 169 524 l 150 522 b -40 400 65 499 3 458 b -106 217 -83 342 -106 281 b -32 36 -106 149 -81 89 b 192 -50 17 -17 92 -46 l 208 -50 b 464 13 304 -50 389 -29 b 728 -47 543 -28 631 -47 b 1000 -1 817 -47 907 -32 b 1256 132 1093 29 1178 74 b 1444 343 1333 189 1396 260 b 1517 628 1493 426 1517 521 b 1443 907 1517 743 1492 836 b 1253 1057 1394 976 1331 1026 b 1313 1122 1272 1081 1292 1103 b 1431 1213 1350 1161 1390 1192 b 1557 1243 1471 1233 1513 1243 b 1590 1242 1568 1243 1579 1243 b 1579 1217 1583 1235 1579 1226 b 1589 1196 1579 1208 1582 1201 b 1610 1186 1594 1189 1601 1186 b 1632 1196 1618 1186 1625 1189 b 1640 1217 1638 1201 1640 1208 b 1621 1246 1640 1229 1633 1239 b 1532 1261 1592 1256 1561 1261 b 1361 1211 1475 1261 1418 1244 b 1193 1076 1304 1178 1247 1133 b 1019 1100 1138 1092 1079 1100 b 788 1065 942 1100 864 1089 b 576 968 710 1042 639 1010 b 424 821 513 926 461 878 b 365 632 385 764 365 700 b 403 514 365 589 378 549 b 525 436 428 478 468 451 b 457 521 493 463 469 492 b 438 611 444 550 438 581 b 465 733 438 640 447 682 b 561 889 483 785 515 836 b 746 1021 607 940 668 985 b 1036 1078 822 1057 919 1076 b 1178 1061 1089 1078 1136 1072 b 965 793 1104 982 1033 893 b 814 567 913 718 863 642 z "},"":{"ha":1378,"x_min":0,"x_max":0,"o":"m 192 -51 b 631 174 339 -51 485 24 b 814 396 696 242 757 315 l 985 676 b 1240 1060 1104 869 1190 997 b 1111 740 1172 951 1129 844 b 1078 433 1092 635 1081 532 b 1060 213 1075 357 1069 283 b 997 6 1050 140 1029 71 b 992 -8 993 1 992 -4 b 999 -24 992 -14 994 -19 b 1014 -31 1003 -28 1008 -31 b 1031 -18 1021 -31 1026 -26 l 1032 -22 b 1214 286 1094 79 1154 182 b 1451 681 1290 424 1369 556 b 1724 1001 1533 806 1624 913 b 2067 1179 1822 1090 1938 1150 b 2082 1199 2076 1185 2082 1192 b 2072 1219 2082 1206 2079 1213 b 2049 1229 2065 1226 2057 1229 b 1824 1136 1989 1228 1914 1196 b 1507 814 1733 1076 1628 968 b 1099 150 1386 658 1250 438 b 1174 444 1136 260 1161 357 b 1197 685 1186 532 1193 611 b 1219 890 1201 757 1208 825 b 1288 1085 1229 956 1253 1019 b 1272 1100 1288 1089 1282 1093 b 1172 1108 1263 1106 1229 1108 b 893 1061 1079 1108 986 1093 b 658 921 800 1029 721 982 b 546 676 589 854 551 774 b 568 579 546 638 553 606 b 618 518 582 553 599 533 b 674 489 638 504 657 494 l 676 489 b 661 514 674 492 669 499 b 618 660 632 560 618 610 l 618 674 b 722 901 626 764 661 839 b 943 1042 782 963 856 1010 b 1203 1089 1029 1074 1115 1089 b 1021 875 1158 1056 1097 985 b 736 457 901 707 807 567 b 533 161 651 325 583 226 b 386 18 486 99 438 51 b 201 -33 335 -17 272 -33 b 64 8 147 -33 101 -19 b -22 115 26 36 -3 72 b -51 250 -42 158 -51 203 b -6 408 -51 307 -36 360 b 133 510 24 457 71 490 b 128 492 129 506 128 499 b 138 469 128 482 131 475 b 160 460 143 463 150 460 b 182 469 168 460 175 463 b 192 492 189 475 192 482 b 182 514 192 500 189 507 b 160 524 175 521 168 524 l 153 522 b -40 400 68 499 3 458 b -106 217 -83 342 -106 281 b -72 88 -106 171 -94 128 b 26 -12 -51 47 -18 14 b 192 -51 69 -39 125 -51 z m 1578 1160 b 1667 1213 1642 1160 1665 1211 l 1667 1214 b 1658 1219 1667 1215 1665 1218 l 1656 1219 b 1646 1214 1650 1219 1646 1217 b 1597 1192 1646 1213 1642 1192 b 1538 1215 1572 1192 1556 1203 b 1451 1244 1517 1229 1493 1244 b 1313 1188 1375 1244 1314 1190 l 1311 1186 b 1317 1179 1311 1183 1313 1181 l 1322 1178 b 1336 1183 1326 1178 1332 1179 b 1415 1213 1336 1183 1372 1213 b 1471 1192 1435 1213 1451 1203 b 1578 1160 1499 1178 1531 1160 z "},"":{"ha":908,"x_min":0,"x_max":0,"o":"m 174 -56 b 240 -51 194 -56 217 -54 b 1000 806 597 -8 983 471 l 1000 831 b 689 1151 1000 1043 858 1143 l 667 1151 b 122 668 425 1151 138 971 l 121 644 b 133 564 121 614 125 586 b -89 196 18 489 -82 363 l -89 183 b 174 -56 -89 53 -11 -56 z m 174 -17 l 154 -17 b -37 164 19 -17 -37 61 l -37 171 b 151 521 -33 308 51 436 b 236 471 169 492 199 471 b 285 482 251 471 268 475 b 215 568 249 508 226 538 b 342 624 260 597 303 615 b 340 615 340 621 340 618 b 369 586 340 599 354 586 b 400 615 386 586 400 599 b 372 644 400 631 388 644 l 368 644 b 206 604 319 643 263 629 b 193 689 199 618 193 649 l 194 722 b 622 1111 214 979 438 1111 l 639 1111 b 875 889 769 1104 875 1031 l 875 883 b 494 153 869 669 699 349 b 174 -17 390 54 278 -12 z m 735 1168 b 747 1175 739 1168 743 1171 b 753 1188 751 1179 753 1183 b 696 1285 753 1193 733 1225 b 672 1296 690 1292 682 1296 b 651 1286 663 1296 656 1293 b 643 1267 646 1279 643 1274 b 650 1249 643 1260 646 1254 b 735 1168 700 1194 729 1168 z "},"":{"ha":908,"x_min":0,"x_max":0,"o":"m 174 -56 b 240 -51 194 -56 217 -54 b 1000 806 597 -8 983 471 l 1000 831 b 689 1151 1000 1043 858 1143 l 667 1151 b 122 668 425 1151 138 971 l 121 644 b 133 564 121 614 125 586 b -89 196 18 489 -82 363 l -89 183 b 174 -56 -89 53 -11 -56 z m 174 -17 l 154 -17 b -37 164 19 -17 -37 61 l -37 171 b 151 521 -33 308 51 436 b 236 471 169 492 199 471 b 285 482 251 471 268 475 b 215 568 249 508 226 538 b 342 624 260 597 303 615 b 340 615 340 621 340 618 b 369 586 340 599 354 586 b 400 615 386 586 400 599 b 372 644 400 631 388 644 l 368 644 b 206 604 319 643 263 629 b 193 689 199 618 193 649 l 194 722 b 622 1111 214 979 438 1111 l 639 1111 b 875 889 769 1104 875 1031 l 875 883 b 494 153 869 669 699 349 b 174 -17 390 54 278 -12 z m 665 1182 b 682 1190 671 1182 676 1185 l 750 1263 b 757 1281 754 1268 757 1274 b 750 1300 757 1288 754 1293 b 729 1310 746 1307 739 1310 b 704 1299 719 1310 711 1306 b 647 1201 667 1239 647 1207 b 654 1189 647 1197 650 1193 b 665 1182 658 1185 661 1182 z "},"":{"ha":908,"x_min":0,"x_max":0,"o":"m 174 -56 b 240 -51 194 -56 217 -54 b 1000 806 597 -8 983 471 l 1000 831 b 689 1151 1000 1043 858 1143 l 667 1151 b 122 668 425 1151 138 971 l 121 644 b 133 564 121 614 125 586 b -89 196 18 489 -82 363 l -89 183 b 174 -56 -89 53 -11 -56 z m 174 -17 l 154 -17 b -37 164 19 -17 -37 61 l -37 171 b 151 521 -33 308 51 436 b 236 471 169 492 199 471 b 285 482 251 471 268 475 b 215 568 249 508 226 538 b 342 624 260 597 303 615 b 340 615 340 621 340 618 b 369 586 340 599 354 586 b 400 615 386 586 400 599 b 372 644 400 631 388 644 l 368 644 b 206 604 319 643 263 629 b 193 689 199 618 193 649 l 194 722 b 622 1111 214 979 438 1111 l 639 1111 b 875 889 769 1104 875 1031 l 875 883 b 494 153 869 669 699 349 b 174 -17 390 54 278 -12 z m 792 1161 b 794 1165 793 1163 794 1164 b 788 1233 790 1178 788 1201 b 790 1294 788 1265 789 1285 b 767 1303 789 1300 782 1303 b 653 1222 738 1268 699 1242 b 651 1218 651 1221 651 1219 b 656 1214 651 1215 653 1214 l 658 1214 b 753 1264 688 1225 719 1242 b 792 1161 753 1210 765 1176 z "},"":{"ha":908,"x_min":0,"x_max":0,"o":"m 174 -56 b 240 -51 194 -56 217 -54 b 1000 806 597 -8 983 471 l 1000 831 b 689 1151 1000 1043 858 1143 l 667 1151 b 122 668 425 1151 138 971 l 121 644 b 133 564 121 614 125 586 b -89 196 18 489 -82 363 l -89 183 b 174 -56 -89 53 -11 -56 z m 174 -17 l 154 -17 b -37 164 19 -17 -37 61 l -37 171 b 151 521 -33 308 51 436 b 236 471 169 492 199 471 b 285 482 251 471 268 475 b 215 568 249 508 226 538 b 342 624 260 597 303 615 b 340 615 340 621 340 618 b 369 586 340 599 354 586 b 400 615 386 586 400 599 b 372 644 400 631 388 644 l 368 644 b 206 604 319 643 263 629 b 193 689 199 618 193 649 l 194 722 b 622 1111 214 979 438 1111 l 639 1111 b 875 889 769 1104 875 1031 l 875 883 b 494 153 869 669 699 349 b 174 -17 390 54 278 -12 z m 786 1186 b 875 1239 850 1186 874 1238 l 875 1240 b 867 1246 875 1242 874 1244 l 864 1246 b 854 1240 858 1246 854 1243 b 806 1218 854 1239 850 1218 b 746 1242 781 1218 764 1229 b 660 1271 725 1256 701 1271 b 521 1214 583 1271 522 1217 l 519 1213 b 525 1206 519 1210 521 1207 l 531 1204 b 544 1210 535 1204 540 1206 b 624 1239 544 1210 581 1239 b 679 1218 643 1239 660 1229 b 786 1186 707 1204 739 1186 z "},"":{"ha":908,"x_min":0,"x_max":0,"o":"m 174 -56 b 240 -51 194 -56 217 -54 b 1000 806 597 -8 983 471 l 1000 831 b 689 1151 1000 1043 858 1143 l 667 1151 b 122 668 425 1151 138 971 l 121 644 b 133 564 121 614 125 586 b -89 196 18 489 -82 363 l -89 183 b 174 -56 -89 53 -11 -56 z m 174 -17 l 154 -17 b -37 164 19 -17 -37 61 l -37 171 b 151 521 -33 308 51 436 b 236 471 169 492 199 471 b 285 482 251 471 268 475 b 215 568 249 508 226 538 b 342 624 260 597 303 615 b 340 615 340 621 340 618 b 369 586 340 599 354 586 b 400 615 386 586 400 599 b 372 644 400 631 388 644 l 368 644 b 206 604 319 643 263 629 b 193 689 199 618 193 649 l 194 722 b 622 1111 214 979 438 1111 l 639 1111 b 875 889 769 1104 875 1031 l 875 883 b 494 153 869 669 699 349 b 174 -17 390 54 278 -12 z m 778 1269 b 739 1231 757 1269 739 1253 b 778 1192 739 1210 757 1192 b 817 1231 800 1192 817 1210 b 778 1269 817 1253 800 1269 z m 653 1269 b 614 1231 632 1269 614 1253 b 653 1192 614 1210 632 1192 b 692 1231 674 1192 692 1210 b 653 1269 692 1253 674 1269 z "},"":{"ha":554,"x_min":0,"x_max":0,"o":"m 97 146 b 110 150 103 146 107 147 b 194 229 136 176 163 200 b 276 297 226 256 251 278 l 357 232 b 444 154 383 210 415 183 l 447 153 l 457 150 b 479 163 465 150 474 154 b 483 178 482 168 483 174 l 483 183 b 476 194 482 188 479 192 b 379 260 442 217 407 240 b 332 294 361 274 346 283 l 301 317 l 331 340 l 376 375 b 471 443 404 396 436 421 b 474 446 471 444 472 444 b 479 460 476 449 479 454 b 471 478 479 465 476 472 b 451 488 465 483 458 488 b 439 482 447 488 442 486 b 353 403 410 454 379 426 l 276 336 l 194 401 b 107 478 161 428 133 451 l 104 479 l 96 482 b 75 471 89 482 81 478 b 71 456 72 465 71 461 l 71 451 b 79 442 72 447 75 443 b 175 375 110 422 139 401 b 253 317 204 354 229 335 l 175 254 b 81 186 140 228 111 206 l 81 185 l 78 183 b 74 171 75 181 74 176 b 81 154 74 165 76 158 l 85 150 b 97 146 89 147 93 146 z "},"":{"ha":783,"x_min":0,"x_max":0,"o":"m -33 -165 b -19 -162 -29 -165 -24 -165 b 7 -142 -8 -160 1 -151 l 38 -89 b 97 -94 56 -93 75 -94 b 150 -92 114 -94 131 -93 b 758 588 436 -57 744 321 l 758 606 b 642 824 758 714 713 785 l 667 857 l 668 857 l 671 863 b 675 883 674 869 675 876 l 675 890 b 657 910 672 899 667 906 b 643 913 653 913 649 913 b 629 910 639 913 635 913 b 607 890 619 907 613 900 l 582 849 b 508 860 558 854 535 858 l 489 860 b 56 478 297 860 68 717 l 56 463 b 65 396 56 438 58 414 b -112 104 -28 336 -107 236 l -112 93 b -31 -64 -112 28 -87 -31 l -61 -104 l -64 -110 b -71 -131 -68 -117 -71 -124 b -50 -162 -71 -143 -62 -156 b -33 -165 -44 -165 -40 -165 z m -14 -40 b -71 79 -53 -15 -71 28 l -71 85 b 79 361 -68 193 0 294 b 147 322 94 339 117 322 b 186 331 160 322 172 325 b 131 399 157 351 140 375 b 232 443 165 421 201 436 b 231 436 231 440 231 439 b 254 413 231 424 242 413 b 278 436 268 413 278 424 b 256 460 278 449 268 458 l 253 460 b 124 426 214 458 168 447 b 113 494 117 438 113 463 l 114 521 b 456 828 131 724 308 828 l 469 828 b 558 808 500 826 531 819 b 451 636 526 754 490 699 b 286 386 389 539 336 460 b 201 263 260 346 231 304 b 115 139 176 225 149 186 b -14 -40 78 85 33 22 z m 97 -64 l 83 -64 l 54 -62 b 163 114 92 0 129 60 b 243 239 193 163 218 203 b 324 365 269 282 299 325 b 492 614 372 439 425 518 b 610 781 533 675 571 728 b 675 649 649 750 675 707 l 675 644 b 369 68 671 475 533 222 b 97 -64 288 -10 181 -60 z "},"":{"ha":1554,"x_min":0,"x_max":0,"o":"m 872 -54 b 1979 1119 1446 -54 1624 764 b 2207 1240 2057 1197 2154 1240 b 2246 1213 2231 1240 2246 1232 b 2269 1179 2246 1189 2257 1179 b 2308 1215 2286 1179 2308 1197 b 2199 1257 2308 1236 2282 1257 b 1089 38 1761 1257 1344 197 l 1085 35 b 867 -36 1015 -8 939 -36 b 700 32 806 -36 749 -17 b 651 149 665 67 651 106 b 1007 924 651 361 997 667 l 1007 929 b 783 1082 1007 1026 911 1082 b 140 813 579 1082 292 963 b -83 349 -21 650 -83 486 b 163 8 -83 144 15 8 b 263 75 215 8 263 22 b 233 104 261 92 249 104 b 203 75 215 104 203 90 b 213 53 203 67 206 60 b 176 39 203 46 190 39 b 3 254 58 39 3 128 b 771 1046 3 750 518 1046 b 907 949 853 1046 907 1014 b 583 325 907 776 692 529 l 583 324 b 561 213 568 288 561 250 b 860 -54 561 75 665 -50 z m 1414 1144 b 1426 1151 1418 1144 1422 1147 b 1432 1164 1431 1156 1432 1160 b 1375 1261 1432 1169 1413 1201 b 1351 1272 1369 1268 1361 1272 b 1331 1263 1342 1272 1335 1269 b 1322 1243 1325 1256 1322 1250 b 1329 1225 1322 1236 1325 1231 b 1414 1144 1379 1171 1408 1144 z "},"":{"ha":1554,"x_min":0,"x_max":0,"o":"m 872 -54 b 1979 1119 1446 -54 1624 764 b 2207 1240 2057 1197 2154 1240 b 2246 1213 2231 1240 2246 1232 b 2269 1179 2246 1189 2257 1179 b 2308 1215 2286 1179 2308 1197 b 2199 1257 2308 1236 2282 1257 b 1089 38 1761 1257 1344 197 l 1085 35 b 867 -36 1015 -8 939 -36 b 700 32 806 -36 749 -17 b 651 149 665 67 651 106 b 1007 924 651 361 997 667 l 1007 929 b 783 1082 1007 1026 911 1082 b 140 813 579 1082 292 963 b -83 349 -21 650 -83 486 b 163 8 -83 144 15 8 b 263 75 215 8 263 22 b 233 104 261 92 249 104 b 203 75 215 104 203 90 b 213 53 203 67 206 60 b 176 39 203 46 190 39 b 3 254 58 39 3 128 b 771 1046 3 750 518 1046 b 907 949 853 1046 907 1014 b 583 325 907 776 692 529 l 583 324 b 561 213 568 288 561 250 b 860 -54 561 75 665 -50 z m 1363 1144 b 1379 1153 1368 1144 1374 1147 l 1447 1225 b 1454 1243 1451 1231 1454 1236 b 1447 1263 1454 1250 1451 1256 b 1426 1272 1443 1269 1436 1272 b 1401 1261 1417 1272 1408 1268 b 1344 1164 1364 1201 1344 1169 b 1351 1151 1344 1160 1347 1156 b 1363 1144 1356 1147 1358 1144 z "},"":{"ha":1554,"x_min":0,"x_max":0,"o":"m 872 -54 b 1979 1119 1446 -54 1624 764 b 2207 1240 2057 1197 2154 1240 b 2246 1213 2231 1240 2246 1232 b 2269 1179 2246 1189 2257 1179 b 2308 1215 2286 1179 2308 1197 b 2199 1257 2308 1236 2282 1257 b 1089 38 1761 1257 1344 197 l 1085 35 b 867 -36 1015 -8 939 -36 b 700 32 806 -36 749 -17 b 651 149 665 67 651 106 b 1007 924 651 361 997 667 l 1007 929 b 783 1082 1007 1026 911 1082 b 140 813 579 1082 292 963 b -83 349 -21 650 -83 486 b 163 8 -83 144 15 8 b 263 75 215 8 263 22 b 233 104 261 92 249 104 b 203 75 215 104 203 90 b 213 53 203 67 206 60 b 176 39 203 46 190 39 b 3 254 58 39 3 128 b 771 1046 3 750 518 1046 b 907 949 853 1046 907 1014 b 583 325 907 776 692 529 l 583 324 b 561 213 568 288 561 250 b 860 -54 561 75 665 -50 z m 1511 1131 b 1514 1135 1513 1132 1514 1133 b 1507 1203 1510 1147 1507 1171 b 1510 1264 1507 1235 1508 1254 b 1486 1272 1508 1269 1501 1272 b 1372 1192 1457 1238 1418 1211 b 1371 1188 1371 1190 1371 1189 b 1375 1183 1371 1185 1372 1183 l 1378 1183 b 1472 1233 1407 1194 1439 1211 b 1511 1131 1472 1179 1485 1146 z "},"":{"ha":1554,"x_min":0,"x_max":0,"o":"m 872 -54 b 1979 1119 1446 -54 1624 764 b 2207 1240 2057 1197 2154 1240 b 2246 1213 2231 1240 2246 1232 b 2269 1179 2246 1189 2257 1179 b 2308 1215 2286 1179 2308 1197 b 2199 1257 2308 1236 2282 1257 b 1089 38 1761 1257 1344 197 l 1085 35 b 867 -36 1015 -8 939 -36 b 700 32 806 -36 749 -17 b 651 149 665 67 651 106 b 1007 924 651 361 997 667 l 1007 929 b 783 1082 1007 1026 911 1082 b 140 813 579 1082 292 963 b -83 349 -21 650 -83 486 b 163 8 -83 144 15 8 b 263 75 215 8 263 22 b 233 104 261 92 249 104 b 203 75 215 104 203 90 b 213 53 203 67 206 60 b 176 39 203 46 190 39 b 3 254 58 39 3 128 b 771 1046 3 750 518 1046 b 907 949 853 1046 907 1014 b 583 325 907 776 692 529 l 583 324 b 561 213 568 288 561 250 b 860 -54 561 75 665 -50 z m 1457 1243 b 1418 1204 1436 1243 1418 1226 b 1457 1165 1418 1183 1436 1165 b 1496 1204 1479 1165 1496 1183 b 1457 1243 1496 1226 1479 1243 z m 1332 1243 b 1293 1204 1311 1243 1293 1226 b 1332 1165 1293 1183 1311 1165 b 1371 1204 1353 1165 1371 1183 b 1332 1243 1371 1226 1353 1243 z "},"":{"ha":1453,"x_min":0,"x_max":0,"o":"m 689 -49 b 1796 1125 1263 -49 1440 769 b 2039 1246 1872 1201 1951 1246 l 2075 1243 b 2063 1219 2068 1238 2063 1229 b 2093 1188 2063 1201 2076 1188 b 2125 1219 2111 1188 2125 1201 b 2106 1247 2125 1232 2117 1243 b 2015 1263 2075 1258 2046 1263 b 1435 775 1813 1263 1615 1035 b 708 229 1272 582 897 229 b 636 257 679 229 656 238 b 607 336 614 279 607 310 b 933 1033 607 481 925 842 l 933 1038 b 738 1171 933 1122 850 1171 b 181 936 561 1171 311 1068 b -14 535 40 796 -14 654 b 89 286 -14 429 28 340 b 208 238 129 251 172 238 b 293 285 257 238 293 261 b 258 319 293 304 278 319 b 225 285 240 319 225 304 b 229 269 225 279 226 274 b 213 265 224 267 218 265 b 61 451 108 265 61 343 b 726 1140 61 882 507 1140 b 844 1056 797 1140 844 1113 b 554 494 844 900 644 675 b 379 219 438 435 379 325 b 676 -49 379 83 476 -44 z m 685 -31 b 433 253 524 -31 433 111 b 549 482 433 342 469 431 b 511 351 526 435 511 390 b 679 194 511 288 558 194 b 1361 664 808 194 1025 301 b 906 43 1183 394 1026 118 l 901 40 b 685 -31 819 -10 747 -31 z m 1297 1144 b 1314 1153 1303 1144 1308 1147 l 1382 1225 b 1389 1243 1386 1231 1389 1236 b 1382 1263 1389 1250 1386 1256 b 1361 1272 1378 1269 1371 1272 b 1336 1261 1351 1272 1343 1268 b 1279 1164 1299 1201 1279 1169 b 1286 1151 1279 1160 1282 1156 b 1297 1144 1290 1147 1293 1144 z "},"":{"ha":1139,"x_min":0,"x_max":0,"o":"m 185 8 b 322 129 185 8 313 8 l 322 132 b 294 154 322 146 308 154 b 265 129 281 154 267 147 b 289 92 265 100 289 103 b 108 36 289 60 231 36 l 6 36 b 463 510 203 107 339 301 b 928 844 649 769 813 844 b 1069 711 1032 844 1069 788 b 936 375 1069 606 1000 461 b 622 167 829 228 711 167 b 479 313 538 167 479 222 b 493 394 479 338 483 365 b 524 381 500 386 511 381 b 567 424 547 381 567 400 b 524 467 567 447 547 467 b 482 432 503 467 486 451 b 456 311 464 390 456 350 b 628 132 456 215 513 140 l 646 132 b 1129 699 893 132 1129 479 b 1006 872 1129 786 1093 854 b 946 879 986 876 965 879 b 521 610 796 879 649 764 b 808 1032 613 768 701 924 b 1019 1138 874 1097 942 1138 l 1051 1135 b 1040 1114 1044 1131 1040 1122 b 1068 1086 1040 1099 1053 1086 b 1094 1114 1083 1086 1094 1099 b 1078 1139 1094 1125 1088 1135 b 1000 1153 1051 1147 1026 1153 b 786 1071 924 1153 853 1122 b -144 36 444 815 203 36 l -144 8 z "},"":{"ha":876,"x_min":0,"x_max":0,"o":"m 514 -31 b 746 74 635 -31 707 26 b 821 289 794 132 821 210 b 740 476 821 372 790 442 b 957 608 828 499 903 544 b 1040 817 1008 669 1038 743 l 1040 825 b 913 1036 1040 921 993 1000 b 814 1057 882 1050 849 1057 b 578 951 736 1057 653 1021 b 204 399 438 822 313 597 b -11 61 125 254 49 118 b -57 92 -18 79 -36 92 b -107 46 -85 92 -107 71 b -68 0 -107 24 -90 6 l -49 0 b 238 382 35 13 125 176 b 604 925 346 578 468 801 b 790 1024 675 990 739 1024 b 847 1006 811 1024 831 1018 b 913 832 890 975 913 908 b 879 672 913 781 901 724 b 690 526 860 625 804 526 b 649 531 678 526 664 528 b 621 533 639 533 629 533 b 585 521 604 533 592 529 b 578 501 582 517 578 510 b 586 475 578 494 581 485 b 611 460 590 467 599 464 b 706 322 681 439 706 383 b 694 249 706 297 701 272 b 449 17 660 128 558 17 b 408 22 435 17 422 18 b 290 153 342 46 300 90 l 289 175 b 347 329 289 221 306 281 b 488 394 374 360 418 394 b 590 339 539 394 572 376 l 589 339 b 543 308 569 339 550 328 b 540 292 542 303 540 297 b 544 274 540 286 542 279 b 572 249 550 263 560 253 b 589 246 578 247 583 246 b 636 276 610 246 629 258 b 639 294 639 282 639 289 l 639 299 b 488 432 632 382 576 432 b 313 347 422 432 358 400 b 250 185 272 300 250 242 b 253 149 250 172 251 160 b 514 -31 278 -18 460 -31 z "},"":{"ha":751,"x_min":0,"x_max":0,"o":"m 101 -3 b 342 129 211 -3 299 88 b 340 110 340 122 340 115 b 447 0 340 17 428 0 b 779 275 631 0 769 256 l 779 276 b 768 285 779 281 774 285 b 751 275 763 285 756 282 b 500 43 607 51 529 43 l 497 43 b 440 103 463 43 442 65 l 440 108 b 638 494 440 229 638 426 b 618 525 638 508 632 518 b 599 531 611 529 606 531 b 549 504 581 531 564 519 b 472 396 546 501 513 456 b 332 525 467 476 410 525 b -33 136 119 522 -33 292 b 67 0 -33 67 -3 13 b 101 -3 78 -1 90 -3 z m 135 43 l 132 43 b 78 113 94 44 78 72 b 322 460 78 226 203 442 b 349 461 332 461 340 461 b 431 382 407 461 431 428 b 407 288 431 353 422 321 l 390 257 b 135 43 333 163 231 43 z m 360 576 b 372 583 364 576 368 579 b 378 596 376 588 378 592 b 321 693 378 601 358 633 b 297 704 315 700 307 704 b 276 694 288 704 281 701 b 268 675 271 688 268 682 b 275 657 268 668 271 663 b 360 576 325 603 354 576 z "},"":{"ha":751,"x_min":0,"x_max":0,"o":"m 101 -3 b 342 129 211 -3 299 88 b 340 110 340 122 340 115 b 447 0 340 17 428 0 b 779 275 631 0 769 256 l 779 276 b 768 285 779 281 774 285 b 751 275 763 285 756 282 b 500 43 607 51 529 43 l 497 43 b 440 103 463 43 442 65 l 440 108 b 638 494 440 229 638 426 b 618 525 638 508 632 518 b 599 531 611 529 606 531 b 549 504 581 531 564 519 b 472 396 546 501 513 456 b 332 525 467 476 410 525 b -33 136 119 522 -33 292 b 67 0 -33 67 -3 13 b 101 -3 78 -1 90 -3 z m 135 43 l 132 43 b 78 113 94 44 78 72 b 322 460 78 226 203 442 b 349 461 332 461 340 461 b 431 382 407 461 431 428 b 407 288 431 353 422 321 l 390 257 b 135 43 333 163 231 43 z m 338 576 b 354 585 343 576 349 579 l 422 657 b 429 675 426 663 429 668 b 422 694 429 682 426 688 b 401 704 418 701 411 704 b 376 693 392 704 383 700 b 319 596 339 633 319 601 b 326 583 319 592 322 588 b 338 576 331 579 333 576 z "},"":{"ha":751,"x_min":0,"x_max":0,"o":"m 101 -3 b 342 129 211 -3 299 88 b 340 110 340 122 340 115 b 447 0 340 17 428 0 b 779 275 631 0 769 256 l 779 276 b 768 285 779 281 774 285 b 751 275 763 285 756 282 b 500 43 607 51 529 43 l 497 43 b 440 103 463 43 442 65 l 440 108 b 638 494 440 229 638 426 b 618 525 638 508 632 518 b 599 531 611 529 606 531 b 549 504 581 531 564 519 b 472 396 546 501 513 456 b 332 525 467 476 410 525 b -33 136 119 522 -33 292 b 67 0 -33 67 -3 13 b 101 -3 78 -1 90 -3 z m 135 43 l 132 43 b 78 113 94 44 78 72 b 322 460 78 226 203 442 b 349 461 332 461 340 461 b 431 382 407 461 431 428 b 407 288 431 353 422 321 l 390 257 b 135 43 333 163 231 43 z m 458 533 b 461 538 460 535 461 536 b 454 606 457 550 454 574 b 457 667 454 638 456 657 b 433 675 456 672 449 675 b 319 594 404 640 365 614 b 318 590 318 593 318 592 b 322 586 318 588 319 586 l 325 586 b 419 636 354 597 386 614 b 458 533 419 582 432 549 z "},"":{"ha":751,"x_min":0,"x_max":0,"o":"m 101 -3 b 342 129 211 -3 299 88 b 340 110 340 122 340 115 b 447 0 340 17 428 0 b 779 275 631 0 769 256 l 779 276 b 768 285 779 281 774 285 b 751 275 763 285 756 282 b 500 43 607 51 529 43 l 497 43 b 440 103 463 43 442 65 l 440 108 b 638 494 440 229 638 426 b 618 525 638 508 632 518 b 599 531 611 529 606 531 b 549 504 581 531 564 519 b 472 396 546 501 513 456 b 332 525 467 476 410 525 b -33 136 119 522 -33 292 b 67 0 -33 67 -3 13 b 101 -3 78 -1 90 -3 z m 135 43 l 132 43 b 78 113 94 44 78 72 b 322 460 78 226 203 442 b 349 461 332 461 340 461 b 431 382 407 461 431 428 b 407 288 431 353 422 321 l 390 257 b 135 43 333 163 231 43 z m 428 557 b 492 603 474 557 490 601 l 492 604 b 483 608 492 606 490 608 b 476 604 481 608 476 607 b 443 585 476 603 474 585 b 339 631 404 585 393 631 b 239 581 285 631 242 583 b 247 574 239 575 242 574 b 257 578 250 574 254 575 b 314 603 257 578 282 603 b 428 557 344 603 369 557 z "},"":{"ha":751,"x_min":0,"x_max":0,"o":"m 101 -3 b 342 129 211 -3 299 88 b 340 110 340 122 340 115 b 447 0 340 17 428 0 b 779 275 631 0 769 256 l 779 276 b 768 285 779 281 774 285 b 751 275 763 285 756 282 b 500 43 607 51 529 43 l 497 43 b 440 103 463 43 442 65 l 440 108 b 638 494 440 229 638 426 b 618 525 638 508 632 518 b 599 531 611 529 606 531 b 549 504 581 531 564 519 b 472 396 546 501 513 456 b 332 525 467 476 410 525 b -33 136 119 522 -33 292 b 67 0 -33 67 -3 13 b 101 -3 78 -1 90 -3 z m 135 43 l 132 43 b 78 113 94 44 78 72 b 322 460 78 226 203 442 b 349 461 332 461 340 461 b 431 382 407 461 431 428 b 407 288 431 353 422 321 l 390 257 b 135 43 333 163 231 43 z m 421 643 b 382 604 400 643 382 626 b 421 565 382 583 400 565 b 460 604 443 565 460 583 b 421 643 460 626 443 643 z m 296 643 b 257 604 275 643 257 626 b 296 565 257 583 275 565 b 335 604 317 565 335 583 b 296 643 335 626 317 643 z "},"":{"ha":751,"x_min":0,"x_max":0,"o":"m 101 -3 b 342 129 211 -3 299 88 b 340 110 340 122 340 115 b 447 0 340 17 428 0 b 779 275 631 0 769 256 l 779 276 b 768 285 779 281 774 285 b 751 275 763 285 756 282 b 500 43 607 51 529 43 l 497 43 b 440 103 463 43 442 65 l 440 108 b 638 494 440 229 638 426 b 618 525 638 508 632 518 b 599 531 611 529 606 531 b 549 504 581 531 564 519 b 472 396 546 501 513 456 b 332 525 467 476 410 525 b -33 136 119 522 -33 292 b 67 0 -33 67 -3 13 b 101 -3 78 -1 90 -3 z m 135 43 l 132 43 b 78 113 94 44 78 72 b 322 460 78 226 203 442 b 349 461 332 461 340 461 b 431 382 407 461 431 428 b 407 288 431 353 422 321 l 390 257 b 135 43 333 163 231 43 z m 378 653 b 321 596 346 653 321 628 b 378 540 321 565 346 540 b 435 596 408 540 435 565 b 378 653 435 628 408 653 z m 378 576 b 357 596 367 576 357 585 b 378 617 357 608 367 617 b 399 596 389 617 399 607 b 378 576 399 585 389 576 z "},"":{"ha":957,"x_min":0,"x_max":0,"o":"m 135 43 l 132 43 b 92 64 114 44 100 51 b 78 113 82 76 78 92 b 153 317 78 169 103 238 b 322 460 203 396 260 444 b 349 461 332 461 340 461 b 413 439 378 461 400 454 b 431 382 425 424 431 406 b 407 288 431 353 422 322 l 390 257 b 321 160 371 225 347 192 b 232 78 293 128 264 100 b 135 43 200 54 167 43 z m 613 290 b 522 310 583 290 554 297 b 656 435 560 364 604 406 b 774 476 706 463 744 476 b 815 465 792 476 806 472 b 831 438 825 457 831 447 b 803 383 831 425 821 407 b 725 319 783 360 757 338 b 613 290 692 300 654 290 z m 379 167 b 400 93 382 142 388 117 b 465 22 413 64 435 40 b 588 -6 496 4 536 -6 l 613 -4 b 842 90 710 6 786 36 b 983 275 896 144 943 206 l 983 276 b 981 283 983 279 982 282 b 972 285 978 285 975 285 b 954 275 965 285 960 282 b 907 207 950 265 933 242 b 799 103 879 172 843 138 b 646 36 753 68 703 46 l 626 35 b 522 76 586 35 551 49 b 478 181 493 104 478 139 b 483 222 478 189 479 203 b 504 272 486 242 493 258 b 611 243 532 254 568 244 b 719 268 646 243 682 251 b 819 349 757 283 790 311 b 850 431 840 378 850 404 b 819 501 850 458 840 482 b 733 529 799 519 769 529 b 636 507 703 529 669 522 b 618 525 632 514 626 521 b 599 531 613 529 606 531 b 549 504 581 531 564 522 b 525 472 547 503 539 492 b 472 396 510 451 493 426 b 429 492 468 436 454 468 b 332 525 403 514 371 525 b 143 458 261 522 197 500 b 14 304 89 415 46 364 b -33 136 -18 244 -33 188 b -10 47 -33 101 -25 72 b 67 0 6 22 32 7 b 101 -3 79 -1 90 -3 b 199 19 136 -3 169 4 b 278 71 228 35 254 51 b 379 167 292 82 325 114 z "},"":{"ha":546,"x_min":0,"x_max":0,"o":"m 111 6 l 71 -62 l 69 -68 l 71 -75 b 76 -81 72 -78 74 -79 b 83 -83 78 -82 81 -83 l 88 -83 b 108 -74 94 -79 101 -76 b 132 -68 117 -71 125 -69 b 176 -61 146 -64 161 -62 l 199 -61 b 218 -64 206 -61 213 -62 l 224 -67 l 228 -69 b 235 -82 232 -74 233 -78 l 236 -90 l 236 -94 b 232 -110 236 -100 235 -106 b 204 -132 226 -121 217 -128 b 196 -133 201 -133 199 -133 b 186 -135 192 -135 189 -135 b 167 -131 179 -135 174 -133 b 133 -106 154 -124 143 -115 l 133 -104 b 124 -100 131 -101 128 -100 b 114 -104 119 -100 117 -101 b 110 -114 111 -107 110 -110 b 114 -124 110 -118 111 -121 b 157 -153 126 -136 140 -146 b 194 -161 169 -158 182 -161 b 211 -160 200 -161 206 -161 b 260 -131 231 -156 247 -146 b 275 -103 267 -122 272 -112 b 276 -87 276 -99 276 -93 b 274 -69 276 -82 275 -76 b 256 -42 269 -58 264 -49 l 250 -36 b 242 -31 247 -33 244 -32 b 231 -28 238 -29 235 -28 b 225 -26 229 -26 226 -26 l 211 -25 l 197 -26 b 172 -31 189 -26 181 -28 b 125 -44 156 -35 140 -39 l 113 -49 l 142 1 l 157 1 b 210 6 172 1 190 3 b 439 106 310 24 386 57 b 575 275 490 153 536 210 l 575 276 b 572 283 575 279 574 282 b 564 285 569 285 567 285 b 546 275 557 285 551 282 b 489 194 536 257 517 229 b 383 97 460 160 425 126 b 243 47 340 67 294 50 l 239 47 b 121 85 183 47 144 60 b 85 178 97 110 85 140 b 125 314 85 221 99 265 b 232 436 151 363 188 403 b 372 486 275 469 322 486 b 422 465 392 486 408 479 b 425 457 424 463 425 460 b 419 442 425 453 424 447 b 404 424 415 436 410 431 b 388 403 397 417 392 410 b 379 381 382 396 379 388 b 393 356 379 371 383 363 b 424 346 403 349 413 346 b 461 365 439 346 451 353 b 474 411 469 378 474 393 b 461 463 474 428 469 444 b 418 507 451 481 438 494 b 340 525 399 519 372 525 l 326 525 b 86 410 231 515 150 476 b -21 174 21 343 -14 264 l -21 163 b -1 86 -21 136 -14 111 b 56 25 11 61 29 40 b 111 6 71 15 90 8 z "},"":{"ha":554,"x_min":0,"x_max":0,"o":"m 188 -6 l 213 -4 b 583 275 411 10 499 142 l 583 276 b 572 285 583 281 578 285 b 554 275 565 285 558 282 b 246 36 542 251 415 57 l 226 35 b 78 181 144 35 78 97 b 104 272 78 197 81 246 b 211 243 131 256 169 244 b 419 349 281 243 361 271 b 450 431 440 376 450 404 b 333 529 450 486 406 529 b -21 182 188 529 -21 340 b 188 -6 -21 90 35 -6 z m 213 290 b 122 310 183 290 153 296 b 374 476 194 418 315 476 b 431 438 408 476 431 458 b 213 290 431 400 339 290 z m 383 551 b 396 558 388 551 392 554 b 401 571 400 563 401 567 b 344 668 401 576 382 608 b 321 679 339 675 331 679 b 300 669 311 679 304 676 b 292 650 294 663 292 657 b 299 632 292 643 294 638 b 383 551 349 578 378 551 z "},"":{"ha":554,"x_min":0,"x_max":0,"o":"m 188 -6 l 213 -4 b 583 275 411 10 499 142 l 583 276 b 572 285 583 281 578 285 b 554 275 565 285 558 282 b 246 36 542 251 415 57 l 226 35 b 78 181 144 35 78 97 b 104 272 78 197 81 246 b 211 243 131 256 169 244 b 419 349 281 243 361 271 b 450 431 440 376 450 404 b 333 529 450 486 406 529 b -21 182 188 529 -21 340 b 188 -6 -21 90 35 -6 z m 213 290 b 122 310 183 290 153 296 b 374 476 194 418 315 476 b 431 438 408 476 431 458 b 213 290 431 400 339 290 z m 315 544 b 332 553 321 544 326 547 l 400 625 b 407 643 404 631 407 636 b 400 663 407 650 404 656 b 379 672 396 669 389 672 b 354 661 369 672 361 668 b 297 564 317 601 297 569 b 304 551 297 560 300 556 b 315 544 308 547 311 544 z "},"":{"ha":554,"x_min":0,"x_max":0,"o":"m 188 -6 l 213 -4 b 583 275 411 10 499 142 l 583 276 b 572 285 583 281 578 285 b 554 275 565 285 558 282 b 246 36 542 251 415 57 l 226 35 b 78 181 144 35 78 97 b 104 272 78 197 81 246 b 211 243 131 256 169 244 b 419 349 281 243 361 271 b 450 431 440 376 450 404 b 333 529 450 486 406 529 b -21 182 188 529 -21 340 b 188 -6 -21 90 35 -6 z m 213 290 b 122 310 183 290 153 296 b 374 476 194 418 315 476 b 431 438 408 476 431 458 b 213 290 431 400 339 290 z m 436 522 b 439 526 438 524 439 525 b 432 594 435 539 432 563 b 435 656 432 626 433 646 b 411 664 433 661 426 664 b 297 583 382 629 343 603 b 296 579 296 582 296 581 b 300 575 296 576 297 575 l 303 575 b 397 625 332 586 364 603 b 436 522 397 571 410 538 z "},"":{"ha":554,"x_min":0,"x_max":0,"o":"m 188 -6 l 213 -4 b 583 275 411 10 499 142 l 583 276 b 572 285 583 281 578 285 b 554 275 565 285 558 282 b 246 36 542 251 415 57 l 226 35 b 78 181 144 35 78 97 b 104 272 78 197 81 246 b 211 243 131 256 169 244 b 419 349 281 243 361 271 b 450 431 440 376 450 404 b 333 529 450 486 406 529 b -21 182 188 529 -21 340 b 188 -6 -21 90 35 -6 z m 213 290 b 122 310 183 290 153 296 b 374 476 194 418 315 476 b 431 438 408 476 431 458 b 213 290 431 400 339 290 z m 435 640 b 396 601 414 640 396 624 b 435 563 396 581 414 563 b 474 601 457 563 474 581 b 435 640 474 624 457 640 z m 310 640 b 271 601 289 640 271 624 b 310 563 271 581 289 563 b 349 601 331 563 349 581 b 310 640 349 624 331 640 z "},"":{"ha":353,"x_min":0,"x_max":0,"o":"m 49 0 b 379 275 229 0 367 251 l 379 276 b 368 285 379 281 374 285 b 351 275 363 285 356 282 b 100 43 207 51 129 44 l 97 43 b 40 104 63 43 42 65 l 40 108 b 238 496 40 229 238 426 b 219 525 238 508 232 518 b 199 531 213 529 206 531 b 149 504 182 531 164 519 b -60 110 143 499 -60 226 b 49 0 -60 18 28 0 z m 251 565 b 264 572 256 565 260 568 b 269 585 268 576 269 581 b 213 682 269 590 250 622 b 189 693 207 689 199 693 b 168 683 179 693 172 690 b 160 664 163 676 160 671 b 167 646 160 657 163 651 b 251 565 217 592 246 565 z "},"":{"ha":353,"x_min":0,"x_max":0,"o":"m 49 0 b 379 275 229 0 367 251 l 379 276 b 368 285 379 281 374 285 b 351 275 363 285 356 282 b 100 43 207 51 129 44 l 97 43 b 40 104 63 43 42 65 l 40 108 b 238 496 40 229 238 426 b 219 525 238 508 232 518 b 199 531 213 529 206 531 b 149 504 182 531 164 519 b -60 110 143 499 -60 226 b 49 0 -60 18 28 0 z m 235 569 b 336 617 240 569 274 585 b 351 642 346 622 350 631 b 333 668 351 656 344 664 b 321 671 329 669 325 671 b 306 667 315 671 311 669 b 218 592 247 622 218 596 b 235 569 218 576 224 569 z "},"":{"ha":353,"x_min":0,"x_max":0,"o":"m 49 0 b 379 275 229 0 367 251 l 379 276 b 368 285 379 281 374 285 b 351 275 363 285 356 282 b 100 43 207 51 129 44 l 97 43 b 40 104 63 43 42 65 l 40 108 b 238 496 40 229 238 426 b 219 525 238 508 232 518 b 199 531 213 529 206 531 b 149 504 182 531 164 519 b -60 110 143 499 -60 226 b 49 0 -60 18 28 0 z m 301 536 b 304 540 303 538 304 539 b 297 608 300 553 297 576 b 300 669 297 640 299 660 b 276 678 299 675 292 678 b 163 597 247 643 208 617 b 161 593 161 596 161 594 b 165 589 161 590 163 589 l 168 589 b 263 639 197 600 229 617 b 301 536 263 585 275 551 z "},"":{"ha":353,"x_min":0,"x_max":0,"o":"m 49 0 b 379 275 229 0 367 251 l 379 276 b 368 285 379 281 374 285 b 351 275 363 285 356 282 b 100 43 207 51 129 44 l 97 43 b 40 104 63 43 42 65 l 40 108 b 238 496 40 229 238 426 b 219 525 238 508 232 518 b 199 531 213 529 206 531 b 149 504 182 531 164 519 b -60 110 143 499 -60 226 b 49 0 -60 18 28 0 z m 303 672 b 264 633 282 672 264 656 b 303 594 264 613 282 594 b 342 633 325 594 342 613 b 303 672 342 656 325 672 z m 178 672 b 139 633 157 672 139 656 b 178 594 139 613 157 594 b 217 633 199 594 217 613 b 178 672 217 656 199 672 z "},"":{"ha":749,"x_min":0,"x_max":0,"o":"m 146 60 l 142 60 b 82 129 100 60 82 88 b 317 454 82 238 203 435 l 342 457 b 415 379 393 457 415 425 b 146 60 415 265 281 65 z m 740 646 l 756 644 b 828 635 782 643 806 640 l 829 635 b 836 644 832 636 835 639 b 838 665 838 650 838 657 l 838 668 b 838 682 838 672 838 678 b 833 692 836 686 835 690 b 828 697 832 696 829 697 b 768 688 810 693 789 690 l 769 689 b 892 844 815 756 857 807 b 1017 946 932 886 974 919 b 1144 983 1060 971 1101 983 b 1257 949 1188 983 1225 972 b 1310 858 1289 925 1306 894 l 1310 847 b 1294 776 1310 822 1304 799 b 1254 742 1283 753 1269 742 l 1251 742 b 1228 729 1240 740 1232 736 b 1219 710 1222 722 1219 717 b 1235 686 1219 700 1225 692 l 1244 685 b 1263 692 1251 685 1258 688 b 1274 707 1267 696 1271 701 b 1276 711 1275 708 1275 710 b 1328 853 1311 764 1328 811 b 1258 988 1328 910 1304 954 b 1100 1038 1213 1021 1160 1038 b 854 929 1015 1038 933 1001 b 651 688 792 871 724 790 l 647 688 b 619 689 639 688 629 688 b 611 690 617 690 614 690 b 540 700 590 692 567 694 l 538 700 b 531 690 535 699 532 696 b 528 667 529 683 528 676 l 528 664 b 529 649 528 658 528 653 b 533 636 531 643 532 639 b 536 632 535 635 535 633 b 539 631 538 631 538 631 l 540 631 b 600 640 561 635 582 639 b 611 642 604 640 607 640 b 619 643 614 642 617 642 l 621 643 b 596 606 613 631 604 618 l 576 576 b 467 408 532 511 496 454 b 424 494 463 446 447 474 b 333 524 399 514 368 524 l 324 524 b 133 449 250 517 186 492 b 10 297 79 406 39 356 b -35 132 -19 238 -35 183 b -6 36 -35 94 -25 63 b 82 -3 13 10 42 -3 b 193 25 118 -3 156 7 b 296 93 231 43 264 65 b 338 133 304 100 318 113 l 336 117 b 358 42 336 82 343 57 b 408 10 374 25 390 14 b 453 1 426 4 442 1 b 611 65 499 1 551 22 b 776 275 669 108 725 178 l 776 276 b 774 283 776 279 775 282 b 765 285 771 285 768 285 b 749 275 760 285 754 282 b 628 117 701 201 661 149 b 546 54 593 83 567 63 b 500 43 526 47 511 43 l 494 43 b 438 104 461 43 442 64 l 438 108 b 476 224 438 143 450 181 l 476 225 b 478 226 478 225 478 225 b 494 254 481 231 486 239 l 494 256 b 496 257 496 256 496 256 b 497 258 496 258 496 258 l 497 260 b 499 261 499 260 499 260 b 500 264 500 263 500 263 l 500 265 l 501 265 l 504 271 b 506 274 506 272 506 272 l 507 275 b 508 279 508 276 508 278 l 510 279 l 510 281 l 511 282 b 514 286 513 283 513 285 l 514 288 l 515 289 l 515 290 l 517 292 b 518 294 518 293 518 293 l 518 296 l 519 296 l 519 297 l 521 297 l 521 300 l 522 300 b 633 483 551 351 589 413 b 740 646 668 538 704 592 z "},"":{"ha":708,"x_min":0,"x_max":0,"o":"m 408 -7 b 735 275 497 -7 624 74 l 735 276 b 724 285 735 281 729 285 b 707 275 718 285 711 282 b 456 33 706 274 563 33 b 394 96 407 33 394 64 b 533 436 394 200 529 340 l 533 443 b 464 513 533 476 513 513 b 96 251 358 513 215 379 l 246 486 b 249 494 247 489 249 492 b 189 531 249 513 218 531 b 146 511 172 531 156 525 b -103 106 67 399 -10 260 b -128 46 -114 88 -128 65 b -106 10 -128 32 -122 19 b -82 3 -97 4 -89 3 b -53 14 -71 3 -61 7 b -18 64 -39 28 -28 47 b -8 81 -15 69 -12 75 l -3 86 b 426 444 50 143 285 444 b 436 435 433 444 436 440 l 436 431 b 292 108 431 371 292 211 b 408 -7 292 40 339 -7 z m 435 564 b 499 610 481 564 497 608 l 499 611 b 490 615 499 613 497 615 b 483 611 488 615 483 614 b 450 592 483 610 481 592 b 346 638 411 592 400 638 b 246 588 292 638 249 590 b 254 581 246 582 249 581 b 264 585 257 581 261 582 b 321 610 264 585 289 610 b 435 564 351 610 376 564 z "},"":{"ha":576,"x_min":0,"x_max":0,"o":"m 138 -6 b 325 76 201 -1 267 28 b 372 65 340 69 357 65 l 379 65 b 540 172 424 65 479 90 b 606 275 561 203 583 236 l 606 276 b 594 285 606 281 600 285 b 576 275 588 285 581 282 b 518 190 576 274 553 236 b 410 115 508 176 454 115 b 378 131 399 115 388 121 b 461 283 414 174 443 225 b 478 381 472 318 478 350 b 329 542 478 476 422 542 l 317 542 b -8 253 186 533 42 404 b -25 156 -19 218 -25 186 b 125 -6 -25 60 32 -6 z m 174 51 b 121 61 157 51 139 56 b 75 153 90 72 75 106 b 92 242 75 179 81 210 b 342 465 132 349 249 464 l 344 465 b 443 364 414 465 443 422 b 363 163 443 303 411 225 l 357 189 b 321 218 354 210 339 218 b 249 156 289 218 249 192 b 292 94 249 132 267 110 b 174 51 256 68 215 51 z m 375 565 b 388 572 379 565 383 568 b 393 585 392 576 393 581 b 336 682 393 590 374 622 b 313 693 331 689 322 693 b 292 683 303 693 296 690 b 283 664 286 676 283 671 b 290 646 283 657 286 651 b 375 565 340 592 369 565 z "},"":{"ha":576,"x_min":0,"x_max":0,"o":"m 138 -6 b 325 76 201 -1 267 28 b 372 65 340 69 357 65 l 379 65 b 540 172 424 65 479 90 b 606 275 561 203 583 236 l 606 276 b 594 285 606 281 600 285 b 576 275 588 285 581 282 b 518 190 576 274 553 236 b 410 115 508 176 454 115 b 378 131 399 115 388 121 b 461 283 414 174 443 225 b 478 381 472 318 478 350 b 329 542 478 476 422 542 l 317 542 b -8 253 186 533 42 404 b -25 156 -19 218 -25 186 b 125 -6 -25 60 32 -6 z m 174 51 b 121 61 157 51 139 56 b 75 153 90 72 75 106 b 92 242 75 179 81 210 b 342 465 132 349 249 464 l 344 465 b 443 364 414 465 443 422 b 363 163 443 303 411 225 l 357 189 b 321 218 354 210 339 218 b 249 156 289 218 249 192 b 292 94 249 132 267 110 b 174 51 256 68 215 51 z m 356 563 b 372 571 361 563 367 565 l 440 643 b 447 661 444 649 447 654 b 440 681 447 668 444 674 b 419 690 436 688 429 690 b 394 679 410 690 401 686 b 338 582 357 619 338 588 b 344 569 338 578 340 574 b 356 563 349 565 351 563 z "},"":{"ha":576,"x_min":0,"x_max":0,"o":"m 138 -6 b 325 76 201 -1 267 28 b 372 65 340 69 357 65 l 379 65 b 540 172 424 65 479 90 b 606 275 561 203 583 236 l 606 276 b 594 285 606 281 600 285 b 576 275 588 285 581 282 b 518 190 576 274 553 236 b 410 115 508 176 454 115 b 378 131 399 115 388 121 b 461 283 414 174 443 225 b 478 381 472 318 478 350 b 329 542 478 476 422 542 l 317 542 b -8 253 186 533 42 404 b -25 156 -19 218 -25 186 b 125 -6 -25 60 32 -6 z m 174 51 b 121 61 157 51 139 56 b 75 153 90 72 75 106 b 92 242 75 179 81 210 b 342 465 132 349 249 464 l 344 465 b 443 364 414 465 443 422 b 363 163 443 303 411 225 l 357 189 b 321 218 354 210 339 218 b 249 156 289 218 249 192 b 292 94 249 132 267 110 b 174 51 256 68 215 51 z m 464 540 b 467 544 465 542 467 543 b 460 613 463 557 460 581 b 463 674 460 644 461 664 b 439 682 461 679 454 682 b 325 601 410 647 371 621 b 324 597 324 600 324 599 b 328 593 324 594 325 593 l 331 593 b 425 643 360 604 392 621 b 464 540 425 589 438 556 z "},"":{"ha":576,"x_min":0,"x_max":0,"o":"m 138 -6 b 325 76 201 -1 267 28 b 372 65 340 69 357 65 l 379 65 b 540 172 424 65 479 90 b 606 275 561 203 583 236 l 606 276 b 594 285 606 281 600 285 b 576 275 588 285 581 282 b 518 190 576 274 553 236 b 410 115 508 176 454 115 b 378 131 399 115 388 121 b 461 283 414 174 443 225 b 478 381 472 318 478 350 b 329 542 478 476 422 542 l 317 542 b -8 253 186 533 42 404 b -25 156 -19 218 -25 186 b 125 -6 -25 60 32 -6 z m 174 51 b 121 61 157 51 139 56 b 75 153 90 72 75 106 b 92 242 75 179 81 210 b 342 465 132 349 249 464 l 344 465 b 443 364 414 465 443 422 b 363 163 443 303 411 225 l 357 189 b 321 218 354 210 339 218 b 249 156 289 218 249 192 b 292 94 249 132 267 110 b 174 51 256 68 215 51 z m 438 569 b 501 615 483 569 500 614 l 501 617 b 493 621 501 618 500 621 b 486 617 490 621 486 619 b 453 597 486 615 483 597 b 349 643 414 597 403 643 b 249 593 294 643 251 596 b 257 586 249 588 251 586 b 267 590 260 586 264 588 b 324 615 267 590 292 615 b 438 569 354 615 379 569 z "},"":{"ha":576,"x_min":0,"x_max":0,"o":"m 138 -6 b 325 76 201 -1 267 28 b 372 65 340 69 357 65 l 379 65 b 540 172 424 65 479 90 b 606 275 561 203 583 236 l 606 276 b 594 285 606 281 600 285 b 576 275 588 285 581 282 b 518 190 576 274 553 236 b 410 115 508 176 454 115 b 378 131 399 115 388 121 b 461 283 414 174 443 225 b 478 381 472 318 478 350 b 329 542 478 476 422 542 l 317 542 b -8 253 186 533 42 404 b -25 156 -19 218 -25 186 b 125 -6 -25 60 32 -6 z m 174 51 b 121 61 157 51 139 56 b 75 153 90 72 75 106 b 92 242 75 179 81 210 b 342 465 132 349 249 464 l 344 465 b 443 364 414 465 443 422 b 363 163 443 303 411 225 l 357 189 b 321 218 354 210 339 218 b 249 156 289 218 249 192 b 292 94 249 132 267 110 b 174 51 256 68 215 51 z m 324 664 b 285 625 303 664 285 647 b 324 586 285 604 303 586 b 363 625 344 586 363 604 b 324 664 363 647 344 664 z m 449 664 b 410 625 428 664 410 647 b 449 586 410 604 428 586 b 488 625 471 586 488 604 b 449 664 488 647 471 664 z "},"":{"ha":671,"x_min":0,"x_max":0,"o":"m 90 251 b 336 263 189 260 272 261 b 460 261 372 263 411 263 b 582 254 506 260 543 258 l 585 254 b 601 278 594 256 601 265 b 593 294 600 285 597 292 b 582 299 590 297 586 299 b 460 292 543 294 506 293 b 336 290 411 290 372 290 b 90 301 271 290 186 292 l 88 301 b 69 275 76 300 69 288 b 89 251 69 261 78 251 z m 340 124 b 390 175 368 124 390 147 b 340 225 390 203 368 225 b 289 175 311 225 289 203 b 340 124 289 147 311 124 z m 340 326 b 390 376 368 326 390 349 b 340 428 390 406 368 428 b 289 376 311 428 289 406 b 340 326 289 349 311 326 z "},"":{"ha":576,"x_min":0,"x_max":0,"o":"m 158 53 l 176 90 b 219 174 192 122 207 150 b 246 226 228 192 236 210 b 261 257 251 236 257 247 b 349 424 285 306 314 361 b 371 463 356 438 364 450 b 421 438 393 460 410 450 b 443 364 436 418 443 393 b 363 163 443 303 417 236 l 357 189 b 321 218 351 208 339 218 b 274 200 306 218 289 213 b 249 156 257 188 249 174 b 292 94 249 132 263 113 b 174 51 254 65 215 51 b 158 53 168 51 164 51 z m 335 465 l 321 438 b 235 272 289 374 260 318 l 190 189 l 144 107 b 118 63 136 93 128 78 b 75 153 89 78 75 107 b 92 242 75 179 81 208 b 197 394 114 299 149 349 b 335 465 243 436 289 460 z m 132 -6 l 138 -6 b 325 76 203 0 265 28 b 372 65 342 69 357 65 l 379 65 b 454 89 401 65 426 74 b 540 172 481 104 510 132 b 606 275 561 203 583 238 l 606 276 b 603 283 606 279 604 282 b 594 285 600 285 597 285 b 576 275 588 285 582 282 b 561 250 576 274 571 265 b 518 190 550 233 536 214 b 496 165 514 185 507 176 b 456 132 483 153 471 142 b 410 115 440 121 425 115 b 378 131 399 115 388 121 b 461 283 415 174 443 225 b 478 381 472 318 478 351 b 439 497 478 429 465 468 b 406 524 429 507 418 517 b 443 585 418 544 431 565 b 446 588 444 586 444 586 b 446 589 446 588 446 588 b 447 599 447 592 447 594 b 446 607 447 601 447 604 b 433 619 443 613 439 617 b 422 622 429 621 426 622 b 414 621 419 622 417 622 b 401 607 408 618 404 614 b 369 538 392 585 381 561 b 329 542 357 540 344 542 l 317 542 b 124 451 249 535 185 506 b -8 253 63 397 18 331 b -25 156 -19 218 -25 185 b 15 39 -25 107 -11 68 b 82 -1 32 19 54 6 b 50 -56 71 -18 61 -37 l 47 -58 b 46 -69 46 -62 46 -65 b 61 -94 46 -79 51 -87 b 67 -96 63 -96 65 -96 b 72 -96 68 -96 71 -96 b 82 -94 76 -96 79 -96 b 97 -81 89 -92 94 -87 b 132 -6 108 -54 121 -29 z "},"":{"ha":685,"x_min":0,"x_max":0,"o":"m 393 0 b 724 275 575 0 711 251 l 724 278 b 713 285 724 281 719 285 b 696 275 707 285 700 282 b 446 43 553 51 475 44 l 443 43 b 385 104 408 43 386 65 l 385 108 b 583 496 385 229 583 426 b 564 525 583 508 578 518 b 544 531 557 529 550 531 b 494 504 526 531 510 519 b 358 299 490 501 417 403 b 272 165 358 299 306 208 l 257 146 b 100 43 172 49 122 44 l 97 43 b 40 104 63 43 42 65 l 40 108 b 238 496 40 229 238 426 b 219 525 238 508 232 518 b 199 531 213 529 206 531 b 149 504 182 531 164 519 b -60 110 143 499 -60 226 b 49 0 -60 18 28 0 b 290 144 146 0 231 74 b 286 110 288 132 286 121 b 393 0 286 18 374 0 z m 429 576 b 442 583 433 576 438 579 b 447 596 446 588 447 592 b 390 693 447 601 428 633 b 367 704 385 700 376 704 b 346 694 357 704 350 701 b 338 675 340 688 338 682 b 344 657 338 668 340 663 b 429 576 394 603 424 576 z "},"":{"ha":696,"x_min":0,"x_max":0,"o":"m 393 0 b 724 275 575 0 711 251 l 724 278 b 713 285 724 281 719 285 b 696 275 707 285 700 282 b 446 43 553 51 475 44 l 443 43 b 385 104 408 43 386 65 l 385 108 b 583 496 385 229 583 426 b 564 525 583 508 578 518 b 544 531 557 529 550 531 b 494 504 526 531 510 519 b 358 299 490 501 417 403 b 272 165 358 299 306 208 l 257 146 b 100 43 172 49 122 44 l 97 43 b 40 104 63 43 42 65 l 40 108 b 238 496 40 229 238 426 b 219 525 238 508 232 518 b 199 531 213 529 206 531 b 149 504 182 531 164 519 b -60 110 143 499 -60 226 b 49 0 -60 18 28 0 b 290 144 146 0 231 74 b 286 110 288 132 286 121 b 393 0 286 18 374 0 z m 385 576 b 401 585 390 576 396 579 l 469 657 b 476 675 474 663 476 668 b 469 694 476 682 474 688 b 449 704 465 701 458 704 b 424 693 439 704 431 700 b 367 596 386 633 367 601 b 374 583 367 592 369 588 b 385 576 378 579 381 576 z "},"":{"ha":696,"x_min":0,"x_max":0,"o":"m 393 0 b 724 275 575 0 711 251 l 724 278 b 713 285 724 281 719 285 b 696 275 707 285 700 282 b 446 43 553 51 475 44 l 443 43 b 385 104 408 43 386 65 l 385 108 b 583 496 385 229 583 426 b 564 525 583 508 578 518 b 544 531 557 529 550 531 b 494 504 526 531 510 519 b 358 299 490 501 417 403 b 272 165 358 299 306 208 l 257 146 b 100 43 172 49 122 44 l 97 43 b 40 104 63 43 42 65 l 40 108 b 238 496 40 229 238 426 b 219 525 238 508 232 518 b 199 531 213 529 206 531 b 149 504 182 531 164 519 b -60 110 143 499 -60 226 b 49 0 -60 18 28 0 b 290 144 146 0 231 74 b 286 110 288 132 286 121 b 393 0 286 18 374 0 z m 439 563 b 442 567 440 564 442 565 b 435 635 438 579 435 603 b 438 696 435 667 436 686 b 414 704 436 701 429 704 b 300 624 385 669 346 643 b 299 619 299 622 299 621 b 303 615 299 617 300 615 l 306 615 b 400 665 335 626 367 643 b 439 563 400 611 413 578 z "},"":{"ha":696,"x_min":0,"x_max":0,"o":"m 393 0 b 724 275 575 0 711 251 l 724 278 b 713 285 724 281 719 285 b 696 275 707 285 700 282 b 446 43 553 51 475 44 l 443 43 b 385 104 408 43 386 65 l 385 108 b 583 496 385 229 583 426 b 564 525 583 508 578 518 b 544 531 557 529 550 531 b 494 504 526 531 510 519 b 358 299 490 501 417 403 b 272 165 358 299 306 208 l 257 146 b 100 43 172 49 122 44 l 97 43 b 40 104 63 43 42 65 l 40 108 b 238 496 40 229 238 426 b 219 525 238 508 232 518 b 199 531 213 529 206 531 b 149 504 182 531 164 519 b -60 110 143 499 -60 226 b 49 0 -60 18 28 0 b 290 144 146 0 231 74 b 286 110 288 132 286 121 b 393 0 286 18 374 0 z m 456 675 b 417 636 435 675 417 658 b 456 597 417 615 435 597 b 494 636 478 597 494 615 b 456 675 494 658 478 675 z m 331 675 b 292 636 310 675 292 658 b 331 597 292 615 310 597 b 369 636 351 597 369 615 b 331 675 369 658 351 675 z "},"":{"ha":624,"x_min":0,"x_max":0,"o":"m -228 -481 b 144 -210 -14 -481 144 -210 b 269 -29 185 -157 226 -96 b 504 96 383 19 460 60 b 603 200 579 157 592 182 b 650 275 624 229 639 256 l 650 278 b 639 285 650 281 644 285 b 622 275 633 285 626 282 b 549 172 610 258 588 214 b 296 11 532 151 464 85 b 553 429 372 129 457 269 b 578 489 564 447 578 469 b 556 525 578 503 572 515 b 532 532 547 531 539 532 b 503 519 521 532 511 526 b 468 471 489 507 478 486 b 353 279 426 400 388 336 b 101 46 208 54 131 46 l 99 46 b 40 106 64 46 42 68 l 40 110 b 239 497 40 231 239 429 b 219 528 239 511 233 521 b 200 533 213 532 206 533 b 150 507 182 533 165 522 b -58 113 143 500 -58 229 b 49 3 -58 19 28 3 b 233 86 118 3 181 39 l 144 -51 b -6 -107 100 -69 50 -87 b -297 -386 -189 -174 -286 -299 l -299 -406 b -269 -468 -299 -433 -289 -456 b -228 -481 -260 -475 -246 -481 z m -239 -449 b -262 -439 -249 -449 -256 -446 b -272 -406 -268 -431 -272 -419 l -271 -390 b 3 -132 -261 -310 -171 -194 l 119 -89 b -50 -304 28 -225 -12 -265 b -239 -449 -107 -364 -190 -449 z m 378 576 b 394 585 383 576 389 579 l 463 657 b 469 675 467 663 469 668 b 463 694 469 682 467 688 b 442 704 458 701 451 704 b 417 693 432 704 424 700 b 360 596 379 633 360 601 b 367 583 360 592 363 588 b 378 576 371 579 374 576 z "},"":{"ha":653,"x_min":0,"x_max":0,"o":"m -258 -293 b -229 -282 -247 -293 -237 -289 b -194 -232 -215 -268 -204 -249 b 29 135 -139 -139 -54 1 b 167 0 32 51 89 0 l 169 0 b 318 39 224 1 274 15 l 324 39 b 614 172 419 39 536 75 b 679 275 638 201 658 236 l 679 276 b 668 285 679 281 674 285 b 651 275 663 285 656 282 l 622 231 b 533 140 622 231 578 174 b 392 88 499 117 450 93 b 549 390 490 171 549 296 b 435 525 549 465 514 521 l 425 525 b 228 454 358 525 289 499 l 426 781 b 429 789 428 783 429 786 b 369 825 429 807 399 825 b 326 806 353 825 336 819 b -279 -190 68 399 -186 -36 b -304 -250 -290 -208 -304 -231 b -282 -286 -304 -264 -299 -276 b -258 -293 -274 -292 -265 -293 z m 146 61 b 76 147 97 61 76 99 b 114 272 76 186 90 232 l 118 279 b 364 456 175 369 274 456 l 371 456 b 422 382 407 454 422 424 b 300 128 422 307 374 193 b 247 165 292 153 269 165 b 193 106 221 165 193 144 l 194 88 b 200 74 194 83 197 78 b 146 61 179 65 161 61 z "},"":{"ha":624,"x_min":0,"x_max":0,"o":"m -228 -481 b 144 -210 -14 -481 144 -210 b 269 -29 185 -157 226 -96 b 504 96 383 19 460 60 b 603 200 579 157 592 182 b 650 275 624 229 639 256 l 650 278 b 639 285 650 281 644 285 b 622 275 633 285 626 282 b 549 172 610 258 588 214 b 296 11 532 151 464 85 b 553 429 372 129 457 269 b 578 489 564 447 578 469 b 556 525 578 503 572 515 b 532 532 547 531 539 532 b 503 519 521 532 511 526 b 468 471 489 507 478 486 b 353 279 426 400 388 336 b 101 46 208 54 131 46 l 99 46 b 40 106 64 46 42 68 l 40 110 b 239 497 40 231 239 429 b 219 528 239 511 233 521 b 200 533 213 532 206 533 b 150 507 182 533 165 522 b -58 113 143 500 -58 229 b 49 3 -58 19 28 3 b 233 86 118 3 181 39 l 144 -51 b -6 -107 100 -69 50 -87 b -297 -386 -189 -174 -286 -299 l -299 -406 b -269 -468 -299 -433 -289 -456 b -228 -481 -260 -475 -246 -481 z m -239 -449 b -262 -439 -249 -449 -256 -446 b -272 -406 -268 -431 -272 -419 l -271 -390 b 3 -132 -261 -310 -171 -194 l 119 -89 b -50 -304 28 -225 -12 -265 b -239 -449 -107 -364 -190 -449 z m 468 675 b 429 636 447 675 429 658 b 468 597 429 615 447 597 b 507 636 490 597 507 615 b 468 675 507 658 490 675 z m 343 675 b 304 636 322 675 304 658 b 343 597 304 615 322 597 b 382 636 364 597 382 615 b 343 675 382 658 364 675 z "},"":{"ha":353,"x_min":0,"x_max":0,"o":"m 49 0 b 379 275 229 0 367 251 l 379 276 b 368 285 379 281 374 285 b 351 275 363 285 356 282 b 100 43 207 51 129 44 l 97 43 b 40 104 63 43 42 65 l 40 108 b 238 496 40 229 238 426 b 219 525 238 508 232 518 b 199 531 213 529 206 531 b 149 504 182 531 164 519 b -60 110 143 499 -60 226 b 49 0 -60 18 28 0 z "},"":{"ha":1596,"x_min":0,"x_max":0,"o":"m 865 -185 b 1501 367 1192 -185 1486 164 l 1503 383 b 1349 518 1503 476 1433 518 b 1050 250 1218 518 1050 417 l 1051 222 b 1190 88 1063 118 1158 88 l 1193 88 b 1092 261 1125 124 1092 190 b 1338 496 1092 375 1178 496 l 1368 494 b 1472 367 1438 488 1472 438 l 1472 351 b 933 -143 1458 169 1192 -143 l 932 -143 b 710 58 793 -143 710 -54 l 711 78 b 728 169 713 104 718 136 b 878 393 786 240 838 317 b 1040 439 921 422 975 439 b 1121 475 1042 439 1081 475 l 1128 475 b 1018 640 1128 493 1018 501 l 1019 663 l 1022 679 b 1351 1021 1054 913 1214 1021 b 1565 810 1497 1019 1565 914 b 1382 611 1565 710 1501 611 b 1321 624 1351 611 1333 614 b 1347 656 1336 626 1347 639 b 1315 686 1347 672 1333 686 b 1283 653 1294 686 1283 671 b 1376 597 1283 600 1363 597 b 1636 824 1546 597 1636 711 b 1365 1044 1636 935 1549 1044 b 958 818 1219 1044 1044 960 b 658 1040 919 964 799 1033 l 635 1040 b 92 557 392 1040 107 861 l 90 533 b 103 453 90 503 94 476 b -119 85 -12 378 -112 253 l -119 72 b 143 -167 -119 -58 -42 -167 b 210 -162 164 -167 186 -165 b 592 31 339 -147 474 -74 b 857 -185 606 -90 694 -183 z m 143 -128 l 124 -128 b -68 53 -11 -128 -68 -50 l -68 60 b 121 410 -64 197 21 325 b 206 361 139 381 168 361 b 254 372 221 361 236 364 b 185 458 218 397 196 428 b 311 513 229 486 272 506 b 310 504 310 510 310 507 b 339 475 310 489 324 475 b 369 504 356 475 369 489 b 342 535 369 521 357 533 l 338 535 b 175 493 289 532 232 518 b 163 578 168 507 163 539 l 164 611 b 589 1000 183 868 406 1000 l 608 1000 b 844 778 739 993 844 921 l 844 772 b 464 43 839 558 668 238 b 143 -128 360 -56 247 -122 z m 913 468 b 942 546 924 493 933 519 b 1040 488 963 519 994 497 b 913 468 996 488 953 481 z "},"":{"ha":843,"x_min":0,"x_max":0,"o":"m 286 99 l 289 93 l 289 92 b 174 51 253 65 214 51 b 121 61 156 51 139 54 b 75 153 90 76 75 107 b 92 242 75 179 81 208 b 197 394 114 299 149 349 b 342 465 246 439 293 463 l 344 465 b 418 439 378 465 403 457 b 326 342 383 411 353 379 b 268 182 288 288 268 235 b 285 99 268 154 274 126 z m 367 169 l 367 181 b 372 222 367 189 368 203 b 393 272 375 242 382 258 b 419 258 401 267 410 263 b 367 169 407 231 389 200 z m 464 293 b 478 381 474 325 478 354 l 478 386 b 544 435 499 406 521 421 b 663 476 594 463 633 476 b 704 465 681 476 694 472 b 719 438 714 457 719 447 b 692 383 719 425 710 407 b 614 319 672 360 646 338 b 501 290 581 300 543 290 b 464 293 489 290 476 292 z m 443 350 b 435 301 442 335 439 318 b 411 310 426 304 419 307 b 443 350 421 325 432 338 z m 376 126 l 379 129 l 378 131 b 449 249 407 165 431 206 b 500 243 464 246 482 244 b 608 268 535 243 571 251 b 708 349 646 283 679 311 b 739 431 729 378 739 404 b 708 501 739 458 729 482 b 622 529 688 519 658 529 b 468 476 574 529 522 511 b 458 469 464 474 461 471 b 439 497 453 479 446 489 b 329 542 413 526 375 542 l 317 542 b 124 451 249 535 185 506 b -8 253 63 397 18 331 b -25 156 -19 218 -25 185 b 15 39 -25 107 -11 68 b 125 -6 42 10 78 -6 l 138 -6 b 307 63 197 0 253 22 b 354 22 319 47 335 33 b 476 -6 385 4 425 -6 l 501 -4 b 731 90 599 6 675 36 b 872 275 785 144 832 206 l 872 276 b 869 283 872 279 871 282 b 861 285 867 285 864 285 b 843 275 854 285 849 282 b 796 207 839 265 822 242 b 688 103 768 172 732 138 b 535 36 642 68 592 46 l 515 35 b 411 76 475 35 440 49 b 376 126 396 92 383 108 z "},"":{"ha":1339,"x_min":0,"x_max":0,"o":"m 507 -43 b 1304 700 1015 -43 1190 368 b 1628 1024 1468 728 1628 839 b 1531 1144 1628 1078 1593 1144 b 1192 729 1447 1140 1338 1056 b 999 918 1057 747 999 836 b 1136 1064 999 994 1049 1064 b 1193 1038 1160 1064 1181 1056 b 1163 1008 1176 1038 1163 1026 b 1192 979 1163 992 1176 979 b 1222 1008 1208 979 1222 992 l 1221 1014 b 1128 1090 1217 1065 1176 1090 b 953 910 1050 1090 953 1028 b 1176 696 953 815 1014 713 b 463 -7 1061 432 915 -7 b 58 465 215 -7 58 221 b 507 1057 58 750 253 1057 b 783 792 607 1057 783 1008 b 781 739 783 775 783 757 b 507 413 776 721 722 413 b 325 561 425 413 325 461 b 339 628 325 581 329 603 b 360 619 343 622 351 619 b 389 649 375 619 389 632 b 360 678 389 665 375 678 b 299 543 332 678 299 647 b 511 346 299 431 400 346 b 851 732 668 349 851 464 b 507 1101 851 897 758 1101 b -24 535 250 1101 -24 900 b 507 -43 -24 249 168 -43 z m 1314 731 b 1529 1113 1385 942 1432 1113 b 1597 1017 1572 1113 1597 1071 b 1314 731 1597 914 1514 761 z m 1338 1146 b 1447 1231 1365 1181 1401 1210 b 1450 1235 1449 1232 1450 1233 b 1443 1239 1449 1238 1447 1239 b 1350 1185 1414 1226 1382 1208 b 1307 1286 1347 1239 1333 1272 b 1304 1282 1306 1285 1304 1283 b 1315 1175 1311 1263 1315 1226 l 1314 1153 b 1332 1146 1315 1149 1321 1146 z "},"":{"ha":538,"x_min":0,"x_max":0,"o":"m 111 -32 b 211 -10 174 -32 211 -10 l 221 -10 b 565 275 379 -10 524 193 l 565 278 b 554 285 565 281 561 285 b 538 275 549 285 542 282 b 254 28 507 231 386 28 l 251 28 b 375 328 254 32 375 135 b 329 542 375 390 363 461 b 339 540 332 540 336 540 b 381 568 354 540 371 551 b 389 596 386 578 389 588 b 372 625 389 610 383 619 b 358 628 368 626 364 628 l 353 628 l 351 626 l 349 626 l 343 624 b 276 571 328 617 304 600 b -49 224 93 376 1 279 b -83 125 -71 199 -83 163 b -6 -8 -83 71 -60 17 b 111 -32 39 -26 79 -32 z m 50 25 l 28 28 b -44 114 -26 40 -44 76 b 14 231 -44 169 -6 231 b 28 208 26 231 21 217 b 56 196 35 199 44 196 b 96 211 71 196 86 201 b 111 246 106 222 111 235 b 63 296 111 269 90 292 l 224 467 b 244 314 224 467 244 397 l 243 276 b 50 25 231 119 132 25 z m 338 665 b 447 750 365 700 401 729 b 450 754 449 751 450 753 b 443 758 449 757 447 758 b 350 704 414 746 382 728 b 307 806 347 758 333 792 b 304 801 306 804 304 803 b 315 694 311 782 315 746 l 314 672 b 332 665 315 668 321 665 z "},"":{"ha":1453,"x_min":0,"x_max":0,"o":"m 689 -49 b 1796 1125 1263 -49 1440 769 b 2039 1246 1872 1201 1951 1246 l 2075 1243 b 2063 1219 2068 1238 2063 1229 b 2093 1188 2063 1201 2076 1188 b 2125 1219 2111 1188 2125 1201 b 2106 1247 2125 1232 2117 1243 b 2015 1263 2075 1258 2046 1263 b 1435 775 1813 1263 1615 1035 b 708 229 1272 582 897 229 b 636 257 679 229 656 238 b 607 336 614 279 607 310 b 933 1033 607 481 925 842 l 933 1038 b 738 1171 933 1122 850 1171 b 181 936 561 1171 311 1068 b -14 535 40 796 -14 654 b 89 286 -14 429 28 340 b 208 238 129 251 172 238 b 293 285 257 238 293 261 b 258 319 293 304 278 319 b 225 285 240 319 225 304 b 229 269 225 279 226 274 b 213 265 224 267 218 265 b 61 451 108 265 61 343 b 726 1140 61 882 507 1140 b 844 1056 797 1140 844 1113 b 554 494 844 900 644 675 b 379 219 438 435 379 325 b 676 -49 379 83 476 -44 z m 685 -31 b 433 253 524 -31 433 111 b 549 482 433 342 469 431 b 511 351 526 435 511 390 b 679 194 511 288 558 194 b 1361 664 808 194 1025 301 b 906 43 1183 394 1026 118 l 901 40 b 685 -31 819 -10 747 -31 z m 1333 1167 b 1372 1206 1356 1167 1372 1185 b 1333 1244 1372 1228 1356 1244 b 1294 1206 1313 1244 1294 1228 b 1333 1167 1294 1185 1313 1167 z m 1208 1167 b 1247 1206 1229 1167 1247 1185 b 1208 1244 1247 1228 1229 1244 b 1169 1206 1188 1244 1169 1228 b 1208 1167 1169 1185 1188 1167 z "},"":{"ha":458,"x_min":0,"x_max":0,"o":"m -303 -572 b 161 -87 -121 -572 161 -315 b 150 -12 161 -62 158 -37 b 486 275 361 10 479 260 l 486 276 b 475 285 486 281 481 285 b 457 275 468 285 461 282 b 132 28 453 265 329 43 b 53 97 113 57 86 78 b 396 435 215 160 396 294 b 390 478 396 449 394 464 b 278 532 376 525 333 532 l 276 532 b 0 275 169 532 26 317 l 0 272 b 11 265 0 269 6 265 b 28 275 17 265 24 268 b 232 461 46 304 150 461 b 281 410 263 461 281 442 b 35 165 281 349 211 244 b -44 131 4 151 -19 151 b -71 88 -54 121 -69 106 l -71 85 b 31 -3 -71 42 8 25 b 42 -22 35 -10 39 -15 b -342 -287 -97 -97 -237 -174 b -429 -465 -382 -332 -429 -403 b -401 -535 -429 -490 -421 -515 b -303 -572 -375 -560 -342 -572 z m -344 -518 b -406 -467 -382 -518 -406 -501 b -393 -415 -406 -453 -401 -435 b 54 -68 -333 -276 -85 -146 l 56 -87 b 28 -210 56 -129 43 -174 b -344 -518 -54 -403 -246 -518 z m 326 560 b 436 644 354 594 390 624 b 439 649 438 646 439 647 b 432 653 438 651 436 653 b 339 599 403 640 371 622 b 296 700 336 653 322 686 b 293 696 294 699 293 697 b 304 589 300 676 304 640 l 303 567 b 321 560 304 563 310 560 z "},"":{"ha":814,"x_min":0,"x_max":0,"o":"m 733 426 b 724 431 731 429 728 431 l 719 431 b 564 422 671 426 622 424 b 450 421 522 421 485 421 l 408 421 b 331 422 383 421 357 421 b 253 425 307 422 282 424 b 97 433 207 426 151 429 l 96 435 b 93 433 94 435 94 435 b 71 403 82 433 71 419 l 71 400 b 82 376 71 390 75 382 b 94 371 86 372 90 371 l 97 371 b 253 381 151 376 207 379 b 331 383 282 382 307 383 b 408 385 357 385 383 385 b 481 386 432 386 456 386 b 564 385 507 386 535 386 b 719 375 622 382 671 381 l 724 375 b 743 401 735 376 743 388 l 743 406 b 733 426 743 414 739 422 z "},"":{"ha":461,"x_min":0,"x_max":0,"o":"m 367 736 b 322 754 354 749 338 754 b 293 747 313 754 301 751 b 288 788 290 758 288 771 b 349 936 288 824 300 874 b 350 939 350 938 350 938 b 346 943 350 940 347 943 b 343 942 344 943 343 942 b 251 731 343 942 251 829 b 267 668 251 708 256 688 b 279 649 269 661 274 654 b 324 629 292 636 308 629 b 368 647 340 629 356 636 b 385 690 379 658 385 674 b 367 736 385 707 379 724 z "},"":{"ha":461,"x_min":0,"x_max":0,"o":"m 333 839 b 319 858 329 846 325 853 b 275 878 307 871 290 878 b 232 860 258 878 243 871 b 214 817 219 849 214 833 b 233 771 214 800 221 783 b 278 753 246 758 261 753 b 306 760 288 753 297 756 b 313 719 310 749 313 736 b 250 571 313 683 299 633 b 249 568 249 569 249 569 b 253 564 249 567 251 564 b 256 565 254 564 256 565 b 347 778 256 565 347 678 b 333 839 347 799 343 819 z "},"":{"ha":629,"x_min":0,"x_max":0,"o":"m 293 753 b 288 793 290 764 288 776 b 349 942 288 829 300 879 b 350 944 350 943 350 943 b 346 949 350 946 347 949 b 343 947 344 949 343 947 b 251 736 343 947 251 835 b 267 674 251 714 256 693 b 279 654 269 667 274 660 b 324 635 292 642 308 635 b 368 653 340 635 356 642 b 385 696 379 664 385 679 b 367 742 385 713 379 729 b 322 760 354 754 338 760 b 293 753 313 760 301 757 z m 535 742 b 490 760 522 754 506 760 b 461 753 481 760 469 757 b 456 793 458 764 456 776 b 517 942 456 829 468 879 b 518 944 518 943 518 943 b 514 949 518 946 515 949 b 511 947 513 949 511 947 b 419 736 511 947 419 835 b 435 674 419 714 424 693 b 447 654 438 667 442 660 b 492 635 460 642 476 635 b 536 653 508 635 524 642 b 553 696 547 664 553 679 b 535 742 553 713 547 729 z "},"":{"ha":629,"x_min":0,"x_max":0,"o":"m 500 838 b 488 857 497 844 493 851 b 443 876 475 869 458 876 b 400 858 426 876 411 869 b 382 815 388 847 382 832 b 401 769 382 799 389 782 b 444 751 414 757 429 751 b 474 758 454 751 465 754 b 481 718 478 747 481 735 b 418 569 481 682 467 632 b 417 567 417 568 417 568 b 421 563 417 565 419 563 b 424 564 422 563 424 564 b 515 775 424 564 515 676 b 500 838 515 797 511 818 z m 319 857 b 275 876 307 869 290 876 b 232 858 258 876 243 869 b 214 815 219 847 214 832 b 233 769 214 799 221 782 b 278 751 246 757 261 751 b 306 758 288 751 297 754 b 313 718 310 747 313 735 b 250 569 313 682 299 632 b 249 567 249 568 249 568 b 253 563 249 565 251 563 b 256 564 254 563 256 564 b 347 776 256 564 347 676 b 333 838 347 797 343 818 b 319 857 329 844 325 851 z "},"":{"ha":492,"x_min":0,"x_max":0,"o":"m 363 88 b 350 107 360 94 356 101 b 304 125 338 119 321 125 b 263 108 289 125 274 119 b 244 65 250 96 244 81 b 264 19 244 49 251 32 b 308 1 276 7 293 1 b 336 7 318 1 328 3 b 343 -33 340 -3 343 -17 b 281 -181 343 -68 329 -118 b 279 -183 279 -182 279 -182 b 283 -187 279 -185 282 -187 b 286 -186 285 -187 286 -186 b 378 25 286 -186 378 -74 b 363 88 378 47 374 68 z m 182 107 b 136 125 169 119 153 125 b 94 108 121 125 106 119 b 76 65 82 96 76 81 b 96 19 76 49 83 32 b 142 1 108 7 125 1 b 168 7 151 1 160 3 b 175 -33 172 -3 175 -17 b 113 -181 175 -68 161 -118 b 111 -183 111 -182 111 -182 b 115 -187 111 -185 114 -187 b 118 -186 117 -187 118 -186 b 210 26 118 -186 210 -74 b 196 88 210 47 206 68 b 182 107 192 94 188 101 z "},"":{"ha":779,"x_min":0,"x_max":0,"o":"m 138 125 b 69 57 100 125 69 94 b 138 -12 69 18 100 -12 b 206 57 175 -12 206 18 b 138 125 206 94 175 125 z m 388 125 b 318 57 350 125 318 94 b 388 -12 318 18 350 -12 b 456 57 425 -12 456 18 b 388 125 456 94 425 125 z m 642 125 b 574 57 604 125 574 94 b 642 -12 574 18 604 -12 b 710 57 679 -12 710 18 b 642 125 710 94 679 125 z "},"":{"ha":689,"x_min":0,"x_max":0,"o":"m 685 683 b 575 774 676 739 631 774 l 572 774 b 407 711 515 774 456 739 b 260 599 353 681 301 643 b 146 449 217 553 178 503 b 139 438 144 446 142 442 l 138 438 b 43 444 110 439 76 440 l 40 444 b 26 418 32 443 26 432 b 33 399 28 410 29 403 b 42 394 36 396 39 394 l 43 394 b 121 401 69 399 96 400 b 92 338 110 381 100 360 b 76 339 88 338 82 338 b -18 346 49 340 15 342 l -19 346 b -33 319 -28 344 -33 333 b -26 300 -33 311 -31 304 b -18 296 -25 297 -22 296 b 76 304 15 300 49 303 l 82 304 b 75 276 79 296 76 286 b 68 207 71 253 68 231 b 106 81 68 163 78 119 b 243 10 138 38 189 10 b 261 11 249 10 256 10 b 581 240 392 26 513 133 b 582 246 582 242 582 243 b 569 256 582 251 576 256 b 561 251 567 256 564 254 b 321 65 504 164 421 99 b 249 53 299 58 274 53 b 174 86 219 53 192 61 b 151 164 158 110 151 138 b 161 225 151 185 156 206 b 190 307 169 253 179 281 l 265 307 b 360 300 301 306 331 303 l 361 299 l 363 300 b 374 319 368 300 374 308 l 374 324 b 368 340 374 331 372 336 b 360 344 365 343 363 344 b 265 336 331 340 301 338 b 201 335 242 336 221 335 b 238 406 213 360 225 383 l 326 406 b 421 399 361 404 390 401 b 422 397 421 399 421 397 l 422 399 b 435 422 429 399 435 410 b 429 439 435 429 432 435 b 421 443 426 442 424 443 b 326 435 390 439 361 436 b 256 433 300 435 276 433 b 488 678 315 531 396 615 b 596 729 514 696 558 729 b 639 707 613 729 628 724 b 654 657 650 692 654 675 b 608 538 654 615 628 571 b 607 533 607 536 607 535 b 617 524 607 528 611 524 b 621 526 618 524 619 525 b 686 664 653 567 686 611 b 685 683 686 669 686 676 z "},"":{"ha":726,"x_min":0,"x_max":0,"o":"m 426 -6 b 751 269 519 -6 650 71 l 751 271 b 739 278 751 275 746 278 b 722 269 733 278 726 276 b 471 35 579 43 500 36 b 411 96 435 35 413 56 l 411 100 b 449 215 411 135 426 174 b 850 822 450 215 711 667 b 869 768 861 806 868 788 l 869 760 b 814 651 869 708 846 651 l 811 651 b 778 619 788 647 778 633 b 794 597 778 610 783 600 l 804 596 b 835 621 822 596 828 610 b 886 763 871 674 886 721 b 867 839 886 792 879 817 b 1117 975 947 921 1032 975 b 1283 850 1204 975 1278 921 l 1283 842 b 1228 733 1283 790 1260 733 l 1225 733 b 1192 701 1201 729 1192 715 b 1208 679 1192 692 1199 682 l 1218 678 b 1250 703 1236 678 1242 692 b 1300 844 1285 754 1300 803 b 1072 1029 1300 958 1190 1029 b 810 903 981 1029 897 986 b 658 947 768 932 714 947 b 154 517 489 947 353 796 b -46 138 21 329 -46 217 l -46 135 b 71 0 -44 14 35 0 b 313 146 139 0 229 42 l 308 113 b 426 -6 308 8 392 -6 z m 115 42 l 113 42 b 54 101 78 42 56 64 b 93 221 54 136 69 178 b 450 754 93 224 315 615 b 703 893 531 838 617 893 b 783 876 732 893 760 888 b 568 599 717 807 646 714 b 364 269 464 440 401 339 b 115 42 222 50 144 42 z "},"":{"ha":275,"x_min":0,"x_max":0,"o":"m 206 525 b 182 532 197 529 189 532 b 154 519 171 532 161 526 b 118 469 139 507 129 486 b -400 -306 -257 -157 -332 -235 b -653 -444 -481 -387 -567 -444 b -819 -319 -739 -444 -814 -390 l -819 -311 b -764 -203 -819 -260 -796 -203 l -761 -203 b -728 -171 -737 -199 -728 -185 b -744 -149 -728 -161 -733 -151 b -754 -147 -749 -147 -751 -147 b -785 -172 -772 -147 -778 -161 b -836 -314 -821 -224 -836 -272 b -608 -499 -836 -426 -726 -499 b 204 428 -357 -499 -164 -181 b 228 489 215 447 228 468 b 206 525 228 501 222 514 z m 268 664 b 251 668 263 667 257 668 b 197 629 229 668 208 653 b 190 597 193 618 190 607 b 215 551 190 576 199 560 b 232 547 221 549 226 547 b 286 588 253 547 274 563 b 293 618 290 597 293 608 b 268 664 293 638 283 656 z "},"":{"ha":617,"x_min":0,"x_max":0,"o":"m 554 526 b 531 533 546 531 538 533 b 503 521 519 533 510 528 b 467 471 488 508 478 488 b 351 279 425 400 386 336 b 99 46 207 54 129 46 l 96 46 b 39 106 63 46 40 68 l 39 110 b 236 497 39 231 236 429 b 218 528 236 511 231 521 b 197 533 211 532 204 533 b 149 507 181 533 164 522 b -61 113 142 500 -61 229 b 47 3 -61 19 26 3 b 232 86 117 3 179 40 b -51 -304 54 -196 0 -251 b -304 -443 -132 -386 -218 -443 b -471 -318 -390 -443 -465 -389 l -471 -310 b -414 -200 -471 -258 -447 -200 l -412 -200 b -379 -169 -389 -197 -379 -183 b -396 -146 -379 -158 -385 -149 b -406 -144 -399 -144 -403 -144 b -436 -169 -422 -144 -429 -158 b -487 -312 -472 -222 -487 -271 b -260 -497 -487 -425 -378 -497 b 553 429 -8 -497 185 -179 b 576 490 564 449 576 469 b 554 526 576 503 571 515 z "}}}
